<?xml version="1.0" encoding="UTF-8"?>
<svg version="1.1" xmlns="http://www.w3.org/2000/svg" width="1024" height="1024">
<path d="M0 0 C337.92 0 675.84 0 1024 0 C1024 337.92 1024 675.84 1024 1024 C686.08 1024 348.16 1024 0 1024 C0 686.08 0 348.16 0 0 Z " fill="#0F1729" transform="translate(0,0)"/>
<path d="M0 0 C1.15133423 -0.00200409 2.30266846 -0.00400818 3.4888916 -0.006073 C18.46428034 -0.01242795 33.33262315 0.32574442 48.25 1.6875 C49.36097046 1.7885907 49.36097046 1.7885907 50.49438477 1.89172363 C62.24404104 2.99404104 62.24404104 2.99404104 63.5 4.25 C64.99496842 4.45699563 66.4966592 4.61679259 68 4.75 C72.38888889 5.13888889 72.38888889 5.13888889 73.5 6.25 C76.33134222 6.78818902 79.15644334 7.2860271 82 7.75 C90.36486486 9.11486486 90.36486486 9.11486486 91.5 10.25 C93.0778125 10.4665625 93.0778125 10.4665625 94.6875 10.6875 C98.22469997 11.20938196 101.12835582 12.10405468 104.5 13.25 C106.74754114 13.8837853 108.99767956 14.50841454 111.25 15.125 C117.18092018 16.7997609 122.847428 18.80142042 128.5 21.25 C128.5 21.91 128.5 22.57 128.5 23.25 C129.5828125 23.435625 129.5828125 23.435625 130.6875 23.625 C133.48589284 24.24686507 135.83967824 25.18587129 138.5 26.25 C140.08086985 26.71675946 141.66453115 27.17410932 143.25 27.625 C151.13165954 29.97445211 158.2376973 33.5680857 165.5 37.375 C166.50776489 37.89839966 166.50776489 37.89839966 167.53588867 38.43237305 C172.38184457 41.01368914 172.38184457 41.01368914 173.5 43.25 C175.84038186 44.38102526 175.84038186 44.38102526 178.5625 45.375 C179.48160156 45.72820312 180.40070312 46.08140625 181.34765625 46.4453125 C182.05792969 46.71085937 182.76820313 46.97640625 183.5 47.25 C183.5 47.91 183.5 48.57 183.5 49.25 C184.345625 49.4975 185.19125 49.745 186.0625 50 C189.88427474 51.38973627 193.01868063 53.16120838 196.5 55.25 C196.5 55.91 196.5 56.57 196.5 57.25 C197.49 57.25 198.48 57.25 199.5 57.25 C199.5 57.91 199.5 58.57 199.5 59.25 C200.16 59.29125 200.82 59.3325 201.5 59.375 C205.93373359 60.6681723 208.9397496 63.3756122 212.5 66.25 C213.28761719 66.87519531 214.07523438 67.50039062 214.88671875 68.14453125 C216.57038863 69.48459503 218.24997455 70.82980339 219.92578125 72.1796875 C221.62544429 73.54663956 223.33108955 74.90619052 225.04296875 76.2578125 C229.8617893 80.0680427 234.54227793 83.97988342 239.1015625 88.09765625 C240.44101507 89.29967313 241.78696997 90.49487427 243.15600586 91.66308594 C248.79442362 96.49663308 254.08949065 101.65331095 259.33813477 106.90283203 C260.82226192 108.38474737 262.3142554 109.85843812 263.80664062 111.33203125 C264.76350895 112.28596897 265.71990635 113.24037935 266.67578125 114.1953125 C267.95835815 115.47172607 267.95835815 115.47172607 269.2668457 116.77392578 C271.41032115 119.15056599 272.91070131 121.48632982 274.5 124.25 C276.1436814 125.93933922 277.8142876 127.60259924 279.5 129.25 C288.98802316 139.71880758 288.98802316 139.71880758 291.90234375 144.59765625 C293.44122099 147.15241822 295.08510476 149.56973359 296.8125 152 C299.1044054 155.2569182 301.39061711 158.51577486 303.625 161.8125 C304.06070313 162.45316406 304.49640625 163.09382812 304.9453125 163.75390625 C306.7960498 166.72531614 308.47858316 169.77213577 310.16601562 172.83862305 C311.43740426 175.13684881 312.73568729 177.41735949 314.04296875 179.6953125 C321.13745647 192.18294318 327.00180048 204.99139899 332.5 218.25 C333.11667312 219.70594714 333.73381322 221.16169664 334.3515625 222.6171875 C337.10312623 229.19168415 339.33599649 235.69167625 340.859375 242.6640625 C341.51906037 245.32693881 342.47663867 247.70687072 343.5 250.25 C345.77209612 257.84704727 347.69737207 265.53004997 349.5 273.25 C349.70560547 274.12946289 349.91121094 275.00892578 350.12304688 275.91503906 C355.87534387 301.08352392 357.76948461 326.1989174 357.75 351.9375 C357.74940582 352.81842316 357.74881165 353.69934631 357.74819946 354.60696411 C357.74170379 357.1170286 357.7252998 359.62674752 357.703125 362.13671875 C357.6987291 362.88426422 357.69433319 363.63180969 357.68980408 364.40200806 C357.63906218 368.14740268 357.3148841 371.59879223 356.5 375.25 C356.40798262 377.25802365 356.31896857 379.26635446 356.26049805 381.27563477 C354.81058961 427.93941039 354.81058961 427.93941039 346.5 436.25 C346.05175702 438.26406472 345.64279014 440.28689037 345.25 442.3125 C335.44287524 488.86114958 310.35700035 536.37948316 279.5 572.25 C278.10259856 573.99874809 276.70683055 575.7488024 275.3125 577.5 C263.16671674 592.32375978 249.50242947 607.06818505 234.42578125 618.9375 C232.27951804 620.63387893 230.1863695 622.35214449 228.10546875 624.125 C207.09827135 641.87986326 183.21425177 656.42619997 158.44189453 668.31152344 C156.53366109 669.23373231 154.63963811 670.18087208 152.74609375 671.1328125 C128.97148467 682.91654032 104.29848658 690.52684673 78.5 696.25 C76.96085938 696.59200439 76.96085938 696.59200439 75.390625 696.94091797 C60.94669798 700.09553946 46.53504222 702.27489504 31.75146484 702.90893555 C31.03941895 702.94027588 30.32737305 702.97161621 29.59375 703.00390625 C28.97177734 703.02783447 28.34980469 703.0517627 27.70898438 703.07641602 C25.89480529 703.21897584 24.08963704 703.4719658 22.29199219 703.75488281 C18.07168852 704.30592427 13.98379843 704.41190003 9.734375 704.41796875 C8.90149963 704.42129715 8.06862427 704.42462555 7.21051025 704.42805481 C5.44893948 704.43309838 3.68735923 704.43546393 1.92578125 704.43530273 C-0.7006933 704.43745951 -3.32672624 704.45555957 -5.953125 704.47460938 C-35.85326516 704.57336742 -35.85326516 704.57336742 -42.5 701.25 C-44.58985549 701.07354221 -46.68025238 700.90203737 -48.77246094 700.75610352 C-58.62419823 700.04041758 -68.11317945 698.47670403 -77.75 696.3125 C-79.44370728 695.93315308 -79.44370728 695.93315308 -81.17163086 695.54614258 C-86.70736746 694.26239204 -92.10010317 692.81528078 -97.46582031 690.94458008 C-100.04018292 690.06555204 -102.64501198 689.34230982 -105.26586914 688.61669922 C-125.44424864 682.98055778 -144.78494705 674.60752647 -163.5 665.25 C-163.5 664.59 -163.5 663.93 -163.5 663.25 C-164.49386719 663.13591797 -164.49386719 663.13591797 -165.5078125 663.01953125 C-169.54884636 661.98025753 -172.78983571 660.03163802 -176.375 657.9375 C-177.05691406 657.54626953 -177.73882812 657.15503906 -178.44140625 656.75195312 C-179.79694397 655.97348718 -181.1508211 655.1921217 -182.50292969 654.40771484 C-185.49368873 652.67395208 -188.49732018 650.96301708 -191.5 649.25 C-191.5 648.59 -191.5 647.93 -191.5 647.25 C-192.07878906 647.14429688 -192.65757812 647.03859375 -193.25390625 646.9296875 C-195.82678936 646.1511107 -197.34060161 645.04421417 -199.4375 643.375 C-201.69917361 641.61358505 -203.84825107 640.04104936 -206.3125 638.5625 C-208.42023598 637.29785841 -209.77596496 635.97403504 -211.5 634.25 C-212.57894531 633.63511719 -212.57894531 633.63511719 -213.6796875 633.0078125 C-217.77239628 630.45695523 -221.24368995 627.27750207 -224.859375 624.1015625 C-227.39620977 621.90690545 -229.28382091 620.3220597 -232.5 619.25 C-232.5 618.59 -232.5 617.93 -232.5 617.25 C-233.16 617.25 -233.82 617.25 -234.5 617.25 C-234.5 616.59 -234.5 615.93 -234.5 615.25 C-235.06332031 615.00507812 -235.62664062 614.76015625 -236.20703125 614.5078125 C-238.91956487 613.01984687 -240.91557863 611.22497241 -243.1875 609.125 C-246.54747969 606.03798764 -249.93166973 602.99370532 -253.375 600 C-256.42232579 597.29246452 -259.2013384 594.6480215 -261.5 591.25 C-261.5 590.59 -261.5 589.93 -261.5 589.25 C-262.16 589.25 -262.82 589.25 -263.5 589.25 C-263.5 588.59 -263.5 587.93 -263.5 587.25 C-264.16 587.25 -264.82 587.25 -265.5 587.25 C-266.91015625 585.44921875 -266.91015625 585.44921875 -268.5625 582.9375 C-273.55187279 575.59896419 -279.20573127 568.8454305 -285.0625 562.1875 C-287.5 559.25 -287.5 559.25 -287.5 557.25 C-288.16 557.25 -288.82 557.25 -289.5 557.25 C-299.5 544.65 -299.5 544.65 -299.5 539.25 C-300.16 539.25 -300.82 539.25 -301.5 539.25 C-301.90992188 538.47914063 -302.31984375 537.70828125 -302.7421875 536.9140625 C-303.28101563 535.91117188 -303.81984375 534.90828125 -304.375 533.875 C-304.90867187 532.87726562 -305.44234375 531.87953125 -305.9921875 530.8515625 C-307.3820138 528.19651605 -307.3820138 528.19651605 -309.5 526.25 C-309.5 524.93 -309.5 523.61 -309.5 522.25 C-310.16 522.25 -310.82 522.25 -311.5 522.25 C-312.9606285 519.60261084 -313.5 518.35551666 -313.5 515.25 C-314.16 515.25 -314.82 515.25 -315.5 515.25 C-315.75394531 514.49074219 -316.00789063 513.73148438 -316.26953125 512.94921875 C-316.61371094 511.95535156 -316.95789063 510.96148438 -317.3125 509.9375 C-317.81716797 508.45830078 -317.81716797 508.45830078 -318.33203125 506.94921875 C-319.48728247 504.27939068 -320.46416498 503.22351354 -322.5 501.25 C-323.88671875 498.69140625 -323.88671875 498.69140625 -325.1875 495.8125 C-325.84298828 494.39130859 -325.84298828 494.39130859 -326.51171875 492.94140625 C-327.5 490.25 -327.5 490.25 -327.5 486.25 C-328.49 485.92 -329.48 485.59 -330.5 485.25 C-330.60957031 484.60933594 -330.71914063 483.96867187 -330.83203125 483.30859375 C-331.59291901 479.15773452 -332.33273201 475.27686082 -334.125 471.4375 C-335.45241613 468.36030806 -335.79925908 466.54184985 -335.5 463.25 C-336.16 463.25 -336.82 463.25 -337.5 463.25 C-337.83 460.94 -338.16 458.63 -338.5 456.25 C-339.16 456.25 -339.82 456.25 -340.5 456.25 C-340.62117187 455.38117188 -340.74234375 454.51234375 -340.8671875 453.6171875 C-341.03476562 452.46476562 -341.20234375 451.31234375 -341.375 450.125 C-341.53742188 448.98804688 -341.69984375 447.85109375 -341.8671875 446.6796875 C-342.47681771 443.37564231 -343.37929286 440.41184296 -344.5 437.25 C-346.46766882 430.88567404 -347.84801234 424.80619464 -348.2890625 418.1484375 C-348.30091912 416.24084919 -348.30091912 416.24084919 -349.5 415.25 C-349.82446337 412.14957227 -350.01334441 409.0479275 -350.21875 405.9375 C-350.20607799 403.33403248 -350.20607799 403.33403248 -351.5 402.25 C-351.70896317 400.44188816 -351.86780361 398.62783968 -352 396.8125 C-352.21419183 392.88565085 -352.21419183 392.88565085 -353.5 389.25 C-353.74196983 386.865518 -353.92274274 384.50848485 -354.0546875 382.1171875 C-354.09673309 381.37322723 -354.13877869 380.62926697 -354.18209839 379.86276245 C-354.66148579 370.40650017 -354.64993224 360.9450953 -354.63037109 351.47900391 C-354.62492388 348.3310076 -354.6303965 345.18314873 -354.63671875 342.03515625 C-354.63605934 340.02604135 -354.63478102 338.01692654 -354.6328125 336.0078125 C-354.63483673 335.07043243 -354.63686096 334.13305237 -354.63894653 333.16726685 C-354.63579437 332.30140961 -354.63264221 331.43555237 -354.62939453 330.54345703 C-354.62859894 329.78420929 -354.62780334 329.02496155 -354.62698364 328.2427063 C-354.5 326.25 -354.5 326.25 -353.5 323.25 C-353.28201064 321.11434915 -353.11021611 318.97385075 -352.96484375 316.83203125 C-352.87783203 315.57841797 -352.79082031 314.32480469 -352.70117188 313.03320312 C-352.61416016 311.72287109 -352.52714844 310.41253906 -352.4375 309.0625 C-352.3460625 307.72718888 -352.25426975 306.39190204 -352.16210938 305.05664062 C-351.9379054 301.78798273 -351.71735074 298.5191196 -351.5 295.25 C-350.84 295.25 -350.18 295.25 -349.5 295.25 C-349.52320313 294.24839844 -349.54640625 293.24679687 -349.5703125 292.21484375 C-349.58908789 290.87240336 -349.60728618 289.52995482 -349.625 288.1875 C-349.64820313 286.87652344 -349.67140625 285.56554687 -349.6953125 284.21484375 C-349.49417522 280.13175701 -348.77165462 277.10000947 -347.5 273.25 C-346.84 273.25 -346.18 273.25 -345.5 273.25 C-345.355625 272.239375 -345.21125 271.22875 -345.0625 270.1875 C-344.876875 268.888125 -344.69125 267.58875 -344.5 266.25 C-344.335 264.97125 -344.17 263.6925 -344 262.375 C-343.5 259.25 -343.5 259.25 -342.5 258.25 C-341.9380482 255.73140772 -341.42023227 253.22126697 -340.9375 250.6875 C-340.79892578 249.97658203 -340.66035156 249.26566406 -340.51757812 248.53320312 C-340.17494946 246.77280068 -339.83703447 245.01148203 -339.5 243.25 C-338.84 243.25 -338.18 243.25 -337.5 243.25 C-337.396875 242.46625 -337.29375 241.6825 -337.1875 240.875 C-336.30420046 236.2176024 -334.91971242 231.76807851 -333.5 227.25 C-332.84 227.25 -332.18 227.25 -331.5 227.25 C-331.38011719 226.38632812 -331.26023437 225.52265625 -331.13671875 224.6328125 C-329.09437024 213.78205293 -323.593458 203.02537876 -317.9140625 193.625 C-316.35679629 191.12812262 -316.35679629 191.12812262 -315 187.75 C-313.69259423 184.69938654 -312.20078912 182.08464854 -310.5 179.25 C-310.07332031 178.20585937 -309.64664063 177.16171875 -309.20703125 176.0859375 C-307.44194612 171.91194074 -305.12648796 168.18408211 -302.6875 164.375 C-302.24535156 163.67826172 -301.80320312 162.98152344 -301.34765625 162.26367188 C-300.47063993 160.88532021 -299.59100155 159.50863271 -298.70849609 158.13378906 C-297.65885305 156.49761822 -296.61951169 154.85484744 -295.58203125 153.2109375 C-295.05996094 152.39882813 -294.53789062 151.58671875 -294 150.75 C-293.5565625 150.0590625 -293.113125 149.368125 -292.65625 148.65625 C-292.2746875 148.1921875 -291.893125 147.728125 -291.5 147.25 C-290.84 147.25 -290.18 147.25 -289.5 147.25 C-289.21125 146.486875 -288.9225 145.72375 -288.625 144.9375 C-287.5 142.25 -287.5 142.25 -285.5 139.25 C-284.84 139.25 -284.18 139.25 -283.5 139.25 C-283.273125 138.72535156 -283.04625 138.20070313 -282.8125 137.66015625 C-281.04217697 134.4092952 -278.78273727 131.58657633 -276.5 128.6875 C-274.07888121 125.59192668 -271.6818227 122.52273406 -269.5 119.25 C-268.84 119.25 -268.18 119.25 -267.5 119.25 C-267.5 118.59 -267.5 117.93 -267.5 117.25 C-266.84 117.25 -266.18 117.25 -265.5 117.25 C-265.12875 116.38375 -265.12875 116.38375 -264.75 115.5 C-263.30606301 112.90091342 -261.76478013 111.17163162 -259.5 109.25 C-258.51 109.25 -257.52 109.25 -256.5 109.25 C-256.26925781 108.71375 -256.03851563 108.1775 -255.80078125 107.625 C-254.10928277 104.5366184 -251.9428313 101.93381103 -249.6875 99.25 C-249.26146484 98.72921875 -248.83542969 98.2084375 -248.39648438 97.671875 C-245.69864616 94.43936688 -242.94248993 91.6813681 -239.5 89.25 C-238.84 89.25 -238.18 89.25 -237.5 89.25 C-237.5 88.59 -237.5 87.93 -237.5 87.25 C-236.84 87.25 -236.18 87.25 -235.5 87.25 C-235.5 86.59 -235.5 85.93 -235.5 85.25 C-233.8203125 83.7421875 -233.8203125 83.7421875 -231.625 82.125 C-230.90570313 81.58617187 -230.18640625 81.04734375 -229.4453125 80.4921875 C-227.5 79.25 -227.5 79.25 -225.5 79.25 C-225.5 78.59 -225.5 77.93 -225.5 77.25 C-223.36521656 75.58295001 -221.23011018 74.02988045 -219 72.5 C-217.71293445 71.60243258 -216.42647303 70.70399826 -215.140625 69.8046875 C-214.51478516 69.36866211 -213.88894531 68.93263672 -213.24414062 68.48339844 C-210.41230995 66.48082165 -207.67819276 64.35544734 -204.953125 62.2109375 C-203.5 61.25 -203.5 61.25 -201.5 61.25 C-201.5 60.59 -201.5 59.93 -201.5 59.25 C-200.18 59.25 -198.86 59.25 -197.5 59.25 C-197.5 58.59 -197.5 57.93 -197.5 57.25 C-196.84 57.25 -196.18 57.25 -195.5 57.25 C-195.5 56.59 -195.5 55.93 -195.5 55.25 C-194.943125 54.94707031 -194.38625 54.64414063 -193.8125 54.33203125 C-189.92569302 52.19822674 -186.10173837 50.02911162 -182.375 47.625 C-179.91178329 46.05794364 -177.50923617 44.74330096 -174.8125 43.625 C-171.5128239 42.35647668 -171.5128239 42.35647668 -168.75 40.5625 C-166.5 39.25 -166.5 39.25 -163.5 39.25 C-163.5 38.59 -163.5 37.93 -163.5 37.25 C-160.86 36.59 -158.22 35.93 -155.5 35.25 C-155.5 34.59 -155.5 33.93 -155.5 33.25 C-154.61957031 32.92386719 -153.73914063 32.59773438 -152.83203125 32.26171875 C-151.08986328 31.60623047 -151.08986328 31.60623047 -149.3125 30.9375 C-148.16394531 30.50824219 -147.01539063 30.07898438 -145.83203125 29.63671875 C-142.83316751 28.38865705 -140.27453257 26.91563222 -137.5 25.25 C-135.10546875 24.40625 -135.10546875 24.40625 -132.6875 23.75 C-129.42167916 22.83011902 -126.27714873 21.81746763 -123.125 20.5625 C-119.5 19.25 -119.5 19.25 -115.5 19.25 C-115.5 18.59 -115.5 17.93 -115.5 17.25 C-111.48549051 15.48024486 -107.5464066 14.54588249 -103.25 13.6875 C-99.0518622 13.16988385 -99.0518622 13.16988385 -95.5 11.25 C-93.50041636 11.20919217 -91.49954746 11.20745644 -89.5 11.25 C-89.5 10.59 -89.5 9.93 -89.5 9.25 C-84.13848171 7.76068936 -79.05422457 6.9113084 -73.50390625 6.49609375 C-71.50399207 6.45920675 -71.50399207 6.45920675 -70.5 5.25 C-68.18182911 4.92902249 -65.86220643 4.73779044 -63.53125 4.53125 C-61.50819407 4.45934163 -61.50819407 4.45934163 -60.5 3.25 C-58.37887958 3.03964095 -56.25246581 2.88149899 -54.125 2.75 C-50.64907092 2.53419953 -47.8073524 2.3524508 -44.5 1.25 C-41.79666092 1.01592858 -39.11494027 0.83541765 -36.40625 0.703125 C-35.15660461 0.64067596 -35.15660461 0.64067596 -33.88171387 0.57696533 C-22.59283303 0.06177051 -11.2988322 0.00961232 0 0 Z " fill="#0F1729" transform="translate(511.5,162.75)"/>
<path d="M0 0 C1.15133423 -0.00200409 2.30266846 -0.00400818 3.4888916 -0.006073 C18.46428034 -0.01242795 33.33262315 0.32574442 48.25 1.6875 C49.36097046 1.7885907 49.36097046 1.7885907 50.49438477 1.89172363 C62.24404104 2.99404104 62.24404104 2.99404104 63.5 4.25 C64.99496842 4.45699563 66.4966592 4.61679259 68 4.75 C72.38888889 5.13888889 72.38888889 5.13888889 73.5 6.25 C76.33134222 6.78818902 79.15644334 7.2860271 82 7.75 C90.36486486 9.11486486 90.36486486 9.11486486 91.5 10.25 C93.0778125 10.4665625 93.0778125 10.4665625 94.6875 10.6875 C98.22469997 11.20938196 101.12835582 12.10405468 104.5 13.25 C106.74754114 13.8837853 108.99767956 14.50841454 111.25 15.125 C117.18092018 16.7997609 122.847428 18.80142042 128.5 21.25 C128.5 21.91 128.5 22.57 128.5 23.25 C129.5828125 23.435625 129.5828125 23.435625 130.6875 23.625 C133.48589284 24.24686507 135.83967824 25.18587129 138.5 26.25 C140.08086985 26.71675946 141.66453115 27.17410932 143.25 27.625 C151.13165954 29.97445211 158.2376973 33.5680857 165.5 37.375 C166.50776489 37.89839966 166.50776489 37.89839966 167.53588867 38.43237305 C172.38184457 41.01368914 172.38184457 41.01368914 173.5 43.25 C175.84038186 44.38102526 175.84038186 44.38102526 178.5625 45.375 C179.48160156 45.72820312 180.40070312 46.08140625 181.34765625 46.4453125 C182.05792969 46.71085937 182.76820313 46.97640625 183.5 47.25 C183.5 47.91 183.5 48.57 183.5 49.25 C184.345625 49.4975 185.19125 49.745 186.0625 50 C189.88427474 51.38973627 193.01868063 53.16120838 196.5 55.25 C196.5 55.91 196.5 56.57 196.5 57.25 C197.49 57.25 198.48 57.25 199.5 57.25 C199.5 57.91 199.5 58.57 199.5 59.25 C200.16 59.29125 200.82 59.3325 201.5 59.375 C205.93373359 60.6681723 208.9397496 63.3756122 212.5 66.25 C213.28761719 66.87519531 214.07523438 67.50039062 214.88671875 68.14453125 C216.57038863 69.48459503 218.24997455 70.82980339 219.92578125 72.1796875 C221.62544429 73.54663956 223.33108955 74.90619052 225.04296875 76.2578125 C229.8617893 80.0680427 234.54227793 83.97988342 239.1015625 88.09765625 C240.44101507 89.29967313 241.78696997 90.49487427 243.15600586 91.66308594 C248.79442362 96.49663308 254.08949065 101.65331095 259.33813477 106.90283203 C260.82226192 108.38474737 262.3142554 109.85843812 263.80664062 111.33203125 C264.76350895 112.28596897 265.71990635 113.24037935 266.67578125 114.1953125 C267.95835815 115.47172607 267.95835815 115.47172607 269.2668457 116.77392578 C271.41032115 119.15056599 272.91070131 121.48632982 274.5 124.25 C276.1436814 125.93933922 277.8142876 127.60259924 279.5 129.25 C288.98802316 139.71880758 288.98802316 139.71880758 291.90234375 144.59765625 C293.44122099 147.15241822 295.08510476 149.56973359 296.8125 152 C299.1044054 155.2569182 301.39061711 158.51577486 303.625 161.8125 C304.06070313 162.45316406 304.49640625 163.09382812 304.9453125 163.75390625 C306.7960498 166.72531614 308.47858316 169.77213577 310.16601562 172.83862305 C311.43740426 175.13684881 312.73568729 177.41735949 314.04296875 179.6953125 C321.13745647 192.18294318 327.00180048 204.99139899 332.5 218.25 C333.11667312 219.70594714 333.73381322 221.16169664 334.3515625 222.6171875 C337.10312623 229.19168415 339.33599649 235.69167625 340.859375 242.6640625 C341.51906037 245.32693881 342.47663867 247.70687072 343.5 250.25 C345.77209612 257.84704727 347.69737207 265.53004997 349.5 273.25 C349.70560547 274.12946289 349.91121094 275.00892578 350.12304688 275.91503906 C355.87534387 301.08352392 357.76948461 326.1989174 357.75 351.9375 C357.74940582 352.81842316 357.74881165 353.69934631 357.74819946 354.60696411 C357.74170379 357.1170286 357.7252998 359.62674752 357.703125 362.13671875 C357.6987291 362.88426422 357.69433319 363.63180969 357.68980408 364.40200806 C357.63906218 368.14740268 357.3148841 371.59879223 356.5 375.25 C356.40798262 377.25802365 356.31896857 379.26635446 356.26049805 381.27563477 C354.81058961 427.93941039 354.81058961 427.93941039 346.5 436.25 C346.05175702 438.26406472 345.64279014 440.28689037 345.25 442.3125 C335.44287524 488.86114958 310.35700035 536.37948316 279.5 572.25 C278.10259856 573.99874809 276.70683055 575.7488024 275.3125 577.5 C263.16671674 592.32375978 249.50242947 607.06818505 234.42578125 618.9375 C232.27951804 620.63387893 230.1863695 622.35214449 228.10546875 624.125 C207.09827135 641.87986326 183.21425177 656.42619997 158.44189453 668.31152344 C156.53366109 669.23373231 154.63963811 670.18087208 152.74609375 671.1328125 C128.97148467 682.91654032 104.29848658 690.52684673 78.5 696.25 C76.96085938 696.59200439 76.96085938 696.59200439 75.390625 696.94091797 C60.94669798 700.09553946 46.53504222 702.27489504 31.75146484 702.90893555 C31.03941895 702.94027588 30.32737305 702.97161621 29.59375 703.00390625 C28.97177734 703.02783447 28.34980469 703.0517627 27.70898438 703.07641602 C25.89480529 703.21897584 24.08963704 703.4719658 22.29199219 703.75488281 C18.07168852 704.30592427 13.98379843 704.41190003 9.734375 704.41796875 C8.90149963 704.42129715 8.06862427 704.42462555 7.21051025 704.42805481 C5.44893948 704.43309838 3.68735923 704.43546393 1.92578125 704.43530273 C-0.7006933 704.43745951 -3.32672624 704.45555957 -5.953125 704.47460938 C-35.85326516 704.57336742 -35.85326516 704.57336742 -42.5 701.25 C-44.58985549 701.07354221 -46.68025238 700.90203737 -48.77246094 700.75610352 C-58.62419823 700.04041758 -68.11317945 698.47670403 -77.75 696.3125 C-79.44370728 695.93315308 -79.44370728 695.93315308 -81.17163086 695.54614258 C-86.70736746 694.26239204 -92.10010317 692.81528078 -97.46582031 690.94458008 C-100.04018292 690.06555204 -102.64501198 689.34230982 -105.26586914 688.61669922 C-125.44424864 682.98055778 -144.78494705 674.60752647 -163.5 665.25 C-163.5 664.59 -163.5 663.93 -163.5 663.25 C-164.49386719 663.13591797 -164.49386719 663.13591797 -165.5078125 663.01953125 C-169.54884636 661.98025753 -172.78983571 660.03163802 -176.375 657.9375 C-177.05691406 657.54626953 -177.73882812 657.15503906 -178.44140625 656.75195312 C-179.79694397 655.97348718 -181.1508211 655.1921217 -182.50292969 654.40771484 C-185.49368873 652.67395208 -188.49732018 650.96301708 -191.5 649.25 C-191.5 648.59 -191.5 647.93 -191.5 647.25 C-192.07878906 647.14429688 -192.65757812 647.03859375 -193.25390625 646.9296875 C-195.82678936 646.1511107 -197.34060161 645.04421417 -199.4375 643.375 C-201.69917361 641.61358505 -203.84825107 640.04104936 -206.3125 638.5625 C-208.42023598 637.29785841 -209.77596496 635.97403504 -211.5 634.25 C-212.57894531 633.63511719 -212.57894531 633.63511719 -213.6796875 633.0078125 C-217.77239628 630.45695523 -221.24368995 627.27750207 -224.859375 624.1015625 C-227.39620977 621.90690545 -229.28382091 620.3220597 -232.5 619.25 C-232.5 618.59 -232.5 617.93 -232.5 617.25 C-233.16 617.25 -233.82 617.25 -234.5 617.25 C-234.5 616.59 -234.5 615.93 -234.5 615.25 C-235.06332031 615.00507812 -235.62664062 614.76015625 -236.20703125 614.5078125 C-238.91956487 613.01984687 -240.91557863 611.22497241 -243.1875 609.125 C-246.54747969 606.03798764 -249.93166973 602.99370532 -253.375 600 C-256.42232579 597.29246452 -259.2013384 594.6480215 -261.5 591.25 C-261.5 590.59 -261.5 589.93 -261.5 589.25 C-262.16 589.25 -262.82 589.25 -263.5 589.25 C-263.5 588.59 -263.5 587.93 -263.5 587.25 C-264.16 587.25 -264.82 587.25 -265.5 587.25 C-266.91015625 585.44921875 -266.91015625 585.44921875 -268.5625 582.9375 C-273.55187279 575.59896419 -279.20573127 568.8454305 -285.0625 562.1875 C-287.5 559.25 -287.5 559.25 -287.5 557.25 C-288.16 557.25 -288.82 557.25 -289.5 557.25 C-299.5 544.65 -299.5 544.65 -299.5 539.25 C-300.16 539.25 -300.82 539.25 -301.5 539.25 C-301.90992188 538.47914063 -302.31984375 537.70828125 -302.7421875 536.9140625 C-303.28101563 535.91117188 -303.81984375 534.90828125 -304.375 533.875 C-304.90867187 532.87726562 -305.44234375 531.87953125 -305.9921875 530.8515625 C-307.3820138 528.19651605 -307.3820138 528.19651605 -309.5 526.25 C-309.5 524.93 -309.5 523.61 -309.5 522.25 C-310.16 522.25 -310.82 522.25 -311.5 522.25 C-312.9606285 519.60261084 -313.5 518.35551666 -313.5 515.25 C-314.16 515.25 -314.82 515.25 -315.5 515.25 C-315.75394531 514.49074219 -316.00789063 513.73148438 -316.26953125 512.94921875 C-316.61371094 511.95535156 -316.95789063 510.96148438 -317.3125 509.9375 C-317.81716797 508.45830078 -317.81716797 508.45830078 -318.33203125 506.94921875 C-319.48728247 504.27939068 -320.46416498 503.22351354 -322.5 501.25 C-323.88671875 498.69140625 -323.88671875 498.69140625 -325.1875 495.8125 C-325.84298828 494.39130859 -325.84298828 494.39130859 -326.51171875 492.94140625 C-327.5 490.25 -327.5 490.25 -327.5 486.25 C-328.49 485.92 -329.48 485.59 -330.5 485.25 C-330.60957031 484.60933594 -330.71914063 483.96867187 -330.83203125 483.30859375 C-331.59291901 479.15773452 -332.33273201 475.27686082 -334.125 471.4375 C-335.45241613 468.36030806 -335.79925908 466.54184985 -335.5 463.25 C-336.16 463.25 -336.82 463.25 -337.5 463.25 C-337.83 460.94 -338.16 458.63 -338.5 456.25 C-339.16 456.25 -339.82 456.25 -340.5 456.25 C-340.62117187 455.38117188 -340.74234375 454.51234375 -340.8671875 453.6171875 C-341.03476562 452.46476562 -341.20234375 451.31234375 -341.375 450.125 C-341.53742188 448.98804688 -341.69984375 447.85109375 -341.8671875 446.6796875 C-342.47681771 443.37564231 -343.37929286 440.41184296 -344.5 437.25 C-346.46766882 430.88567404 -347.84801234 424.80619464 -348.2890625 418.1484375 C-348.30091912 416.24084919 -348.30091912 416.24084919 -349.5 415.25 C-349.82446337 412.14957227 -350.01334441 409.0479275 -350.21875 405.9375 C-350.20607799 403.33403248 -350.20607799 403.33403248 -351.5 402.25 C-351.70896317 400.44188816 -351.86780361 398.62783968 -352 396.8125 C-352.21419183 392.88565085 -352.21419183 392.88565085 -353.5 389.25 C-353.74196983 386.865518 -353.92274274 384.50848485 -354.0546875 382.1171875 C-354.09673309 381.37322723 -354.13877869 380.62926697 -354.18209839 379.86276245 C-354.66148579 370.40650017 -354.64993224 360.9450953 -354.63037109 351.47900391 C-354.62492388 348.3310076 -354.6303965 345.18314873 -354.63671875 342.03515625 C-354.63605934 340.02604135 -354.63478102 338.01692654 -354.6328125 336.0078125 C-354.63483673 335.07043243 -354.63686096 334.13305237 -354.63894653 333.16726685 C-354.63579437 332.30140961 -354.63264221 331.43555237 -354.62939453 330.54345703 C-354.62859894 329.78420929 -354.62780334 329.02496155 -354.62698364 328.2427063 C-354.5 326.25 -354.5 326.25 -353.5 323.25 C-353.28201064 321.11434915 -353.11021611 318.97385075 -352.96484375 316.83203125 C-352.87783203 315.57841797 -352.79082031 314.32480469 -352.70117188 313.03320312 C-352.61416016 311.72287109 -352.52714844 310.41253906 -352.4375 309.0625 C-352.3460625 307.72718888 -352.25426975 306.39190204 -352.16210938 305.05664062 C-351.9379054 301.78798273 -351.71735074 298.5191196 -351.5 295.25 C-350.84 295.25 -350.18 295.25 -349.5 295.25 C-349.52320313 294.24839844 -349.54640625 293.24679687 -349.5703125 292.21484375 C-349.58908789 290.87240336 -349.60728618 289.52995482 -349.625 288.1875 C-349.64820313 286.87652344 -349.67140625 285.56554687 -349.6953125 284.21484375 C-349.49417522 280.13175701 -348.77165462 277.10000947 -347.5 273.25 C-346.84 273.25 -346.18 273.25 -345.5 273.25 C-345.355625 272.239375 -345.21125 271.22875 -345.0625 270.1875 C-344.876875 268.888125 -344.69125 267.58875 -344.5 266.25 C-344.335 264.97125 -344.17 263.6925 -344 262.375 C-343.5 259.25 -343.5 259.25 -342.5 258.25 C-341.9380482 255.73140772 -341.42023227 253.22126697 -340.9375 250.6875 C-340.79892578 249.97658203 -340.66035156 249.26566406 -340.51757812 248.53320312 C-340.17494946 246.77280068 -339.83703447 245.01148203 -339.5 243.25 C-338.84 243.25 -338.18 243.25 -337.5 243.25 C-337.396875 242.46625 -337.29375 241.6825 -337.1875 240.875 C-336.30420046 236.2176024 -334.91971242 231.76807851 -333.5 227.25 C-332.84 227.25 -332.18 227.25 -331.5 227.25 C-331.38011719 226.38632812 -331.26023437 225.52265625 -331.13671875 224.6328125 C-329.09437024 213.78205293 -323.593458 203.02537876 -317.9140625 193.625 C-316.35679629 191.12812262 -316.35679629 191.12812262 -315 187.75 C-313.69259423 184.69938654 -312.20078912 182.08464854 -310.5 179.25 C-310.07332031 178.20585937 -309.64664063 177.16171875 -309.20703125 176.0859375 C-307.44194612 171.91194074 -305.12648796 168.18408211 -302.6875 164.375 C-302.24535156 163.67826172 -301.80320312 162.98152344 -301.34765625 162.26367188 C-300.47063993 160.88532021 -299.59100155 159.50863271 -298.70849609 158.13378906 C-297.65885305 156.49761822 -296.61951169 154.85484744 -295.58203125 153.2109375 C-295.05996094 152.39882813 -294.53789062 151.58671875 -294 150.75 C-293.5565625 150.0590625 -293.113125 149.368125 -292.65625 148.65625 C-292.2746875 148.1921875 -291.893125 147.728125 -291.5 147.25 C-290.84 147.25 -290.18 147.25 -289.5 147.25 C-289.21125 146.486875 -288.9225 145.72375 -288.625 144.9375 C-287.5 142.25 -287.5 142.25 -285.5 139.25 C-284.84 139.25 -284.18 139.25 -283.5 139.25 C-283.273125 138.72535156 -283.04625 138.20070313 -282.8125 137.66015625 C-281.04217697 134.4092952 -278.78273727 131.58657633 -276.5 128.6875 C-274.07888121 125.59192668 -271.6818227 122.52273406 -269.5 119.25 C-268.84 119.25 -268.18 119.25 -267.5 119.25 C-267.5 118.59 -267.5 117.93 -267.5 117.25 C-266.84 117.25 -266.18 117.25 -265.5 117.25 C-265.12875 116.38375 -265.12875 116.38375 -264.75 115.5 C-263.30606301 112.90091342 -261.76478013 111.17163162 -259.5 109.25 C-258.51 109.25 -257.52 109.25 -256.5 109.25 C-256.26925781 108.71375 -256.03851563 108.1775 -255.80078125 107.625 C-254.10928277 104.5366184 -251.9428313 101.93381103 -249.6875 99.25 C-249.26146484 98.72921875 -248.83542969 98.2084375 -248.39648438 97.671875 C-245.69864616 94.43936688 -242.94248993 91.6813681 -239.5 89.25 C-238.84 89.25 -238.18 89.25 -237.5 89.25 C-237.5 88.59 -237.5 87.93 -237.5 87.25 C-236.84 87.25 -236.18 87.25 -235.5 87.25 C-235.5 86.59 -235.5 85.93 -235.5 85.25 C-233.8203125 83.7421875 -233.8203125 83.7421875 -231.625 82.125 C-230.90570313 81.58617187 -230.18640625 81.04734375 -229.4453125 80.4921875 C-227.5 79.25 -227.5 79.25 -225.5 79.25 C-225.5 78.59 -225.5 77.93 -225.5 77.25 C-223.36521656 75.58295001 -221.23011018 74.02988045 -219 72.5 C-217.71293445 71.60243258 -216.42647303 70.70399826 -215.140625 69.8046875 C-214.51478516 69.36866211 -213.88894531 68.93263672 -213.24414062 68.48339844 C-210.41230995 66.48082165 -207.67819276 64.35544734 -204.953125 62.2109375 C-203.5 61.25 -203.5 61.25 -201.5 61.25 C-201.5 60.59 -201.5 59.93 -201.5 59.25 C-200.18 59.25 -198.86 59.25 -197.5 59.25 C-197.5 58.59 -197.5 57.93 -197.5 57.25 C-196.84 57.25 -196.18 57.25 -195.5 57.25 C-195.5 56.59 -195.5 55.93 -195.5 55.25 C-194.943125 54.94707031 -194.38625 54.64414063 -193.8125 54.33203125 C-189.92569302 52.19822674 -186.10173837 50.02911162 -182.375 47.625 C-179.91178329 46.05794364 -177.50923617 44.74330096 -174.8125 43.625 C-171.5128239 42.35647668 -171.5128239 42.35647668 -168.75 40.5625 C-166.5 39.25 -166.5 39.25 -163.5 39.25 C-163.5 38.59 -163.5 37.93 -163.5 37.25 C-160.86 36.59 -158.22 35.93 -155.5 35.25 C-155.5 34.59 -155.5 33.93 -155.5 33.25 C-154.61957031 32.92386719 -153.73914063 32.59773438 -152.83203125 32.26171875 C-151.08986328 31.60623047 -151.08986328 31.60623047 -149.3125 30.9375 C-148.16394531 30.50824219 -147.01539063 30.07898438 -145.83203125 29.63671875 C-142.83316751 28.38865705 -140.27453257 26.91563222 -137.5 25.25 C-135.10546875 24.40625 -135.10546875 24.40625 -132.6875 23.75 C-129.42167916 22.83011902 -126.27714873 21.81746763 -123.125 20.5625 C-119.5 19.25 -119.5 19.25 -115.5 19.25 C-115.5 18.59 -115.5 17.93 -115.5 17.25 C-111.48549051 15.48024486 -107.5464066 14.54588249 -103.25 13.6875 C-99.0518622 13.16988385 -99.0518622 13.16988385 -95.5 11.25 C-93.50041636 11.20919217 -91.49954746 11.20745644 -89.5 11.25 C-89.5 10.59 -89.5 9.93 -89.5 9.25 C-84.13848171 7.76068936 -79.05422457 6.9113084 -73.50390625 6.49609375 C-71.50399207 6.45920675 -71.50399207 6.45920675 -70.5 5.25 C-68.18182911 4.92902249 -65.86220643 4.73779044 -63.53125 4.53125 C-61.50819407 4.45934163 -61.50819407 4.45934163 -60.5 3.25 C-58.37887958 3.03964095 -56.25246581 2.88149899 -54.125 2.75 C-50.64907092 2.53419953 -47.8073524 2.3524508 -44.5 1.25 C-41.79666092 1.01592858 -39.11494027 0.83541765 -36.40625 0.703125 C-35.15660461 0.64067596 -35.15660461 0.64067596 -33.88171387 0.57696533 C-22.59283303 0.06177051 -11.2988322 0.00961232 0 0 Z M-184.5 109.25 C-185.35899902 109.89485352 -185.35899902 109.89485352 -186.23535156 110.55273438 C-205.71512746 125.25647706 -224.85510114 142.70618807 -239.5 162.25 C-240.53759673 163.58606464 -241.57537341 164.92198953 -242.61328125 166.2578125 C-263.08131244 192.96015905 -278.32254978 222.59695655 -289.5 254.25 C-290.00273437 255.66587402 -290.00273437 255.66587402 -290.515625 257.11035156 C-294.75405678 269.3001856 -297.55237806 281.64205344 -299.875 294.3125 C-300.00273804 295.0036087 -300.13047607 295.69471741 -300.26208496 296.4067688 C-303.46289301 313.95500807 -303.77376058 331.33090529 -303.8125 349.125 C-303.81511841 350.2749646 -303.81773682 351.4249292 -303.82043457 352.60974121 C-303.82635041 376.91287304 -302.48267831 400.82031634 -295.5 424.25 C-295.04983548 425.90919718 -294.60349497 427.56943469 -294.16015625 429.23046875 C-291.18979286 440.20667826 -287.59428483 450.74471521 -283.29638672 461.26757812 C-282.13617008 464.15567103 -281.07575751 467.07958288 -280 470 C-277.31480151 477.00987462 -273.93631311 483.58388299 -270.5 490.25 C-269.81019169 491.66554413 -269.12224797 493.08200109 -268.4375 494.5 C-264.83527186 501.68912766 -260.44897806 508.42873396 -255.9453125 515.078125 C-254.10498155 517.8435953 -252.38208355 520.67373676 -250.67578125 523.5234375 C-249.54986224 525.30075711 -249.54986224 525.30075711 -247.97265625 526.734375 C-246.31888088 528.43640376 -245.60805873 529.97202014 -244.625 532.125 C-241.78291483 537.45282326 -237.74970021 541.28286064 -233.39697266 545.38037109 C-230.5567814 548.07876379 -228.06420968 550.74263859 -225.7890625 553.9375 C-221.98302776 559.16697049 -217.40552035 563.64375761 -212.82495117 568.18579102 C-211.32562519 569.67446803 -209.83720942 571.17344421 -208.34960938 572.67382812 C-196.87886459 584.17870393 -196.87886459 584.17870393 -183.5 593.25 C-182.84 593.25 -182.18 593.25 -181.5 593.25 C-181.5 593.91 -181.5 594.57 -181.5 595.25 C-179.85169177 596.76970619 -179.85169177 596.76970619 -177.75 598.25 C-177.05390625 598.765625 -176.3578125 599.28125 -175.640625 599.8125 C-172.43317024 601.96641122 -170.41697159 603.25 -166.5 603.25 C-166.5 603.91 -166.5 604.57 -166.5 605.25 C-165.7575 605.53875 -165.015 605.8275 -164.25 606.125 C-161.93260203 607.07302644 -159.72082885 608.09845911 -157.5 609.25 C-157.5 609.91 -157.5 610.57 -157.5 611.25 C-156.530625 611.518125 -155.56125 611.78625 -154.5625 612.0625 C-153.0465625 612.6503125 -153.0465625 612.6503125 -151.5 613.25 C-151.17 614.24 -150.84 615.23 -150.5 616.25 C-146.52436956 618.27532117 -143.9949298 619.25 -139.5 619.25 C-139.5 619.91 -139.5 620.57 -139.5 621.25 C-138.25539217 621.92667998 -137.00403104 622.59094719 -135.75 623.25 C-135.05390625 623.62125 -134.3578125 623.9925 -133.640625 624.375 C-131.26832243 625.50224649 -131.26832243 625.50224649 -127.5 625.25 C-127.5 625.91 -127.5 626.57 -127.5 627.25 C-126.71238281 627.55292969 -125.92476562 627.85585938 -125.11328125 628.16796875 C-123.47939453 628.79638672 -123.47939453 628.79638672 -121.8125 629.4375 C-120.6265625 629.89253906 -119.440625 630.34757813 -118.21875 630.81640625 C-115.84074804 631.733136 -113.4654526 632.6569378 -111.09375 633.58984375 C-105.34005276 635.84337517 -99.62302258 637.8803546 -93.6796875 639.5703125 C-91.5 640.25 -91.5 640.25 -88.25 641.75 C-83.66372563 643.83566287 -78.69161698 644.57092219 -73.78125 645.56640625 C-70.29379705 646.29295895 -66.92443395 647.2715903 -63.5 648.25 C-55.56146341 650.19928443 -47.91130099 651.58438412 -39.73046875 651.84375 C-36.92445417 652.19662245 -35.18660492 652.73241527 -32.61865234 653.75708008 C-26.57498406 655.80609292 -20.69377404 655.62604141 -14.37109375 655.54296875 C-13.14084976 655.53872391 -11.91060577 655.53447906 -10.64308167 655.53010559 C-6.74099184 655.51340766 -2.83943188 655.47577075 1.0625 655.4375 C3.71939348 655.42073803 6.37628198 655.40875539 9.03320312 655.39648438 C15.52231405 655.36353318 22.01111915 655.31342238 28.5 655.25 C28.5 654.59 28.5 653.93 28.5 653.25 C29.33917969 653.28480469 29.33917969 653.28480469 30.1953125 653.3203125 C37.76983266 653.49080009 45.03365972 652.45494252 52.5 651.25 C52.5 650.59 52.5 649.93 52.5 649.25 C53.5209375 649.31960938 53.5209375 649.31960938 54.5625 649.390625 C63.7495539 649.73269616 71.74828668 647.73779668 80.5 645.25 C80.5 644.59 80.5 643.93 80.5 643.25 C81.8303125 643.37375 81.8303125 643.37375 83.1875 643.5 C92.10903424 643.5181332 102.56613344 639.21693328 110.5 635.25 C110.5 634.59 110.5 633.93 110.5 633.25 C111.28375 633.353125 112.0675 633.45625 112.875 633.5625 C117.26436038 633.18410686 120.02864929 631.65066005 123.875 629.6015625 C126.30200753 628.35194255 128.69930909 627.33989952 131.25 626.375 C137.89146362 623.80753323 144.17145471 620.49634312 150.5 617.25 C150.5 616.59 150.5 615.93 150.5 615.25 C151.593125 614.96125 152.68625 614.6725 153.8125 614.375 C157.54013845 613.43106796 157.54013845 613.43106796 160.5 611.25 C160.5 610.59 160.5 609.93 160.5 609.25 C161.2425 608.981875 161.985 608.71375 162.75 608.4375 C165.47756336 607.40322086 165.47756336 607.40322086 167.375 605.75 C169.5 604.25 169.5 604.25 173.125 603.3125 C174.23875 602.961875 175.3525 602.61125 176.5 602.25 C177.16776113 600.91721446 177.83432706 599.58382973 178.5 598.25 C180.4453125 596.8359375 180.4453125 596.8359375 182.625 595.625 C184.7703818 594.46958327 184.7703818 594.46958327 186.5 593.25 C186.5 592.59 186.5 591.93 186.5 591.25 C187.263125 590.96125 188.02625 590.6725 188.8125 590.375 C191.65029308 589.28730987 191.65029308 589.28730987 194.5 587.25 C194.5 586.59 194.5 585.93 194.5 585.25 C195.221875 585.0025 195.94375 584.755 196.6875 584.5 C199.77606582 583.12730408 202.01011418 581.52646704 204.5 579.25 C204.5 578.59 204.5 577.93 204.5 577.25 C205.0878125 576.97929688 205.675625 576.70859375 206.28125 576.4296875 C212.63465804 573.05164309 217.68254554 567.15997078 222.75 562.125 C223.25724609 561.62242676 223.76449219 561.11985352 224.28710938 560.60205078 C229.90386405 555.6745859 229.90386405 555.6745859 232.5 549.25 C233.16 549.25 233.82 549.25 234.5 549.25 C237.46235695 545.61676311 237.46235695 545.61676311 238.5 541.25 C239.16 541.25 239.82 541.25 240.5 541.25 C243.46235695 537.61676311 243.46235695 537.61676311 244.5 533.25 C245.16 533.25 245.82 533.25 246.5 533.25 C249.46235695 529.61676311 249.46235695 529.61676311 250.5 525.25 C251.16 525.25 251.82 525.25 252.5 525.25 C254.16606856 523.07527797 255.68900001 520.91209608 257.1875 518.625 C257.85579834 517.61904785 257.85579834 517.61904785 258.53759766 516.59277344 C262.19526775 510.97267581 265.15887242 505.17670293 267.9296875 499.078125 C269.5575537 496.14634607 270.88041389 495.20686214 273.5 493.25 C274.9158489 490.59002724 274.9158489 490.59002724 276 487.5625 C277.39893196 483.99885988 278.79202952 480.52013751 280.5625 477.125 C284.50701049 469.39567581 287.11343154 461.82483129 288.5 453.25 C289.16 453.25 289.82 453.25 290.5 453.25 C291.81626692 449.63026598 292.5 447.15432869 292.5 443.25 C293.16 443.25 293.82 443.25 294.5 443.25 C296.2479503 438.00614911 296.69392201 433.77677733 296.5 428.25 C297.16 428.25 297.82 428.25 298.5 428.25 C300.74052402 420.49778691 302.0456181 412.87105407 302.85302734 404.86352539 C303.40946478 399.43107043 303.40946478 399.43107043 304.5 397.25 C306.66330944 387.96490766 306.79573385 378.69847784 306.765625 369.22265625 C306.76697689 367.70153237 306.76892174 366.18040892 306.77142334 364.6592865 C306.77435092 361.49001909 306.7701546 358.32086538 306.76074219 355.15161133 C306.7493589 351.12650254 306.75591514 347.10166092 306.76788712 343.07656193 C306.77517858 339.94064896 306.77278454 336.80479738 306.76763153 333.66888237 C306.76631457 332.18639531 306.76787265 330.70390233 306.77259064 329.2214222 C306.79520942 320.11935546 306.47739891 311.17497791 304.5 302.25 C304.17 301.92 303.84 301.59 303.5 301.25 C303.04540142 298.59536879 302.79756762 295.92810862 302.5 293.25 C301.84 293.25 301.18 293.25 300.5 293.25 C300.55220703 292.21552734 300.55220703 292.21552734 300.60546875 291.16015625 C300.77028496 285.43867926 300.34444109 280.9876485 298.296875 275.65625 C297.01229835 271.77733226 296.51700678 267.78786235 295.9296875 263.75390625 C295.62632553 261.26140767 295.62632553 261.26140767 294.5 259.25 C293.84 259.25 293.18 259.25 292.5 259.25 C292.3453125 258.0125 292.3453125 258.0125 292.1875 256.75 C291.13179649 251.37550942 289.06075177 246.50365724 286.875 241.5 C285.83373272 239.03882279 285.02064977 236.85324883 284.5 234.25 C283.84 234.25 283.18 234.25 282.5 234.25 C282.39042969 233.64671875 282.28085937 233.0434375 282.16796875 232.421875 C281.30316574 227.5367666 281.30316574 227.5367666 279 223.25 C276.57737518 220.01983357 276.21140899 216.16693423 275.5 212.25 C274.84 212.25 274.18 212.25 273.5 212.25 C273.17 211.26 272.84 210.27 272.5 209.25 C271.84 209.25 271.18 209.25 270.5 209.25 C270.21125 208.3425 269.9225 207.435 269.625 206.5 C268.73468224 203.92797092 267.78505587 201.63653234 266.5 199.25 C265.84 199.25 265.18 199.25 264.5 199.25 C264.231875 198.404375 263.96375 197.55875 263.6875 196.6875 C261.51428036 190.39660105 259.305414 185.62304955 254.8046875 180.73046875 C253.5 179.25 253.5 179.25 252.5 177.25 C251.84 177.25 251.18 177.25 250.5 177.25 C249.51336601 175.29836874 248.54408444 173.34718614 247.640625 171.35546875 C245.64999498 167.06862953 243.39276548 163.61580214 240.20492554 160.12785339 C238.52386992 158.27629101 236.88895856 156.39162589 235.25634766 154.49731445 C231.71651677 150.44656995 228.01049852 146.59928121 224.2109375 142.79296875 C223.21146591 141.78850456 223.21146591 141.78850456 222.19180298 140.76374817 C220.7964901 139.3634153 219.39985922 137.96439454 218.00195312 136.56665039 C215.86819954 134.43069252 213.74259789 132.28683427 211.6171875 130.14257812 C210.25309377 128.77555294 208.88852693 127.40899965 207.5234375 126.04296875 C206.89311615 125.40546188 206.2627948 124.76795502 205.6133728 124.11112976 C202.42323414 120.93741294 199.45641457 118.45862719 195.5 116.25 C194.2934375 114.9815625 194.2934375 114.9815625 193.0625 113.6875 C190.27675987 111.03764963 188.18454375 110.1925577 184.5 109.25 C184.5 108.59 184.5 107.93 184.5 107.25 C182.12736228 105.45973372 182.12736228 105.45973372 179.1875 103.6875 C177.70830078 102.75744141 177.70830078 102.75744141 176.19921875 101.80859375 C173.53640252 100.15072608 173.53640252 100.15072608 170.5 99.25 C170.5 98.59 170.5 97.93 170.5 97.25 C168.24572728 95.72987963 168.24572728 95.72987963 165.5 94.25 C164.613125 93.693125 163.72625 93.13625 162.8125 92.5625 C160.65327235 91.08546483 160.65327235 91.08546483 158.5 91.25 C158.5 90.59 158.5 89.93 158.5 89.25 C157.51902344 88.84652344 156.53804687 88.44304687 155.52734375 88.02734375 C151.24267302 86.19044066 147.16348573 84.02356251 143.0625 81.8125 C131.54845798 75.59681171 131.54845798 75.59681171 119.4375 70.6875 C112.03280715 68.11434956 112.03280715 68.11434956 108.75 66.625 C105.26122257 65.14897878 101.77193371 64.10145537 98.125 63.09375 C95.5 62.25 95.5 62.25 92.09375 60.7421875 C88.66480617 59.31843039 85.64277994 58.53035994 82 57.875 C77.51065645 57.05546275 73.06806598 56.16589519 68.640625 55.0546875 C-17.48860116 33.86657768 -114.22578368 56.15764145 -184.5 109.25 Z " fill="#FBFBFB" transform="translate(511.5,162.75)"/>
<path d="M0 0 C0.33 0.33 0.66 0.66 1 1 C2.80776859 1.3007984 4.6216678 1.56499166 6.4375 1.8125 C11.60974196 2.62624963 16.06467182 3.98689672 20.84375 6.09765625 C22.88530864 6.95200416 24.8424859 7.52436621 27 8 C27 8.66 27 9.32 27 10 C27.598125 10.144375 28.19625 10.28875 28.8125 10.4375 C30.56150404 10.8872439 32.28677023 11.42892341 34 12 C34.33 12.66 34.66 13.32 35 14 C36.90430483 14.70158599 38.8098159 15.40015627 40.72265625 16.078125 C44.3951392 17.56475618 47.90931433 19.50936766 51 22 C51 22.66 51 23.32 51 24 C51.66 24 52.32 24 53 24 C54.17007354 25.13565961 55.3329446 26.27956497 56.4609375 27.45703125 C58.15186797 29.15225342 59.929843 30.69452719 61.75 32.25 C67.91635776 37.60899783 73.91687345 42.86256618 78 50 C78.95712891 51.39412109 78.95712891 51.39412109 79.93359375 52.81640625 C82.26688372 56.41117246 84.17612898 60.09570006 86.0625 63.9375 C86.57006836 64.95360352 86.57006836 64.95360352 87.08789062 65.99023438 C98.27151749 88.55217407 101.64465997 117.06739034 94.19140625 141.49609375 C93.79824219 142.65238281 93.40507813 143.80867187 93 145 C92.63777344 146.12535156 92.27554687 147.25070312 91.90234375 148.41015625 C87.71614683 160.3159841 81.26826767 171.46830265 73 181 C72.13761719 181.99515625 71.27523437 182.9903125 70.38671875 184.015625 C60.73534416 194.90733032 49.7328944 203.94852204 38.26367188 212.84716797 C32.16008598 217.60296427 26.31453846 222.64158437 20.48339844 227.72509766 C19.24111496 228.79277447 17.97124239 229.82823706 16.6953125 230.85546875 C4.3614917 240.88598567 -4.36374794 254.83218255 -6.32861328 270.64453125 C-6.59956051 273.38645822 -6.83946604 276.12877311 -7.0625 278.875 C-7.21681956 280.72683472 -7.37423385 282.57841488 -7.53515625 284.4296875 C-7.600979 285.23647949 -7.66680176 286.04327148 -7.73461914 286.87451172 C-8 289 -8 289 -9 292 C-11.67100283 293.33550141 -13.71231224 293.12714001 -16.703125 293.12939453 C-18.49508301 293.13412277 -18.49508301 293.13412277 -20.32324219 293.13894653 C-21.61907227 293.1369223 -22.91490234 293.13489807 -24.25 293.1328125 C-25.58756528 293.13348589 -26.92513045 293.13445621 -28.26269531 293.13571167 C-31.06706913 293.13718698 -33.87141112 293.13503943 -36.67578125 293.13037109 C-40.2739719 293.12467389 -43.87208797 293.12795378 -47.47027588 293.13394356 C-50.23259037 293.13755366 -52.99488713 293.13640851 -55.75720215 293.13381577 C-57.73038786 293.13282237 -59.70357426 293.1358642 -61.67675781 293.13894653 C-62.87139648 293.13579437 -64.06603516 293.13264221 -65.296875 293.12939453 C-66.35229492 293.12859894 -67.40771484 293.12780334 -68.49511719 293.12698364 C-71 293 -71 293 -73 292 C-73.04989482 287.19858265 -73.08595085 282.39732031 -73.10986328 277.59570312 C-73.1198449 275.96644457 -73.13343499 274.33720356 -73.15087891 272.70800781 C-73.27557444 260.75190661 -72.73092914 250.1483469 -68 239 C-67.7009375 238.29230469 -67.401875 237.58460938 -67.09375 236.85546875 C-66.09434279 234.55441424 -65.05533875 232.27592628 -64 230 C-63.60683594 229.13632812 -63.21367187 228.27265625 -62.80859375 227.3828125 C-60.42884161 222.35474685 -58.13787074 218.81119674 -54 215 C-53.5359375 214.22398437 -53.071875 213.44796875 -52.59375 212.6484375 C-48.12565297 205.22351155 -41.36095181 199.24953436 -35.0625 193.375 C-34.4948291 192.84189209 -33.9271582 192.30878418 -33.34228516 191.75952148 C-29.24491937 188 -29.24491937 188 -27 188 C-27 187.34 -27 186.68 -27 186 C-25.3203125 184.4921875 -25.3203125 184.4921875 -23.125 182.875 C-22.40570312 182.33617187 -21.68640625 181.79734375 -20.9453125 181.2421875 C-19 180 -19 180 -17 180 C-17 179.34 -17 178.68 -17 178 C-16.34 178 -15.68 178 -15 178 C-15 177.34 -15 176.68 -15 176 C-13.3203125 174.4921875 -13.3203125 174.4921875 -11.125 172.875 C-10.40570312 172.33617187 -9.68640625 171.79734375 -8.9453125 171.2421875 C-7 170 -7 170 -5 170 C-5 169.34 -5 168.68 -5 168 C-3.52855732 166.71211757 -1.9954285 165.49429673 -0.4375 164.3125 C6.76009511 158.66593595 12.25209452 153.01398282 17.3671875 145.41015625 C18.76192493 143.35141703 20.22802038 141.40149167 21.75 139.4375 C28.9644446 129.12774913 27.81849186 116.28690192 26.4140625 104.2890625 C25.54184981 99.46720746 24.52206795 94.52206795 21 91 C21 89.68 21 88.36 21 87 C20.34 87 19.68 87 19 87 C19 85.68 19 84.36 19 83 C18.4225 82.79375 17.845 82.5875 17.25 82.375 C15 81 15 81 13.25 78.1875 C10.72041562 74.60392212 8.38915821 73.14734939 4.609375 71.078125 C4.07828125 70.72234375 3.5471875 70.3665625 3 70 C3 69.34 3 68.68 3 68 C2.41605469 67.87496094 1.83210937 67.74992187 1.23046875 67.62109375 C-1.61576301 66.82853534 -3.94815079 65.47887868 -6.51171875 64.03515625 C-14.78387866 60.59383384 -23.15990662 60.72372528 -32 60.8125 C-33.82917969 60.8134668 -33.82917969 60.8134668 -35.6953125 60.81445312 C-52.50017761 60.89611824 -65.60923183 64.11414825 -79 75 C-80.04414063 75.82177734 -80.04414063 75.82177734 -81.109375 76.66015625 C-90.2130935 84.68765997 -95.1464978 97.44917947 -98 109 C-98.66336138 111.33427517 -99.32974835 113.66769393 -100 116 C-108.70113334 116.06942477 -117.40217176 116.12277271 -126.10352135 116.15543652 C-130.14365781 116.17111131 -134.18360519 116.19238225 -138.22363281 116.22631836 C-142.12045787 116.25884776 -146.01710074 116.27683934 -149.91405106 116.28463173 C-151.40286758 116.29018685 -152.89167382 116.30103436 -154.38041306 116.31719017 C-156.46134966 116.33888007 -158.54152765 116.34197061 -160.62255859 116.34057617 C-162.40126846 116.35056892 -162.40126846 116.35056892 -164.21591187 116.36076355 C-165.13466095 116.24171158 -166.05341003 116.12265961 -167 116 C-169.52826571 112.20760144 -169.36444901 110.51916778 -169 106 C-168.33344479 103.69957164 -167.55102231 101.46853066 -166.73046875 99.21875 C-166.03902614 97.11853929 -165.64861684 95.18893473 -165.375 93 C-165 90 -165 90 -164 89 C-163.855625 87.948125 -163.71125 86.89625 -163.5625 85.8125 C-163.0469677 82.31833663 -162.20957019 79.30615851 -161 76 C-160.34 76 -159.68 76 -159 76 C-158.773125 75.195625 -158.54625 74.39125 -158.3125 73.5625 C-156.94705675 69.85629691 -155.19913719 66.67378977 -153.2421875 63.2578125 C-151.58780224 60.2507852 -150.28555637 57.18006049 -149 54 C-148.34 54 -147.68 54 -147 54 C-146.67 53.01 -146.34 52.02 -146 51 C-145.360625 50.54625 -144.72125 50.0925 -144.0625 49.625 C-141.82585797 48.14641476 -141.82585797 48.14641476 -141.08398438 45.6340332 C-139.92949839 42.82868427 -138.72954462 41.35574361 -136.59375 39.23046875 C-135.93246094 38.56982422 -135.27117187 37.90917969 -134.58984375 37.22851562 C-133.90019531 36.55498047 -133.21054687 35.88144531 -132.5 35.1875 C-131.81035156 34.49462891 -131.12070312 33.80175781 -130.41015625 33.08789062 C-125.26712592 28 -125.26712592 28 -123 28 C-123 27.34 -123 26.68 -123 26 C-117.58823529 22 -117.58823529 22 -115 22 C-115 21.34 -115 20.68 -115 20 C-113.04414675 18.99515796 -111.08523763 17.99626195 -109.125 17 C-108.03445313 16.443125 -106.94390625 15.88625 -105.8203125 15.3125 C-103 14 -103 14 -101 14 C-101 13.34 -101 12.68 -101 12 C-97.91190305 10.23537317 -96.76687864 10 -93 10 C-93 9.34 -93 8.68 -93 8 C-91.68 8 -90.36 8 -89 8 C-89 7.34 -89 6.68 -89 6 C-82.68158289 4.30012128 -76.55489715 2.81727367 -70.03125 2.25 C-66.92332341 1.86748596 -63.99768591 0.88167233 -61 0 C-59.68 0 -58.36 0 -57 0 C-57 -0.66 -57 -1.32 -57 -2 C-37.95205529 -3.61618925 -18.81265236 -4.02965648 0 0 Z " fill="#FCFCFC" transform="translate(547,304)"/>
<path d="M0 0 C0 0.66 0 1.32 0 2 C0.58007812 2.17015625 1.16015625 2.3403125 1.7578125 2.515625 C9.52611314 4.92559285 15.71976803 8.35300471 20.5 15.125 C22.67048693 19.28509994 24.36722209 23.60405948 26 28 C26.54333984 29.4540625 26.54333984 29.4540625 27.09765625 30.9375 C30.21773635 41.52686275 27.66086723 52.87855615 22.71484375 62.5 C16.19293216 72.96412555 7.09268085 81.05500749 -4.90429688 84.55566406 C-8.63454303 85.34655968 -12.38745668 85.22645209 -16.1875 85.25 C-17.00025391 85.270625 -17.81300781 85.29125 -18.65039062 85.3125 C-27.59800345 85.36944583 -36.0486964 82.779123 -43 77 C-51.13609953 68.26857612 -51.13609953 68.26857612 -52 63 C-52.99 63 -53.98 63 -55 63 C-56.85776765 59.86501708 -57.20140476 57.62528568 -57 54 C-57.66 54 -58.32 54 -59 54 C-60.40650049 46.08843472 -62.39594049 32.93954981 -57.625 26 C-57.08875 25.34 -56.5525 24.68 -56 24 C-55.608125 22.7625 -55.21625 21.525 -54.8125 20.25 C-52.98789983 15.03125112 -49.26622574 11.40573435 -45 8 C-44.34 8 -43.68 8 -43 8 C-43 7.34 -43 6.68 -43 6 C-40.8125 4.5625 -40.8125 4.5625 -38 3 C-37.195625 2.484375 -36.39125 1.96875 -35.5625 1.4375 C-24.8667266 -4.562568 -11.27864109 -4.20588595 0 0 Z " fill="#FAFAFB" transform="translate(525,634)"/>
<path d="M0 0 C3.57133118 0.00541558 7.14253953 -0.0000086 10.71386719 -0.00634766 C13.01334663 -0.00568766 15.31282599 -0.00440814 17.61230469 -0.00244141 C18.66555939 -0.00446564 19.71881409 -0.00648987 20.8039856 -0.00857544 C26.75637139 0.01020445 32.5136105 0.35883244 38.41699219 1.13037109 C38.41699219 1.46037109 38.41699219 1.79037109 38.41699219 2.13037109 C37.07728363 2.14583229 37.07728363 2.14583229 35.71051025 2.16160583 C27.29405691 2.25957814 18.8776738 2.3620923 10.46133804 2.46971035 C6.13440723 2.52487769 1.80746958 2.57828776 -2.51953125 2.62768555 C-6.69521155 2.67542043 -10.8708109 2.72776646 -15.04639435 2.78331184 C-16.63956944 2.80369408 -18.2327667 2.82241392 -19.82598114 2.83944511 C-22.05724596 2.86358075 -24.28835886 2.89362251 -26.51953125 2.92504883 C-27.78972107 2.94059311 -29.05991089 2.95613739 -30.36859131 2.97215271 C-32.99155541 3.10125892 -35.08800825 3.40217399 -37.58300781 4.13037109 C-39.31463171 4.2741034 -41.04999114 4.37612042 -42.78613281 4.44677734 C-44.25566406 4.50961914 -44.25566406 4.50961914 -45.75488281 4.57373047 C-46.77066406 4.61304688 -47.78644531 4.65236328 -48.83300781 4.69287109 C-50.37988281 4.75764648 -50.37988281 4.75764648 -51.95800781 4.82373047 C-54.49954651 4.92962791 -57.04117978 5.03170553 -59.58300781 5.13037109 C-59.25300781 4.47037109 -58.92300781 3.81037109 -58.58300781 3.13037109 C-55.74707031 2.75146484 -55.74707031 2.75146484 -52.20800781 2.56787109 C-47.31045308 2.3073461 -47.31045308 2.3073461 -42.58300781 1.13037109 C-39.91316045 0.89206512 -37.26635331 0.70913589 -34.59082031 0.57568359 C-33.76309113 0.533638 -32.93536194 0.49159241 -32.08255005 0.44827271 C-21.39315943 -0.03781383 -10.69829129 -0.01933247 0 0 Z " fill="#D4D6D9" transform="translate(509.5830078125,162.86962890625)"/>
<path d="M0 0 C0.495 1.485 0.495 1.485 1 3 C0.17822266 3.71349609 0.17822266 3.71349609 -0.66015625 4.44140625 C-8.78815419 11.6178337 -16.37613997 19.29658665 -24 27 C-26.60130053 29.62786377 -29.20589376 32.25240022 -31.8125 34.875 C-32.40514648 35.47594482 -32.99779297 36.07688965 -33.60839844 36.69604492 C-37.7744983 40.88724915 -37.7744983 40.88724915 -40 42 C-40.45375 42.825 -40.9075 43.65 -41.375 44.5 C-43 47 -43 47 -45.1015625 47.65625 C-45.72804688 47.7696875 -46.35453125 47.883125 -47 48 C-39.01713516 36.69094147 -29.08932406 26.99527687 -19.375 17.1875 C-18.60003174 16.39947998 -17.82506348 15.61145996 -17.02661133 14.79956055 C-11.66450917 9.42954384 -6.01731425 4.62170852 0 0 Z " fill="#1C2434" transform="translate(318,279)"/>
<path d="M0 0 C2.41084503 3.61626754 2.25308716 5.27335169 2.25878906 9.57592773 C2.26404602 10.57179649 2.26404602 10.57179649 2.26940918 11.58778381 C2.27822088 13.78649316 2.27237346 15.984881 2.265625 18.18359375 C2.26697325 19.71997641 2.26891512 21.25635866 2.27142334 22.79273987 C2.27437502 26.01998946 2.2700809 29.24712849 2.26074219 32.47436523 C2.24943377 36.57942148 2.25585155 40.68421369 2.26788712 44.78925991 C2.27517863 47.96804219 2.27278321 51.14676388 2.26763153 54.32554817 C2.26631057 55.83677261 2.26788733 57.34800281 2.27259064 58.8592205 C2.29416122 67.75021795 1.82382772 76.27117094 0 85 C-0.33 85 -0.66 85 -1 85 C-1.02691685 82.54159395 -1.04679802 80.08348118 -1.0625 77.625 C-1.07087891 76.92632813 -1.07925781 76.22765625 -1.08789062 75.5078125 C-1.11328125 70.2265625 -1.11328125 70.2265625 0 68 C0.09182083 65.8452107 0.11750462 63.68750282 0.11352539 61.53076172 C0.11374443 60.53545944 0.11374443 60.53545944 0.1139679 59.52005005 C0.11327031 57.32322947 0.10548514 55.1264933 0.09765625 52.9296875 C0.09579152 51.40796963 0.09436788 49.88625116 0.09336853 48.36453247 C0.08954767 44.35648953 0.07972104 40.34848274 0.06866455 36.3404541 C0.05844118 32.25171396 0.05386892 28.16296799 0.04882812 24.07421875 C0.0380984 16.04946256 0.02102713 8.02473578 0 0 Z " fill="#353D4C" transform="translate(816,475)"/>
<path d="M0 0 C1.13598633 0.00483398 1.13598633 0.00483398 2.29492188 0.00976562 C3.47344727 0.02233398 3.47344727 0.02233398 4.67578125 0.03515625 C5.47306641 0.03966797 6.27035156 0.04417969 7.09179688 0.04882812 C9.05732382 0.06059775 11.0228121 0.07853277 12.98828125 0.09765625 C12.98828125 0.42765625 12.98828125 0.75765625 12.98828125 1.09765625 C9.68828125 1.09765625 6.38828125 1.09765625 2.98828125 1.09765625 C2.98828125 1.75765625 2.98828125 2.41765625 2.98828125 3.09765625 C-4.27864203 3.14395175 -11.54553363 3.17951118 -18.81257439 3.20128059 C-22.18678869 3.21172767 -25.56090227 3.2259035 -28.93505859 3.24853516 C-32.81220193 3.2727051 -36.68920152 3.28412136 -40.56640625 3.29296875 C-41.78101532 3.30329132 -42.99562439 3.31361389 -44.24703979 3.32424927 C-45.36805084 3.32440033 -46.48906189 3.32455139 -47.64404297 3.32470703 C-48.63443573 3.32914825 -49.62482849 3.33358948 -50.64523315 3.33816528 C-53.01171875 3.09765625 -53.01171875 3.09765625 -55.01171875 1.09765625 C-54.41703293 1.09987686 -53.82234711 1.10209747 -53.2096405 1.10438538 C-47.02933349 1.12648069 -40.84903767 1.14158067 -34.66870117 1.15258789 C-32.36107935 1.15762176 -30.05346072 1.1644493 -27.74584961 1.1730957 C-24.43212089 1.1852026 -21.11843427 1.19089398 -17.8046875 1.1953125 C-16.77022995 1.20047379 -15.7357724 1.20563507 -14.66996765 1.21095276 C-13.70919815 1.21102829 -12.74842865 1.21110382 -11.75854492 1.21118164 C-10.91249191 1.21340225 -10.0664389 1.21562286 -9.19474792 1.21791077 C-5.98565089 1.0411342 -3.27419213 -0.02461799 0 0 Z " fill="#434958" transform="translate(537.01171875,814.90234375)"/>
<path d="M0 0 C0.33 0 0.66 0 1 0 C1 4.95 1 9.9 1 15 C9.44048555 14.89202011 17.88088639 14.77995987 26.32121849 14.66066074 C30.24015849 14.60543316 34.15910595 14.55201343 38.078125 14.50268555 C41.8582888 14.45503954 45.63836074 14.40269667 49.41841507 14.34705925 C50.86252183 14.32663676 52.30665377 14.30792349 53.7508049 14.29092598 C55.76931251 14.26687994 57.78773862 14.23626123 59.80615234 14.20532227 C61.53156754 14.18200584 61.53156754 14.18200584 63.2918396 14.15821838 C65.9676465 14.18046271 65.9676465 14.18046271 68 13 C67.67 13.99 67.34 14.98 67 16 C58.29886666 16.06942477 49.59782824 16.12277271 40.89647865 16.15543652 C36.85634219 16.17111131 32.81639481 16.19238225 28.77636719 16.22631836 C24.87954213 16.25884776 20.98289926 16.27683934 17.08594894 16.28463173 C15.59713242 16.29018685 14.10832618 16.30103436 12.61958694 16.31719017 C10.53865034 16.33888007 8.45847235 16.34197061 6.37744141 16.34057617 C4.59873154 16.35056892 4.59873154 16.35056892 2.78408813 16.36076355 C1.86533905 16.24171158 0.94658997 16.12265961 0 16 C-2.48709896 12.26935156 -2.29991053 10.42368032 -2 6 C-1 2.5625 -1 2.5625 0 0 Z " fill="#9599A3" transform="translate(380,404)"/>
<path d="M0 0 C0 0.33 0 0.66 0 1 C-11.01889539 1.7068249 -21.95687814 2.14659011 -33 2 C-33 2.66 -33 3.32 -33 4 C-33.71027344 4.13277344 -34.42054688 4.26554687 -35.15234375 4.40234375 C-36.07144531 4.57894531 -36.99054688 4.75554687 -37.9375 4.9375 C-38.85402344 5.11152344 -39.77054687 5.28554688 -40.71484375 5.46484375 C-42.95289844 5.77714988 -42.95289844 5.77714988 -44 7 C-45.84891946 7.23363881 -47.70488031 7.41303635 -49.5625 7.5625 C-51.08037109 7.68818359 -51.08037109 7.68818359 -52.62890625 7.81640625 C-53.41136719 7.87699219 -54.19382812 7.93757813 -55 8 C-50.09816016 2.78467041 -44.11301784 2.69708215 -37.29296875 2.24609375 C-35.03742447 2.24662846 -35.03742447 2.24662846 -34 1 C-22.75046316 -0.4486685 -11.31526238 -0.10245207 0 0 Z " fill="#555B68" transform="translate(523,300)"/>
<path d="M0 0 C4.82380802 -0.0246519 9.64757967 -0.04283693 14.47143555 -0.05493164 C16.11369464 -0.05997174 17.75594923 -0.06680378 19.39819336 -0.07543945 C21.75375479 -0.08751926 24.10925709 -0.09323139 26.46484375 -0.09765625 C27.20339096 -0.10281754 27.94193817 -0.10797882 28.7028656 -0.11329651 C30.46898088 -0.1134925 32.23497146 -0.06194719 34 0 C34.495 0.495 34.495 0.495 35 1 C37.32817964 1.36760731 39.6618385 1.70241581 42 2 C42 2.66 42 3.32 42 4 C42.515625 4.103125 43.03125 4.20625 43.5625 4.3125 C46.86026435 5.24263866 49.86633332 6.61395512 53 8 C53 8.66 53 9.32 53 10 C53.99 10 54.98 10 56 10 C56.495 11.485 56.495 11.485 57 13 C54.525 12.01 54.525 12.01 52 11 C52 10.34 52 9.68 52 9 C51.41605469 8.87496094 50.83210937 8.74992187 50.23046875 8.62109375 C47.38423699 7.82853534 45.05184921 6.47887868 42.48828125 5.03515625 C33.56492246 1.32292693 24.3978869 1.76053807 14.9375 1.875 C13.48503222 1.88505168 12.0325577 1.89417365 10.58007812 1.90234375 C7.05324318 1.92417983 3.5266658 1.95858851 0 2 C0 1.34 0 0.68 0 0 Z " fill="#A6A9B1" transform="translate(498,363)"/>
<path d="M0 0 C0.66 0 1.32 0 2 0 C1.05944761 10.57844806 0.05730226 20.78861045 -3 31 C-3.66 31 -4.32 31 -5 31 C-5 33.64 -5 36.28 -5 39 C-5.99 39.495 -5.99 39.495 -7 40 C-6.85957123 38.35369672 -6.71250671 36.70795821 -6.5625 35.0625 C-6.44068359 33.68771484 -6.44068359 33.68771484 -6.31640625 32.28515625 C-6 30 -6 30 -5 29 C-4.79300437 27.50503158 -4.63320741 26.0033408 -4.5 24.5 C-4.11111111 20.11111111 -4.11111111 20.11111111 -3 19 C-2.79300437 17.50503158 -2.63320741 16.0033408 -2.5 14.5 C-2.11111111 10.11111111 -2.11111111 10.11111111 -1 9 C-0.76807135 7.48530552 -0.58784762 5.96245438 -0.4375 4.4375 C-0.35371094 3.61121094 -0.26992188 2.78492188 -0.18359375 1.93359375 C-0.12300781 1.29550781 -0.06242188 0.65742187 0 0 Z " fill="#505663" transform="translate(813,560)"/>
<path d="M0 0 C0.33 0 0.66 0 1 0 C1.06058594 0.91523437 1.12117187 1.83046875 1.18359375 2.7734375 C1.26738281 3.96195313 1.35117188 5.15046875 1.4375 6.375 C1.51871094 7.55835938 1.59992188 8.74171875 1.68359375 9.9609375 C1.81084936 12.91518901 1.81084936 12.91518901 3 15 C3.31255647 17.85207778 3.51037482 20.70496854 3.71875 23.56640625 C3.73834922 25.94543305 3.73834922 25.94543305 5 27 C5.32446337 30.10042773 5.51334441 33.2020725 5.71875 36.3125 C5.70607799 38.91596752 5.70607799 38.91596752 7 40 C7.07205511 41.68608966 7.08386068 43.37500659 7.0625 45.0625 C7.05347656 45.98160156 7.04445312 46.90070312 7.03515625 47.84765625 C7.02355469 48.55792969 7.01195312 49.26820313 7 50 C6.67 50 6.34 50 6 50 C4.68892561 44.01742756 3.7197398 38.14031748 3.24609375 32.03125 C3.10768393 29.93504246 3.10768393 29.93504246 2 28 C1.79620266 26.19129862 1.63499005 24.37763408 1.5 22.5625 C1.26693358 19.43691282 0.99525057 16.98575171 0 14 C-0.06970052 11.60509014 -0.08448003 9.20832309 -0.0625 6.8125 C-0.05347656 5.54019531 -0.04445312 4.26789062 -0.03515625 2.95703125 C-0.02355469 1.98121094 -0.01195312 1.00539063 0 0 Z " fill="#3A4251" transform="translate(157,539)"/>
<path d="M0 0 C2.05078125 0.03255208 4.1015625 0.06510417 6.15234375 0.09765625 C6.15234375 0.42765625 6.15234375 0.75765625 6.15234375 1.09765625 C3.84234375 1.09765625 1.53234375 1.09765625 -0.84765625 1.09765625 C-0.84765625 1.75765625 -0.84765625 2.41765625 -0.84765625 3.09765625 C-1.89566406 3.18853516 -1.89566406 3.18853516 -2.96484375 3.28125 C-3.87492187 3.36503906 -4.785 3.44882813 -5.72265625 3.53515625 C-6.62757813 3.61636719 -7.5325 3.69757813 -8.46484375 3.78125 C-10.85876486 3.9675491 -10.85876486 3.9675491 -12.84765625 5.09765625 C-14.84725637 5.13764825 -16.84812867 5.14112424 -18.84765625 5.09765625 C-18.84765625 5.75765625 -18.84765625 6.41765625 -18.84765625 7.09765625 C-20.82765625 7.09765625 -22.80765625 7.09765625 -24.84765625 7.09765625 C-24.84765625 7.75765625 -24.84765625 8.41765625 -24.84765625 9.09765625 C-27.48765625 9.09765625 -30.12765625 9.09765625 -32.84765625 9.09765625 C-32.84765625 8.76765625 -32.84765625 8.43765625 -32.84765625 8.09765625 C-28.67028151 6.5062754 -25.3160484 5.88487567 -20.84765625 6.09765625 C-20.84765625 5.43765625 -20.84765625 4.77765625 -20.84765625 4.09765625 C-15.48613796 2.60834561 -10.40188082 1.75896465 -4.8515625 1.34375 C-2.55827992 1.06211881 -2.26498036 0.11971355 0 0 Z " fill="#A0A4AB" transform="translate(442.84765625,167.90234375)"/>
<path d="M0 0 C0.99 0.495 0.99 0.495 2 1 C2 2.65 2 4.3 2 6 C2.66 6 3.32 6 4 6 C4 9.63 4 13.26 4 17 C4.66 17 5.32 17 6 17 C6 20.3 6 23.6 6 27 C6.66 27 7.32 27 8 27 C8 30.96 8 34.92 8 39 C7.67 39 7.34 39 7 39 C6.90912109 37.93458984 6.90912109 37.93458984 6.81640625 36.84765625 C6.73261719 35.92855469 6.64882813 35.00945312 6.5625 34.0625 C6.48128906 33.14597656 6.40007813 32.22945313 6.31640625 31.28515625 C6.23955024 29.03840268 6.23955024 29.03840268 5 28 C4.85884839 25.32941149 4.95752893 22.67567762 5 20 C4.34 20 3.68 20 3 20 C2.95101562 19.31035156 2.90203125 18.62070312 2.8515625 17.91015625 C2.36271949 11.76590531 1.47174401 5.9850923 0 0 Z " fill="#B6B8BE" transform="translate(809,436)"/>
<path d="M0 0 C11.5559239 2.71564212 11.5559239 2.71564212 15.9375 4.5625 C20.56389059 6.4444216 25.41059141 6.8784295 30.33984375 7.47265625 C31.65662109 7.73369141 31.65662109 7.73369141 33 8 C33.495 8.99 33.495 8.99 34 10 C28.25 10.125 28.25 10.125 26 9 C24.46331135 8.77532169 22.92031946 8.59203195 21.375 8.4375 C20.55773437 8.35371094 19.74046875 8.26992188 18.8984375 8.18359375 C18.27195312 8.12300781 17.64546875 8.06242188 17 8 C17 7.34 17 6.68 17 6 C14.69 6 12.38 6 10 6 C10 5.34 10 4.68 10 4 C9.278125 3.87625 8.55625 3.7525 7.8125 3.625 C5.04278106 3.0095069 2.6029646 2.11555626 0 1 C0 0.67 0 0.34 0 0 Z " fill="#91959E" transform="translate(414,801)"/>
<path d="M0 0 C0.74958984 0.00451172 1.49917969 0.00902344 2.27148438 0.01367188 C4.11852383 0.02543646 5.96552213 0.04337135 7.8125 0.0625 C7.8125 0.3925 7.8125 0.7225 7.8125 1.0625 C-2.98756142 3.72375915 -14.12819445 3.70249085 -25.1875 4.0625 C-24.8575 3.4025 -24.5275 2.7425 -24.1875 2.0625 C-21.3515625 1.68359375 -21.3515625 1.68359375 -17.8125 1.5 C-11.7193026 1.16899482 -6.13620377 -0.06966869 0 0 Z " fill="#B9BCC2" transform="translate(475.1875,163.9375)"/>
<path d="M0 0 C0.66 0 1.32 0 2 0 C2 0.99 2 1.98 2 3 C1.34 3 0.68 3 0 3 C-0.23460937 3.86882813 -0.46921875 4.73765625 -0.7109375 5.6328125 C-2.15768014 9.41187964 -4.00533291 11.80624713 -6.625 14.875 C-7.85089844 16.32519531 -7.85089844 16.32519531 -9.1015625 17.8046875 C-10.04128906 18.89136719 -10.04128906 18.89136719 -11 20 C-11.99 19.67 -12.98 19.34 -14 19 C-12.86111328 17.57107422 -12.86111328 17.57107422 -11.69921875 16.11328125 C-10.69515848 14.84647623 -9.6912608 13.57954232 -8.6875 12.3125 C-8.18798828 11.68666016 -7.68847656 11.06082031 -7.17382812 10.41601562 C-5.01221702 7.68179231 -3.03405233 5.05818874 -1.26953125 2.04296875 C-0.85058594 1.36878906 -0.43164062 0.69460938 0 0 Z " fill="#1F2736" transform="translate(805,715)"/>
<path d="M0 0 C0.33 0 0.66 0 1 0 C1.125 7.75 1.125 7.75 0 10 C-0.19925961 13.59774302 -0.34598809 17.18895176 -0.4296875 20.79101562 C-0.67085532 26.62426239 -0.67085532 26.62426239 -2.52978516 28.74633789 C-3.01495605 29.16004639 -3.50012695 29.57375488 -4 30 C-4 27.36 -4 24.72 -4 22 C-3.34 22 -2.68 22 -2 22 C-2.02320313 20.99839844 -2.04640625 19.99679687 -2.0703125 18.96484375 C-2.08908789 17.62240336 -2.10728618 16.27995482 -2.125 14.9375 C-2.14820313 13.62652344 -2.17140625 12.31554687 -2.1953125 10.96484375 C-1.99417522 6.88175701 -1.27165462 3.85000947 0 0 Z " fill="#B3B6BC" transform="translate(164,436)"/>
<path d="M0 0 C0.99 0.33 1.98 0.66 3 1 C-0.50897269 5.18423892 -4.08060535 9.19588166 -8 13 C-8.99 12.67 -9.98 12.34 -11 12 C-7.37 8.04 -3.74 4.08 0 0 Z " fill="#262D3C" transform="translate(562,535)"/>
<path d="M0 0 C0.66 0.33 1.32 0.66 2 1 C0.9559635 7.68183363 -0.4042476 13.7465965 -3 20 C-3.66 20 -4.32 20 -5 20 C-3.76583013 13.17576662 -2.1084005 6.60632156 0 0 Z " fill="#242C3B" transform="translate(221,420)"/>
<path d="M0 0 C1 2 1 2 0.44140625 4.1640625 C0.15136719 4.97617187 -0.13867188 5.78828125 -0.4375 6.625 C-0.72496094 7.44226563 -1.01242187 8.25953125 -1.30859375 9.1015625 C-1.53675781 9.72804688 -1.76492188 10.35453125 -2 11 C-2.66 11 -3.32 11 -4 11 C-4 12.32 -4 13.64 -4 15 C-4.99 15.66 -5.98 16.32 -7 17 C-7.72382467 19.05925139 -7.72382467 19.05925139 -8 21 C-8.99 21 -9.98 21 -11 21 C-9.54221575 17.04211576 -7.65959473 13.55665134 -5.5 9.9375 C-3.5543241 6.66859959 -1.64563434 3.4311476 0 0 Z " fill="#A8ABB1" transform="translate(781,658)"/>
<path d="M0 0 C0.99 0.33 1.98 0.66 3 1 C1.38113585 2.67262717 -0.2452729 4.33795537 -1.875 6 C-3.23238281 7.3921875 -3.23238281 7.3921875 -4.6171875 8.8125 C-7 11 -7 11 -9 11 C-9.66 12.32 -10.32 13.64 -11 15 C-11.33 14.01 -11.66 13.02 -12 12 C-8.04 8.04 -4.08 4.08 0 0 Z " fill="#161E2E" transform="translate(297,298)"/>
<path d="M0 0 C1.58367747 0.14204741 3.16693318 0.28880153 4.75 0.4375 C5.63171875 0.51871094 6.5134375 0.59992187 7.421875 0.68359375 C10 1 10 1 11.9140625 1.5078125 C15.89191821 2.44640767 20.03089279 2.4061258 24.1015625 2.62109375 C27 3 27 3 29 5 C25.85319687 4.91787003 22.70815926 4.80515698 19.5625 4.6875 C18.68400391 4.66494141 17.80550781 4.64238281 16.90039062 4.61914062 C10.81335264 4.37206528 5.66418471 3.24126153 0 1 C0 0.67 0 0.34 0 0 Z " fill="#A1A5AC" transform="translate(448,811)"/>
<path d="M0 0 C0.33 0 0.66 0 1 0 C2.29243536 4.1196377 3.26252625 7.66831683 3 12 C3.66 12 4.32 12 5 12 C5 14.31 5 16.62 5 19 C5.66 19 6.32 19 7 19 C7 20.98 7 22.96 7 25 C6.67 25 6.34 25 6 25 C6 23.35 6 21.7 6 20 C5.34 20 4.68 20 4 20 C3.67 17.69 3.34 15.38 3 13 C2.34 13 1.68 13 1 13 C-0.10228696 8.59085217 -0.07654536 4.51617599 0 0 Z " fill="#979BA3" transform="translate(170,606)"/>
<path d="M0 0 C0.66 0.33 1.32 0.66 2 1 C0.56176509 6.63308675 -1.54144009 11.73677223 -4 17 C-4.99 16.67 -5.98 16.34 -7 16 C-4.69 10.72 -2.38 5.44 0 0 Z " fill="#242C3B" transform="translate(842,647)"/>
<path d="M0 0 C0.33 0.99 0.66 1.98 1 3 C0.38511719 3.39832031 -0.22976563 3.79664063 -0.86328125 4.20703125 C-1.67152344 4.73683594 -2.47976563 5.26664062 -3.3125 5.8125 C-4.11300781 6.33457031 -4.91351563 6.85664063 -5.73828125 7.39453125 C-8.01370896 8.87817933 -8.01370896 8.87817933 -9.54296875 10.76171875 C-10.02378906 11.17035156 -10.50460937 11.57898438 -11 12 C-12.32 11.67 -13.64 11.34 -15 11 C-10.05 7.37 -5.1 3.74 0 0 Z " fill="#242B3A" transform="translate(334,267)"/>
<path d="M0 0 C0.66 0.99 1.32 1.98 2 3 C1.20703125 5.84765625 1.20703125 5.84765625 -0.1875 9.0625 C-0.63480469 10.12597656 -1.08210937 11.18945312 -1.54296875 12.28515625 C-3 15 -3 15 -6 17 C-5.49487476 10.77012202 -2.67395877 5.54525767 0 0 Z " fill="#1E2636" transform="translate(834,665)"/>
<path d="M0 0 C2 1 2 1 3.125 3.375 C4 6 4 6 4 9 C4.66 9 5.32 9 6 9 C6 10.65 6 12.3 6 14 C6.66 14 7.32 14 8 14 C8 15.98 8 17.96 8 20 C5.05633121 15.58449682 3 12.38909875 3 7 C2.01 6.67 1.02 6.34 0 6 C0 4.02 0 2.04 0 0 Z " fill="#898D96" transform="translate(181,642)"/>
<path d="M0 0 C0.33 0 0.66 0 1 0 C1.50710303 4.80842339 -0.16069349 7.67694029 -2.5 11.8125 C-3.00080078 12.7087207 -3.00080078 12.7087207 -3.51171875 13.62304688 C-4.33172633 15.08734612 -5.16459312 16.54443137 -6 18 C-6.66 17.34 -7.32 16.68 -8 16 C-5.36 10.72 -2.72 5.44 0 0 Z " fill="#1A2232" transform="translate(244,367)"/>
<path d="M0 0 C-2.46376102 2.46376102 -3.53405594 2.35512338 -6.9375 2.625 C-8.25041016 2.73714844 -8.25041016 2.73714844 -9.58984375 2.8515625 C-11.390496 2.96246167 -13.19593594 3 -15 3 C-15 2.34 -15 1.68 -15 1 C-12.77888677 -0.11055662 -11.0853776 -0.33890958 -8.625 -0.625 C-7.85414063 -0.72039062 -7.08328125 -0.81578125 -6.2890625 -0.9140625 C-3.97179747 -1.0010588 -2.20658162 -0.67507292 0 0 Z " fill="#282F3F" transform="translate(505,365)"/>
<path d="M0 0 C5.99932374 1.8331267 11.44920563 4.07321751 17 7 C17 7.33 17 7.66 17 8 C15.35 8 13.7 8 12 8 C12 7.34 12 6.68 12 6 C10.35 6 8.7 6 7 6 C7 5.34 7 4.68 7 4 C5.68 4 4.36 4 3 4 C3 3.34 3 2.68 3 2 C2.01 1.67 1.02 1.34 0 1 C0 0.67 0 0.34 0 0 Z " fill="#989CA4" transform="translate(660,193)"/>
<path d="M0 0 C-1 3 -1 3 -2.70703125 4.203125 C-3.40183594 4.54859375 -4.09664062 4.8940625 -4.8125 5.25 C-5.49957031 5.60578125 -6.18664062 5.9615625 -6.89453125 6.328125 C-9.35077442 7.11193544 -10.60042386 6.84119973 -13 6 C-9.40464172 2.97989905 -4.81374718 0 0 0 Z " fill="#242C3B" transform="translate(673,830)"/>
<path d="M0 0 C-0.99 1.485 -0.99 1.485 -2 3 C-4.53125 3.36328125 -4.53125 3.36328125 -7.5 3.3125 C-8.4796875 3.30863281 -9.459375 3.30476562 -10.46875 3.30078125 C-13 3 -13 3 -15 1 C-9.92928099 0.28832014 -5.11791642 -0.10662326 0 0 Z " fill="#22293A" transform="translate(489,212)"/>
<path d="M0 0 C0.66 0.33 1.32 0.66 2 1 C-0.68673393 4.68182056 -3.07753253 6.74458121 -7 9 C-8.36984198 10.29579647 -9.7151049 11.61992749 -11 13 C-11.66 12.67 -12.32 12.34 -13 12 C-11.88121617 10.82737096 -10.75476949 9.66204862 -9.625 8.5 C-8.68527344 7.52546875 -8.68527344 7.52546875 -7.7265625 6.53125 C-6 5 -6 5 -4 5 C-4 4.34 -4 3.68 -4 3 C-2 1.375 -2 1.375 0 0 Z " fill="#AAADB3" transform="translate(524,487)"/>
<path d="M0 0 C0 0.99 0 1.98 0 3 C-0.78375 3.28875 -1.5675 3.5775 -2.375 3.875 C-5.09671632 4.84912254 -5.09671632 4.84912254 -7 7 C-7.99 7 -8.98 7 -10 7 C-10 7.66 -10 8.32 -10 9 C-11.65 9.33 -13.3 9.66 -15 10 C-15 9.34 -15 8.68 -15 8 C-13.68 8 -12.36 8 -11 8 C-11 7.34 -11 6.68 -11 6 C-10.34 6 -9.68 6 -9 6 C-9 5.34 -9 4.68 -9 4 C-2.25 0 -2.25 0 0 0 Z " fill="#AAADB3" transform="translate(325,214)"/>
<path d="M0 0 C4.85990469 -0.19439619 8.46653351 0.26377879 13 2 C14.11375 2.37125 15.2275 2.7425 16.375 3.125 C17.24125 3.41375 18.1075 3.7025 19 4 C19 4.33 19 4.66 19 5 C16.69 5 14.38 5 12 5 C12 4.34 12 3.68 12 3 C9.69 3 7.38 3 5 3 C5 2.34 5 1.68 5 1 C3.35 1 1.7 1 0 1 C0 0.67 0 0.34 0 0 Z " fill="#9DA1A9" transform="translate(603,174)"/>
<path d="M0 0 C0.71484375 1.765625 0.71484375 1.765625 1 4 C-0.43359375 5.921875 -0.43359375 5.921875 -2.4375 7.75 C-3.09621094 8.36359375 -3.75492188 8.9771875 -4.43359375 9.609375 C-4.95050781 10.06828125 -5.46742188 10.5271875 -6 11 C-6.99 10.67 -7.98 10.34 -9 10 C-8.27683594 9.29423828 -8.27683594 9.29423828 -7.5390625 8.57421875 C-6.90742187 7.95160156 -6.27578125 7.32898438 -5.625 6.6875 C-4.68527344 5.76517578 -4.68527344 5.76517578 -3.7265625 4.82421875 C-1.81913393 2.91187472 -1.81913393 2.91187472 0 0 Z " fill="#242B3A" transform="translate(786,740)"/>
<path d="M0 0 C-1 3 -1 3 -2.7421875 3.94921875 C-3.79792969 4.31466797 -3.79792969 4.31466797 -4.875 4.6875 C-5.92300781 5.06455078 -5.92300781 5.06455078 -6.9921875 5.44921875 C-9 6 -9 6 -12 6 C-12 5.34 -12 4.68 -12 4 C-10.3767313 3.3291288 -8.75132422 2.66342971 -7.125 2 C-6.22007812 1.62875 -5.31515625 1.2575 -4.3828125 0.875 C-2 0 -2 0 0 0 Z " fill="#1E2636" transform="translate(401,232)"/>
<path d="M0 0 C0 0.66 0 1.32 0 2 C-1.04800781 2.09087891 -1.04800781 2.09087891 -2.1171875 2.18359375 C-3.02726563 2.26738281 -3.93734375 2.35117187 -4.875 2.4375 C-5.77992188 2.51871094 -6.68484375 2.59992187 -7.6171875 2.68359375 C-10.01110861 2.86989285 -10.01110861 2.86989285 -12 4 C-14.6723621 4.13415472 -17.32250488 4.04318541 -20 4 C-20 3.67 -20 3.34 -20 3 C-18.02 3 -16.04 3 -14 3 C-14 2.34 -14 1.68 -14 1 C-12.04175306 0.83232136 -10.08339945 0.66588795 -8.125 0.5 C-6.48917969 0.36078125 -6.48917969 0.36078125 -4.8203125 0.21875 C-3.21670436 0.09437042 -1.60842449 0 0 0 Z " fill="#B3B6BC" transform="translate(578,811)"/>
<path d="M0 0 C0.84119973 2.39957614 1.11193544 3.64922558 0.328125 6.10546875 C-0.02765625 6.79253906 -0.3834375 7.47960937 -0.75 8.1875 C-1.26820313 9.22970703 -1.26820313 9.22970703 -1.796875 10.29296875 C-3 12 -3 12 -6 13 C-4.31326082 8.50202887 -2.18326108 4.27113698 0 0 Z " fill="#202837" transform="translate(826,681)"/>
<path d="M0 0 C2.21135589 7.09961627 0.29481382 15.11555854 -2 22 C-2.33 22 -2.66 22 -3 22 C-3.125 14.25 -3.125 14.25 -2 12 C-1.61369961 9.96416877 -1.26403216 7.9212682 -0.9375 5.875 C-0.76089844 4.77929688 -0.58429687 3.68359375 -0.40234375 2.5546875 C-0.26957031 1.71164062 -0.13679687 0.86859375 0 0 Z " fill="#B3B5BB" transform="translate(817,548)"/>
<path d="M0 0 C0.66 0.33 1.32 0.66 2 1 C1 4 1 4 -2 6 C-2.99 6 -3.98 6 -5 6 C-5 6.66 -5 7.32 -5 8 C-6.65 8.66 -8.3 9.32 -10 10 C-9.34 9.01 -8.68 8.02 -8 7 C-7.34 7 -6.68 7 -6 7 C-6 6.34 -6 5.68 -6 5 C-5.34 5 -4.68 5 -4 5 C-4 4.34 -4 3.68 -4 3 C-2 1.375 -2 1.375 0 0 Z " fill="#B4B7BC" transform="translate(536,477)"/>
<path d="M0 0 C3 1.75 3 1.75 6 4 C6 5.32 6 6.64 6 8 C6.66 8 7.32 8 8 8 C8 8.99 8 9.98 8 11 C8.66 11 9.32 11 10 11 C9.67 12.32 9.34 13.64 9 15 C8.34 14.34 7.68 13.68 7 13 C7 11.68 7 10.36 7 9 C6.34 9 5.68 9 5 9 C5 7.68 5 6.36 5 5 C4.360625 4.731875 3.72125 4.46375 3.0625 4.1875 C1 3 1 3 0 0 Z " fill="#989CA4" transform="translate(561,382)"/>
<path d="M0 0 C0 0.99 0 1.98 0 3 C-1.609375 4.31640625 -1.609375 4.31640625 -3.75 5.5625 C-4.44609375 5.97628906 -5.1421875 6.39007813 -5.859375 6.81640625 C-7.88181383 7.93465254 -9.92392844 8.9853434 -12 10 C-10.38405168 7.95880212 -8.7143618 5.95927063 -7 4 C-6.34 4 -5.68 4 -5 4 C-5 3.34 -5 2.68 -5 2 C-2 0 -2 0 0 0 Z " fill="#AFB2B8" transform="translate(429,328)"/>
<path d="M0 0 C0.33 0 0.66 0 1 0 C1 4.95 1 9.9 1 15 C0.01 14.34 -0.98 13.68 -2 13 C-2.46271324 8.18778226 -1.74817615 4.47970138 0 0 Z " fill="#B7B9BF" transform="translate(380,404)"/>
<path d="M0 0 C0.33 0 0.66 0 1 0 C1 1.98 1 3.96 1 6 C0.34 6 -0.32 6 -1 6 C-1 7.65 -1 9.3 -1 11 C-1.66 11 -2.32 11 -3 11 C-3.33 12.65 -3.66 14.3 -4 16 C-5.40907283 13.18185434 -4.50872691 11.82722796 -3.5625 8.875 C-3.27503906 7.96492188 -2.98757812 7.05484375 -2.69140625 6.1171875 C-2.46324219 5.41851562 -2.23507813 4.71984375 -2 4 C-1.34 4 -0.68 4 0 4 C0 2.68 0 1.36 0 0 Z " fill="#B0B3B9" transform="translate(180,386)"/>
<path d="M0 0 C0 3 0 3 -2.3125 5.5625 C-5 8 -5 8 -8 10 C-8.99 9.67 -9.98 9.34 -11 9 C-9.93458984 8.15115234 -9.93458984 8.15115234 -8.84765625 7.28515625 C-7.92855469 6.55167969 -7.00945313 5.81820312 -6.0625 5.0625 C-5.14597656 4.33160156 -4.22945312 3.60070312 -3.28515625 2.84765625 C-1.59148731 1.48061289 -1.59148731 1.48061289 0 0 Z " fill="#222939" transform="translate(750,777)"/>
<path d="M0 0 C0.66 0.33 1.32 0.66 2 1 C-0.63848309 4.61569905 -2.95293333 7.02835214 -7 9 C-7.99 9 -8.98 9 -10 9 C-8.71034824 7.62437146 -7.37310707 6.29233607 -6 5 C-5.34 5 -4.68 5 -4 5 C-4 4.34 -4 3.68 -4 3 C-2 1.375 -2 1.375 0 0 Z " fill="#A5A8AF" transform="translate(720,737)"/>
<path d="M0 0 C0.99 0.33 1.98 0.66 3 1 C0.69 3.31 -1.62 5.62 -4 8 C-4.99 7.67 -5.98 7.34 -7 7 C-4.66666667 4.66666667 -2.33333333 2.33333333 0 0 Z " fill="#212938" transform="translate(576,523)"/>
<path d="M0 0 C2.475 0.99 2.475 0.99 5 2 C5 2.66 5 3.32 5 4 C5.99 4 6.98 4 8 4 C8 4.66 8 5.32 8 6 C9.2065625 6.185625 9.2065625 6.185625 10.4375 6.375 C11.7059375 6.684375 11.7059375 6.684375 13 7 C13.33 7.66 13.66 8.32 14 9 C11.69 8.34 9.38 7.68 7 7 C7 6.34 7 5.68 7 5 C6.01 5 5.02 5 4 5 C4 4.34 4 3.68 4 3 C2.68 3 1.36 3 0 3 C0 2.01 0 1.02 0 0 Z " fill="#A7AAB0" transform="translate(703,216)"/>
<path d="M0 0 C0.33 0.99 0.66 1.98 1 3 C-2.44069624 5.29379749 -3.72290301 6 -8 6 C-8 5.34 -8 4.68 -8 4 C-5.36 2.68 -2.72 1.36 0 0 Z " fill="#242B3A" transform="translate(530,713)"/>
<path d="M0 0 C-1.09351553 3.17119503 -2.0126988 4.00783543 -4.9375 5.8125 C-8 7 -8 7 -11 6 C-9.54550599 4.9944239 -8.08627557 3.99569565 -6.625 3 C-5.40683594 2.1646875 -5.40683594 2.1646875 -4.1640625 1.3125 C-2 0 -2 0 0 0 Z " fill="#212837" transform="translate(349,258)"/>
<path d="M0 0 C0.33 0 0.66 0 1 0 C1.49230769 7.38461538 1.49230769 7.38461538 -1 10.5 C-1.66 10.995 -2.32 11.49 -3 12 C-2.68950274 10.56206608 -2.3765224 9.1246682 -2.0625 7.6875 C-1.88847656 6.88699219 -1.71445312 6.08648438 -1.53515625 5.26171875 C-1 3 -1 3 0 0 Z " fill="#A3A6AD" transform="translate(800,616)"/>
<path d="M0 0 C0.33 0 0.66 0 1 0 C1.22786458 2.05078125 1.45572917 4.1015625 1.68359375 6.15234375 C1.81886614 8.01140229 1.81886614 8.01140229 3 9 C3.14115161 11.67058851 3.04247107 14.32432238 3 17 C2.67 17 2.34 17 2 17 C-0.01167675 11.21642935 -0.22084624 6.09781001 0 0 Z " fill="#414857" transform="translate(813,456)"/>
<path d="M0 0 C0.6875 1.8125 0.6875 1.8125 1 4 C-0.375 5.5 -0.375 5.5 -2 7 C-2.71447643 9.10332891 -2.71447643 9.10332891 -3 11 C-3.99 11 -4.98 11 -6 11 C-4.54955729 6.89041233 -2.48889248 3.56741255 0 0 Z " fill="#A3A6AD" transform="translate(570,441)"/>
<path d="M0 0 C0.33 0 0.66 0 1 0 C1.16682272 4.92127034 1.24828052 8.50343896 -1 13 C-1.33 13 -1.66 13 -2 13 C-1.85851011 11.3954444 -1.71164314 9.79136233 -1.5625 8.1875 C-1.48128906 7.29417969 -1.40007812 6.40085937 -1.31640625 5.48046875 C-1 3 -1 3 0 0 Z " fill="#717782" transform="translate(164,436)"/>
<path d="M0 0 C-0.33 0.99 -0.66 1.98 -1 3 C-3.64 3 -6.28 3 -9 3 C-9.33 2.34 -9.66 1.68 -10 1 C-2.25 0 -2.25 0 0 0 Z " fill="#1D2535" transform="translate(557,864)"/>
<path d="M0 0 C0.66 0 1.32 0 2 0 C1.67 0.99 1.34 1.98 1 3 C0.34 3 -0.32 3 -1 3 C-1.66 4.32 -2.32 5.64 -3 7 C-3.99 6.67 -4.98 6.34 -6 6 C-4 4 -2 2 0 0 Z " fill="#282E3E" transform="translate(597,506)"/>
<path d="M0 0 C0.33 0 0.66 0 1 0 C1 2.31 1 4.62 1 7 C0.34 7 -0.32 7 -1 7 C-1 8.65 -1 10.3 -1 12 C-1.66 12 -2.32 12 -3 12 C-2.67 9.36 -2.34 6.72 -2 4 C-1.34 4 -0.68 4 0 4 C0 2.68 0 1.36 0 0 Z " fill="#ADB0B7" transform="translate(174,402)"/>
<path d="M0 0 C0.66 0 1.32 0 2 0 C1.28571429 8.57142857 1.28571429 8.57142857 -2 12 C-2.21278058 7.53160785 -1.59138085 4.17737474 0 0 Z " fill="#A6AAB0" transform="translate(386,380)"/>
<path d="M0 0 C0 0.99 0 1.98 0 3 C-1.96466413 4.06775224 -3.96855359 5.06553465 -6 6 C-6.66 5.67 -7.32 5.34 -8 5 C-2.25 0 -2.25 0 0 0 Z " fill="#B0B3B9" transform="translate(299,232)"/>
<path d="M0 0 C0 0.99 0 1.98 0 3 C-1.96466413 4.06775224 -3.96855359 5.06553465 -6 6 C-6.66 5.67 -7.32 5.34 -8 5 C-2.25 0 -2.25 0 0 0 Z " fill="#B4B7BD" transform="translate(307,226)"/>
<path d="M0 0 C4.71403788 0.47939368 8.66579301 0.96834048 13 3 C13 3.33 13 3.66 13 4 C10.69 4 8.38 4 6 4 C6 3.34 6 2.68 6 2 C3.03 1.505 3.03 1.505 0 1 C0 0.67 0 0.34 0 0 Z " fill="#91959E" transform="translate(622,179)"/>
<path d="M0 0 C-0.33 0.99 -0.66 1.98 -1 3 C-3.64 3 -6.28 3 -9 3 C-8.67 2.34 -8.34 1.68 -8 1 C-5.2303041 0.27113266 -2.87137415 0 0 0 Z " fill="#1D2536" transform="translate(584,860)"/>
<path d="M0 0 C3.93673644 1.31224548 6.22719294 2.91910327 9 6 C7.35 5.67 5.7 5.34 4 5 C4 4.34 4 3.68 4 3 C2.68 3 1.36 3 0 3 C0 2.01 0 1.02 0 0 Z " fill="#979BA3" transform="translate(531,638)"/>
<path d="M0 0 C0.66 0.33 1.32 0.66 2 1 C1.46930939 4.82097239 0.50298434 7.06171403 -2 10 C-2.22036864 6.14354879 -1.60355101 3.50776784 0 0 Z " fill="#494F5C" transform="translate(859,594)"/>
<path d="M0 0 C2 2 2 2 2.125 5.625 C2.08375 6.73875 2.0425 7.8525 2 9 C1.01 9.33 0.02 9.66 -1 10 C-0.67 6.7 -0.34 3.4 0 0 Z " fill="#1E2636" transform="translate(865,563)"/>
<path d="M0 0 C2 2 2 2 2.3125 5 C2.209375 5.99 2.10625 6.98 2 8 C1.01 8.66 0.02 9.32 -1 10 C-0.67 6.7 -0.34 3.4 0 0 Z " fill="#2B3242" transform="translate(215,440)"/>
<path d="M0 0 C0.66 0.33 1.32 0.66 2 1 C1.125 6.75 1.125 6.75 0 9 C-0.66 9 -1.32 9 -2 9 C-1.34 6.03 -0.68 3.06 0 0 Z " fill="#2B3240" transform="translate(221,420)"/>
<path d="M0 0 C1.0209375 0.2165625 1.0209375 0.2165625 2.0625 0.4375 C5.36273082 1.06945909 8.67144426 1.54313941 12 2 C12 2.66 12 3.32 12 4 C10.56138706 3.91253716 9.12402492 3.80434652 7.6875 3.6875 C6.88699219 3.62949219 6.08648438 3.57148438 5.26171875 3.51171875 C2.63727666 2.91793306 1.69179328 2.04219706 0 0 Z " fill="#C2C4C9" transform="translate(528,363)"/>
<path d="M0 0 C4.3177458 0.50797009 8.03302114 1.19682779 12 3 C12 3.33 12 3.66 12 4 C9.69 4 7.38 4 5 4 C5 3.34 5 2.68 5 2 C3.35 1.67 1.7 1.34 0 1 C0 0.67 0 0.34 0 0 Z " fill="#9397A0" transform="translate(556,307)"/>
<path d="M0 0 C0 0.99 0 1.98 0 3 C-3 5 -3 5 -5.1875 4.625 C-5.785625 4.41875 -6.38375 4.2125 -7 4 C-2.25 0 -2.25 0 0 0 Z " fill="#AEB1B7" transform="translate(695,758)"/>
<path d="M0 0 C0.66 0 1.32 0 2 0 C2 0.99 2 1.98 2 3 C2.66 3 3.32 3 4 3 C4 3.99 4 4.98 4 6 C4.66 6 5.32 6 6 6 C5.67 7.32 5.34 8.64 5 10 C4.34 9.34 3.68 8.68 3 8 C3 6.68 3 5.36 3 4 C2.34 4 1.68 4 1 4 C0.67 2.68 0.34 1.36 0 0 Z " fill="#AEB1B7" transform="translate(199,681)"/>
<path d="M0 0 C1 2 1 2 0.44140625 3.9453125 C0.15136719 4.66460938 -0.13867188 5.38390625 -0.4375 6.125 C-0.72496094 6.84945312 -1.01242187 7.57390625 -1.30859375 8.3203125 C-1.53675781 8.87460937 -1.76492188 9.42890625 -2 10 C-2.99 10 -3.98 10 -5 10 C-3.66511872 6.40608886 -2.03977277 3.24509304 0 0 Z " fill="#979BA2" transform="translate(775,669)"/>
<path d="M0 0 C0.33 0 0.66 0 1 0 C1 2.64 1 5.28 1 8 C0.01 8 -0.98 8 -2 8 C-1.125 1.125 -1.125 1.125 0 0 Z " fill="#232B3B" transform="translate(864,575)"/>
<path d="M0 0 C0.66 0.33 1.32 0.66 2 1 C2.1875 3.875 2.1875 3.875 2 7 C1.01 7.66 0.02 8.32 -1 9 C-0.67 6.03 -0.34 3.06 0 0 Z " fill="#2A3140" transform="translate(541,567)"/>
<path d="M0 0 C0.66 0.33 1.32 0.66 2 1 C0.75 3.4375 0.75 3.4375 -1 6 C-2.32 6.33 -3.64 6.66 -5 7 C-3.35 4.69 -1.7 2.38 0 0 Z " fill="#29303F" transform="translate(276,320)"/>
<path d="M0 0 C-1 3 -1 3 -4.0625 4.6875 C-5.031875 5.120625 -6.00125 5.55375 -7 6 C-7 5.01 -7 4.02 -7 3 C-2.77777778 0 -2.77777778 0 0 0 Z " fill="#1D2534" transform="translate(359,252)"/>
<path d="M0 0 C0 0.99 0 1.98 0 3 C-3.465 4.485 -3.465 4.485 -7 6 C-7 5.34 -7 4.68 -7 4 C-6.34 4 -5.68 4 -5 4 C-5 3.34 -5 2.68 -5 2 C-2 0 -2 0 0 0 Z " fill="#B2B4BA" transform="translate(281,246)"/>
<path d="M0 0 C3.86648272 1.04097612 7.49461443 2.03698408 11 4 C8.69 4 6.38 4 4 4 C4 3.34 4 2.68 4 2 C2.68 1.67 1.36 1.34 0 1 C0 0.67 0 0.34 0 0 Z " fill="#979CA4" transform="translate(397,795)"/>
<path d="M0 0 C0.33 0.99 0.66 1.98 1 3 C-2.75 6 -2.75 6 -5 6 C-3.63016497 2.83884224 -3.0109362 2.0072908 0 0 Z " fill="#1D2535" transform="translate(334,267)"/>
</svg>
