<?xml version="1.0" encoding="UTF-8"?>
<svg version="1.1" xmlns="http://www.w3.org/2000/svg" width="1024" height="1024">
<path d="M0 0 C337.92 0 675.84 0 1024 0 C1024 337.92 1024 675.84 1024 1024 C686.08 1024 348.16 1024 0 1024 C0 686.08 0 348.16 0 0 Z " fill="#0F1729" transform="translate(0,0)"/>
<path d="M0 0 C37.29 0 74.58 0 113 0 C113 0.66 113 1.32 113 2 C113.86625 1.938125 114.7325 1.87625 115.625 1.8125 C122.12151472 2.17341748 126.13032853 5.56299422 130.45703125 10.109375 C137.08238552 18.22753061 136.2303162 29.4358558 136.60546875 39.34960938 C136.79913886 43.99435288 137.20739679 48.41422431 138 53 C138.10806974 54.95326054 138.21457706 56.90678039 138.29003906 58.86157227 C138.76810878 70.89436729 139.8592095 81.96429444 147 92 C147 92.66 147 93.32 147 94 C147.78375 94.28875 148.5675 94.5775 149.375 94.875 C152 96 152 96 154 98 C156.09267329 98.859137 156.09267329 98.859137 158.4375 99.5625 C159.21996094 99.81128906 160.00242187 100.06007813 160.80859375 100.31640625 C161.53175781 100.54199219 162.25492188 100.76757812 163 101 C163.99 101.33 164.98 101.66 166 102 C166 102.66 166 103.32 166 104 C167.216875 104.0825 168.43375 104.165 169.6875 104.25 C173.84960402 104.75560771 175.85353249 106.19369114 179 109 C183.75279444 111.62317693 188.54307623 111.22716631 193.8125 111.125 C194.69615234 111.11597656 195.57980469 111.10695313 196.49023438 111.09765625 C198.66027359 111.07419637 200.83017247 111.03832865 203 111 C203.24621094 110.24460937 203.49242187 109.48921875 203.74609375 108.7109375 C205.15294478 105.66933433 206.37329782 104.569573 209.0625 102.625 C209.86429688 102.03203125 210.66609375 101.4390625 211.4921875 100.828125 C212.31976562 100.22484375 213.14734375 99.6215625 214 99 C215.56712988 97.7976774 217.1297821 96.58949192 218.6875 95.375 C219.43 94.7975 220.1725 94.22 220.9375 93.625 C224.23728221 91.02517159 227.46005981 88.34052347 230.62890625 85.58203125 C234.79289216 82 234.79289216 82 237 82 C237 81.34 237 80.68 237 80 C246.12925726 71.66459119 254.60312565 65.46400069 267.30078125 65.671875 C271.38861327 66.16880393 273.70359791 67.56352889 277 70 C277.33 70.66 277.66 71.32 278 72 C278.68408936 72.38103378 279.36817871 72.76206757 280.07299805 73.15464783 C284.19742162 75.75492419 287.39303789 79.08980634 290.83203125 82.52563477 C291.60501556 83.29029556 292.37799988 84.05495636 293.17440796 84.8427887 C295.72591101 87.37021469 298.26970787 89.90521832 300.8125 92.44140625 C302.58692041 94.20685744 304.36141696 95.9722321 306.13598633 97.73753357 C309.85513193 101.44019202 313.56988588 105.14721087 317.28222656 108.85668945 C321.08549918 112.65673363 324.89756355 116.44769752 328.71777344 120.23071289 C333.33841375 124.80704232 337.94657922 129.39557533 342.54574585 133.99348259 C344.29585187 135.7393948 346.05006137 137.48120408 347.8085022 139.21872139 C350.27372107 141.65693301 352.72247148 144.11063263 355.16796875 146.56860352 C355.89019623 147.2759967 356.61242371 147.98338989 357.35653687 148.71221924 C363.28576477 154.72749439 368.04479292 161.40601542 368.5625 170.0625 C367.81218883 181.31716752 360.6502842 188.28027875 353.49560547 196.29833984 C351.38201597 198.7031258 349.37871946 201.19088699 347.375 203.6875 C344.35210038 207.42102702 341.20751621 210.98112411 337.9375 214.5 C328.89510528 224.34647662 322.20651803 232.53325491 322.35546875 246.27734375 C322.92536485 252.27107858 325.02391543 257.76996078 327.125 263.375 C327.69214722 264.88960815 327.69214722 264.88960815 328.27075195 266.43481445 C331.2565072 273.96840059 334.87199254 281.49861586 341 287 C343.2603044 287.99373439 343.2603044 287.99373439 345.6875 288.6875 C346.49574219 288.93886719 347.30398438 289.19023437 348.13671875 289.44921875 C348.75160156 289.63097656 349.36648438 289.81273437 350 290 C350 290.66 350 291.32 350 292 C351.670625 291.9690625 351.670625 291.9690625 353.375 291.9375 C357 292 357 292 359 293 C360.42085791 293.15393128 361.84776064 293.25401346 363.27514648 293.32543945 C364.1604454 293.37251541 365.04574432 293.41959137 365.95787048 293.46809387 C366.91923416 293.51600571 367.88059784 293.56391754 368.87109375 293.61328125 C370.91084913 293.72777258 372.9505615 293.8430324 374.99023438 293.95898438 C378.20208283 294.1375697 381.41388354 294.31132306 384.62670898 294.47143555 C387.73005459 294.62836923 390.83160075 294.80676779 393.93359375 294.98828125 C394.87673935 295.03012039 395.81988495 295.07195953 396.79161072 295.11506653 C405.2933533 295.6411045 414.94058913 297.57335211 421 304 C424.51018374 309.11552374 426.11803869 313.55030418 426.14044189 319.71037292 C426.14900711 321.12531036 426.14900711 321.12531036 426.15774536 322.5688324 C426.15886322 323.59694534 426.15998108 324.62505829 426.16113281 325.68432617 C426.16609772 326.77260712 426.17106262 327.86088806 426.17617798 328.98214722 C426.19079324 332.58576082 426.19760114 336.18933037 426.203125 339.79296875 C426.20887766 342.29917909 426.21463538 344.80538942 426.22039795 347.31159973 C426.22956363 351.89781662 426.2358642 356.48402091 426.2388947 361.07024592 C426.24336902 367.80317466 426.26089015 374.53589974 426.2898953 381.26876658 C426.3141963 387.1142822 426.32184294 392.95973043 426.32357025 398.80529213 C426.3265917 401.2847231 426.334603 403.76415332 426.34775543 406.24355125 C426.36487198 409.71875659 426.36292151 413.1934704 426.35644531 416.66870117 C426.37026749 418.19568886 426.37026749 418.19568886 426.3843689 419.75352478 C426.33868243 427.60746537 425.25654458 435.2736192 419.8125 441.3125 C419.01779297 442.23482422 419.01779297 442.23482422 418.20703125 443.17578125 C412.89248201 447.56851487 407.41297969 449.47651552 400.5625 450.125 C399.82950684 450.1979126 399.09651367 450.2708252 398.34130859 450.34594727 C392.87258232 450.85130989 387.39331801 451.15770368 381.91015625 451.45703125 C381.19201248 451.49713318 380.47386871 451.53723511 379.73396301 451.57855225 C376.1156014 451.77950957 372.49757842 451.96678276 368.87719727 452.12744141 C351.36274871 452.91679377 351.36274871 452.91679377 337 462 C332.51728704 468.07071284 329.83280133 474.79210796 327.1875 481.8125 C326.78080078 482.82892578 326.37410156 483.84535156 325.95507812 484.89257812 C322.78973491 493.2395084 321.19612892 501.19546721 324.6875 509.6875 C325.4283395 511.14068516 326.19920141 512.57897505 327 514 C327.37382813 514.68964844 327.74765625 515.37929688 328.1328125 516.08984375 C330.65679202 520.44412629 333.61406235 523.75944588 337.2421875 527.22265625 C340.74665305 530.76606031 343.52205064 534.90762226 346.390625 538.96875 C349.1471488 542.78547526 352.04480532 546.10306225 355.4375 549.375 C362.69906424 556.45226058 368.06289731 563.22119547 368.4375 573.5625 C368.49808594 574.71878906 368.55867187 575.87507812 368.62109375 577.06640625 C367.15987211 586.32080994 360.38043903 593.20853465 353.93432617 599.58325195 C352.75500771 600.77308434 352.75500771 600.77308434 351.55186462 601.98695374 C348.97546809 604.58081567 346.38488337 607.15993279 343.79296875 609.73828125 C341.98406021 611.54988769 340.17574553 613.36208727 338.36799622 615.17485046 C334.58764831 618.96107775 330.80040304 622.74021182 327.00756836 626.51391602 C322.63974195 630.85996381 318.28653241 635.22025414 313.94060153 639.58818847 C309.73591451 643.81329904 305.51993907 648.02700616 301.29918861 652.23607445 C299.51455795 654.0180464 297.73286727 655.80296796 295.95424461 657.59093666 C293.46369533 660.09169827 290.96058646 662.57919134 288.45385742 665.0637207 C287.72888062 665.79679443 287.00390381 666.52986816 286.25695801 667.28515625 C279.56472217 673.86857288 272.72530884 678.62456991 263.1875 679.25 C254.51858258 679.12133332 247.33867497 673.43314998 241 668 C240.67 667.34 240.34 666.68 240 666 C238.34108672 664.98718979 236.67287114 663.98958574 235 663 C229.11183493 658.51874163 223.62829177 653.75400798 218.4921875 648.43359375 C216.52928696 646.54777046 214.39939399 645.26634683 212 644 C211.01 643.34 210.02 642.68 209 642 C209 641.34 209 640.68 209 640 C208.26910156 639.71382812 207.53820312 639.42765625 206.78515625 639.1328125 C205.08703463 638.4421319 203.40207398 637.71606286 201.74609375 636.9296875 C193.95554066 633.37055157 186.71299799 632.52567258 178.44116211 635.11328125 C175.29201288 636.38507317 172.21260203 637.71893429 169.14404297 639.16967773 C167.24958553 640.06269537 165.34047972 640.91506223 163.42578125 641.76367188 C154.31223793 645.89243943 145.48329145 650.46582587 141.734375 660.265625 C140.08709645 666.39910896 139.58633632 672.69720677 139 679 C138.82453019 680.76435392 138.64873532 682.52867553 138.47265625 684.29296875 C137.69339946 692.32193241 136.99233094 700.33260528 136.65991211 708.39355469 C136.20636233 719.07414043 135.65165364 728.3357903 127.90625 736.34375 C122.86953243 740.71991445 117.69281057 743.11536747 110.98554993 743.14717102 C109.4316732 743.15790398 109.4316732 743.15790398 107.84640503 743.16885376 C106.71026764 743.17154266 105.57413025 743.17423157 104.40356445 743.17700195 C103.20653397 743.18357315 102.00950348 743.19014435 100.77619934 743.19691467 C96.80523314 743.21666409 92.83428015 743.22831689 88.86328125 743.23828125 C87.49428983 743.24232992 86.12529861 743.24644688 84.7563076 743.25063133 C78.32237663 743.26968056 71.8884571 743.28391071 65.45450336 743.2922433 C58.03836213 743.30200744 50.62252002 743.3283062 43.20648414 743.36874419 C37.46791472 743.39895647 31.72943077 743.4137171 25.99078339 743.41702431 C22.56653354 743.4193695 19.14260332 743.42825944 15.7184391 743.45348549 C11.89318679 743.47783048 8.06871426 743.47691962 4.2434082 743.4699707 C3.11739197 743.48278076 1.99137573 743.49559082 0.83123779 743.50878906 C-5.37724514 743.46773204 -11.03023948 743.09784274 -16 739 C-17.63752969 736.35923213 -18 735.16924146 -18 732 C-18.66 732 -19.32 732 -20 732 C-20 730.35 -20 728.7 -20 727 C-20.66 727 -21.32 727 -22 727 C-22.06058594 726.15695312 -22.12117188 725.31390625 -22.18359375 724.4453125 C-22.30927734 722.80175781 -22.30927734 722.80175781 -22.4375 721.125 C-22.51871094 720.03445313 -22.59992188 718.94390625 -22.68359375 717.8203125 C-22.83001703 715.05271029 -22.83001703 715.05271029 -24 713 C-24.15841484 711.62999745 -24.26415849 710.25368034 -24.34130859 708.87670898 C-24.41676407 707.59913979 -24.41676407 707.59913979 -24.4937439 706.29576111 C-24.57031723 704.90992577 -24.57031723 704.90992577 -24.6484375 703.49609375 C-24.76777284 701.53838359 -24.88757989 699.58070214 -25.0078125 697.62304688 C-25.19276731 694.5382649 -25.37410916 691.4534098 -25.546875 688.36791992 C-25.7156307 685.3890463 -25.89974605 682.41142185 -26.0859375 679.43359375 C-26.13293793 678.52387314 -26.17993835 677.61415253 -26.22836304 676.67686462 C-26.71884464 669.10598739 -28.00554192 661.94578343 -33 656 C-33 655.34 -33 654.68 -33 654 C-33.53625 653.773125 -34.0725 653.54625 -34.625 653.3125 C-37 652 -37 652 -39.49609375 649.70703125 C-43.64154359 646.20883342 -48.45536366 644.39997483 -53.4375 642.375 C-54.35337891 641.9934375 -55.26925781 641.611875 -56.21289062 641.21875 C-57.99033636 640.47867927 -59.76940988 639.7425027 -61.55029297 639.01074219 C-64.7141814 637.70533078 -67.85797664 636.35707749 -71 635 C-71 634.34 -71 633.68 -71 633 C-86.70602748 633.0506646 -96.20870771 639.61150408 -107.45800781 649.64355469 C-109.73033864 651.64245748 -112.08196502 653.53787502 -114.4375 655.4375 C-118.11874133 658.42548567 -121.72299431 661.4844186 -125.29711914 664.59838867 C-143.79215683 680.67748582 -143.79215683 680.67748582 -155.6484375 680.30078125 C-164.38183545 679.18371872 -171.31669284 673.44266344 -177 667 C-177 666.01 -177 665.02 -177 664 C-177.66 664 -178.32 664 -179 664 C-179 663.34 -179 662.68 -179 662 C-179.66 662 -180.32 662 -181 662 C-181 661.34 -181 660.68 -181 660 C-181.66 660 -182.32 660 -183 660 C-183 659.34 -183 658.68 -183 658 C-183.66 658 -184.32 658 -185 658 C-185 657.34 -185 656.68 -185 656 C-185.66 656 -186.32 656 -187 656 C-187 655.34 -187 654.68 -187 654 C-187.55171875 653.94972656 -188.1034375 653.89945313 -188.671875 653.84765625 C-192.07016307 652.61036009 -193.94678255 650.1054877 -196.25 647.4375 C-197.22766986 646.33590934 -198.20684371 645.23565168 -199.1875 644.13671875 C-199.90486328 643.32920166 -199.90486328 643.32920166 -200.63671875 642.50537109 C-202.43931397 640.51489793 -204.33093424 638.62783583 -206.25 636.75 C-208.70512236 634.33447638 -211.01583015 631.8708531 -213.25 629.25 C-216.94591085 624.92518124 -220.99230514 620.97765052 -225.08886719 617.03613281 C-226.42885884 615.72688667 -227.71911074 614.36712319 -229 613 C-229 612.34 -229 611.68 -229 611 C-230.32 610.67 -231.64 610.34 -233 610 C-233 609.34 -233 608.68 -233 608 C-233.61875 607.7525 -234.2375 607.505 -234.875 607.25 C-237.40358627 605.76259631 -237.71839004 604.56321991 -239 602 C-241.0335948 600.73195434 -241.0335948 600.73195434 -243 600 C-243 599.34 -243 598.68 -243 598 C-243.66 598 -244.32 598 -245 598 C-245 597.34 -245 596.68 -245 596 C-246.32 595.34 -247.64 594.68 -249 594 C-249 593.34 -249 592.68 -249 592 C-249.66 592 -250.32 592 -251 592 C-251.67154933 590.71086513 -252.33708859 589.41859796 -253 588.125 C-253.37125 587.40570312 -253.7425 586.68640625 -254.125 585.9453125 C-255 584 -255 584 -255 582 C-255.66 582 -256.32 582 -257 582 C-257 578.04 -257 574.08 -257 570 C-256.34 570 -255.68 570 -255 570 C-254.896875 569.484375 -254.79375 568.96875 -254.6875 568.4375 C-252.51765116 560.74439957 -248.6492658 554.15145763 -241.90234375 549.578125 C-239.52301502 547.60430815 -239.13842474 545.86044628 -238 543 C-236.27562021 540.75636253 -234.54441434 538.62571071 -232.6875 536.5 C-232.21376953 535.94441406 -231.74003906 535.38882813 -231.25195312 534.81640625 C-228.98797683 532.18387568 -226.69893638 529.70693667 -224.20703125 527.28125 C-221.80082599 525.12308484 -221.80082599 525.12308484 -221 522 C-220.34 522 -219.68 522 -219 522 C-218.71125 521.236875 -218.4225 520.47375 -218.125 519.6875 C-217 517 -217 517 -215 514 C-214.34 514 -213.68 514 -213 514 C-210.06140276 503.898572 -210.68501888 496.91541389 -214.125 486.91796875 C-215 484 -215 484 -215 480 C-215.66 480 -216.32 480 -217 480 C-217.391875 478.865625 -217.78375 477.73125 -218.1875 476.5625 C-220.83723768 469.52569663 -224.0850214 461.56226598 -231.015625 457.94921875 C-245.83224846 451.37732931 -264.44362473 451.39792092 -280.42578125 450.7578125 C-281.27317871 450.72308838 -282.12057617 450.68836426 -282.99365234 450.65258789 C-284.56517145 450.59465677 -286.1371968 450.54859027 -287.70947266 450.51733398 C-294.38810419 450.2827446 -300.4579001 448.54338557 -305.875 444.5 C-306.42929687 444.0978125 -306.98359375 443.695625 -307.5546875 443.28125 C-309 442 -309 442 -311 439 C-311.125 436.3125 -311.125 436.3125 -311 434 C-311.66 434 -312.32 434 -313 434 C-313 394.4 -313 354.8 -313 314 C-312.01 314 -311.02 314 -310 314 C-309.95875 312.80375 -309.9175 311.6075 -309.875 310.375 C-309.35054725 306.08816886 -307.78829348 304.09822382 -304.66796875 301.2265625 C-290.5539608 290.8476433 -258.84232078 293.43962704 -242 294 C-242 293.34 -242 292.68 -242 292 C-241.40832031 291.80664062 -240.81664062 291.61328125 -240.20703125 291.4140625 C-236.80385442 290.29262413 -233.43822413 289.18100562 -230.125 287.8125 C-228 287 -228 287 -225 287 C-224.896875 286.29875 -224.79375 285.5975 -224.6875 284.875 C-223.71950797 280.82703333 -222.10390862 277.37559597 -219.4921875 274.12109375 C-217.85272788 271.79065769 -217.21857782 269.87099381 -216.5 267.125 C-215.38641827 263.12782768 -213.85694691 259.71389381 -212 256 C-209.90590742 247.62362969 -210.08615617 238.28679449 -214.3046875 230.6328125 C-216.13111344 227.79638143 -218.14611657 225.27294205 -220.3125 222.6875 C-222.91472559 219.55062774 -225.47573803 216.41961338 -227.875 213.125 C-237.86721016 198.78926783 -237.86721016 198.78926783 -251 188 C-251.73075648 185.6859378 -252.40138258 183.35171131 -253 181 C-253.66 181 -254.32 181 -255 181 C-257.38916729 172.49223356 -256.29265437 164.68890151 -252 157 C-248.3479323 152.00100634 -243.82944919 147.73242859 -239.3828125 143.4453125 C-237.89145515 142.02890223 -237.89145515 142.02890223 -237 140 C-236.34 140 -235.68 140 -235 140 C-235 139.34 -235 138.68 -235 138 C-234.34 138 -233.68 138 -233 138 C-233 137.34 -233 136.68 -233 136 C-231.56640625 134.58984375 -231.56640625 134.58984375 -229.5625 132.9375 C-225.51664931 129.50747791 -221.81044922 125.83502883 -218.09375 122.0546875 C-216.40830506 120.40068743 -214.7394448 118.93800264 -212.875 117.5 C-209.52986919 114.5911906 -207.10781956 111.37183196 -204.515625 107.79296875 C-204.01546875 107.20128906 -203.5153125 106.60960937 -203 106 C-202.34 106 -201.68 106 -201 106 C-201 105.34 -201 104.68 -201 104 C-199.59057617 102.61181641 -199.59057617 102.61181641 -197.60546875 100.9765625 C-192.574957 96.69824574 -187.95584043 92.06598323 -183.3125 87.375 C-182.07016602 86.12589844 -182.07016602 86.12589844 -180.80273438 84.8515625 C-176.61508943 80.64550308 -176.61508943 80.64550308 -172.45117188 76.41601562 C-170.05900831 73.97989194 -167.6132445 71.79026061 -164.875 69.75 C-164.21242188 69.24984375 -163.54984375 68.7496875 -162.8671875 68.234375 C-157.65161366 64.78642242 -150.98819916 65.44646898 -145 66 C-142.19931629 67.0394758 -140.41879903 68.19996351 -138 70 C-138 70.66 -138 71.32 -138 72 C-137.29875 72.2475 -136.5975 72.495 -135.875 72.75 C-132.60485452 74.17180238 -129.858878 75.87246288 -127 78 C-127 78.66 -127 79.32 -127 80 C-125.35 80.66 -123.7 81.32 -122 82 C-122 82.66 -122 83.32 -122 84 C-120.35 84.66 -118.7 85.32 -117 86 C-117 86.66 -117 87.32 -117 88 C-115.89591797 88.36351562 -115.89591797 88.36351562 -114.76953125 88.734375 C-111.64753899 90.16106822 -110.01636891 91.74657236 -107.6875 94.25 C-103.09807809 99.00031984 -98.37236604 103.87587799 -92 106 C-91.67 106.66 -91.34 107.32 -91 108 C-85.01695604 110.71956543 -79.53210112 111.61182186 -73 112 C-73 111.34 -73 110.68 -73 110 C-69.7 109.34 -66.4 108.68 -63 108 C-63 107.34 -63 106.68 -63 106 C-61.49759766 105.40251953 -61.49759766 105.40251953 -59.96484375 104.79296875 C-58.62237704 104.25785964 -57.27993019 103.72270072 -55.9375 103.1875 C-55.28072266 102.92646484 -54.62394531 102.66542969 -53.94726562 102.39648438 C-45.69647327 99.24437419 -45.69647327 99.24437419 -38 95 C-37.01 95 -36.02 95 -35 95 C-34.896875 94.443125 -34.79375 93.88625 -34.6875 93.3125 C-33.85821592 90.5230899 -32.65700944 88.3860936 -31 86 C-30.34 86 -29.68 86 -29 86 C-29 84.35 -29 82.7 -29 81 C-28.34 81 -27.68 81 -27 81 C-27.01015137 80.34275436 -27.02030273 79.68550873 -27.03076172 79.00834656 C-27.0910372 72.02673082 -26.72436955 65.16038724 -26.125 58.20703125 C-26.03621582 57.13498947 -25.94743164 56.06294769 -25.85595703 54.9584198 C-25.57487087 51.57607705 -25.28754579 48.19429907 -25 44.8125 C-24.80687676 42.50198777 -24.61416459 40.19144114 -24.421875 37.88085938 C-23.95266426 32.25350016 -23.47834735 26.62658954 -23 21 C-22.34 21 -21.68 21 -21 21 C-21.0825 19.96875 -21.165 18.9375 -21.25 17.875 C-20.87776295 12.10532574 -18.2038266 8.91119412 -14 5.1875 C-9.19799418 1.68603743 -5.90188991 1.88650212 0 2 C0 1.34 0 0.68 0 0 Z " fill="#FDFDFD" transform="translate(457,150)"/>
<path d="M0 0 C0.81009521 -0.00173218 1.62019043 -0.00346436 2.45483398 -0.00524902 C16.87432806 0.00823244 30.35737032 1.66584333 44.3125 5.4375 C45.58222656 5.75976562 46.85195313 6.08203125 48.16015625 6.4140625 C73.74283153 13.56353433 95.52750256 28.20197874 115.3125 45.4375 C116.49005859 46.42943359 116.49005859 46.42943359 117.69140625 47.44140625 C122.03272239 51.12369907 125.70791073 55.04165943 129.3125 59.4375 C130.3738893 60.64680908 131.4363824 61.8551503 132.5 63.0625 C134.7759147 65.70588009 136.55271692 68.42072901 138.3125 71.4375 C138.8075 71.89125 139.3025 72.345 139.8125 72.8125 C142.76329599 76.00919566 143.95577801 80.36733404 145.3125 84.4375 C146.3025 84.7675 147.2925 85.0975 148.3125 85.4375 C149.5 88.5 149.5 88.5 150.3125 91.4375 C150.9725 91.4375 151.6325 91.4375 152.3125 91.4375 C152.56 92.71625 152.8075 93.995 153.0625 95.3125 C154.02411147 99.63638933 155.46810259 103.54795417 157.16796875 107.62890625 C158.50630871 110.91309203 159.73097487 114.22765031 160.9375 117.5625 C161.34226562 118.67882812 161.74703125 119.79515625 162.1640625 120.9453125 C166.88780929 135.30935885 167.49076789 149.79463336 167.5 164.8125 C167.50080566 166.10309326 167.50161133 167.39368652 167.50244141 168.72338867 C167.44677031 178.03468907 167.44677031 178.03468907 166.3125 181.4375 C166.03804986 185.14911142 165.86683119 188.8606093 165.69140625 192.578125 C165.31337219 196.42861622 164.42773812 199.74274165 163.3125 203.4375 C162.96898912 205.43240765 162.65492809 207.43268168 162.375 209.4375 C161.60224225 214.2913846 160.43340231 218.02602319 158.3125 222.4375 C157.2754784 225.09133255 156.29756808 227.76374379 155.3125 230.4375 C154.6525 230.4375 153.9925 230.4375 153.3125 230.4375 C153.250625 231.22125 153.18875 232.005 153.125 232.8125 C151.7123072 239.11528324 148.97510259 244.93031749 144.3125 249.4375 C143.28014858 250.87311369 142.28167356 252.33350077 141.3125 253.8125 C140.79171875 254.6065625 140.2709375 255.400625 139.734375 256.21875 C138.21039694 258.59682565 136.74454448 261.00302438 135.3125 263.4375 C134.6525 264.4275 133.9925 265.4175 133.3125 266.4375 C132.6525 266.4375 131.9925 266.4375 131.3125 266.4375 C131.126875 267.118125 130.94125 267.79875 130.75 268.5 C129.04974037 271.97444359 126.90463619 274.01559562 124.125 276.65625 C122.43631779 278.315817 120.96880933 280.02150251 119.5 281.875 C118.778125 282.720625 118.05625 283.56625 117.3125 284.4375 C116.6525 284.4375 115.9925 284.4375 115.3125 284.4375 C115.3125 285.0975 115.3125 285.7575 115.3125 286.4375 C113.63714541 287.95734883 111.89544378 289.40456453 110.125 290.8125 C109.16207031 291.58335937 108.19914062 292.35421875 107.20703125 293.1484375 C105.34320273 294.62239636 103.47746394 296.09394453 101.609375 297.5625 C99.18406863 299.47051954 99.18406863 299.47051954 96.75 302.0625 C93.57735828 305.15379193 91.75097002 306.4375 87.3125 306.4375 C87.3125 307.0975 87.3125 307.7575 87.3125 308.4375 C82.7396832 311.14386097 78.22473064 313.38329446 73.3125 315.4375 C71.7965625 316.2728125 71.7965625 316.2728125 70.25 317.125 C67.02012414 318.56813602 64.80941176 318.68727941 61.3125 318.4375 C61.3125 319.0975 61.3125 319.7575 61.3125 320.4375 C42.16356383 327.58643617 42.16356383 327.58643617 31.3125 326.4375 C31.3125 327.0975 31.3125 327.7575 31.3125 328.4375 C22.6505958 330.70848952 14.01921778 330.83455816 5.125 330.8125 C4.00407455 330.81268127 4.00407455 330.81268127 2.86050415 330.81286621 C-14.90956143 330.77208144 -31.88197536 328.38331427 -48.6875 322.4375 C-50.39525356 321.87324225 -52.1035368 321.31058347 -53.8125 320.75 C-55.10454849 320.31362891 -56.39627229 319.87629383 -57.6875 319.4375 C-58.6775 319.1075 -59.6675 318.7775 -60.6875 318.4375 C-60.6875 317.7775 -60.6875 317.1175 -60.6875 316.4375 C-61.595 316.251875 -62.5025 316.06625 -63.4375 315.875 C-68.24582715 314.51086695 -72.25357256 311.86736539 -76.5 309.29296875 C-79.56508076 307.5087612 -82.66160528 305.99603198 -85.875 304.5 C-91.73053767 301.6294887 -96.01891203 297.92891196 -100.6875 293.4375 C-101.91172046 292.39002475 -103.14089599 291.34831245 -104.375 290.3125 C-115.30994683 280.68712764 -124.64162073 270.58109474 -132.6875 258.4375 C-133.23664063 257.63828125 -133.78578125 256.8390625 -134.3515625 256.015625 C-135.83330204 253.84452 -137.26573147 251.64831284 -138.6875 249.4375 C-139.32429688 248.46554687 -139.96109375 247.49359375 -140.6171875 246.4921875 C-152.69154161 227.58329333 -158.42400082 206.46024986 -161.6875 184.4375 C-161.96787109 182.80941406 -161.96787109 182.80941406 -162.25390625 181.1484375 C-163.18146621 173.2098613 -162.83269954 165.16327403 -162.72460938 157.18261719 C-162.694393 154.94740074 -162.68069316 152.71196578 -162.671875 150.4765625 C-162.11609528 133.12829542 -156.99883289 115.10211901 -149.6875 99.4375 C-149.39649414 98.80086426 -149.10548828 98.16422852 -148.80566406 97.50830078 C-138.51341576 75.15397311 -122.95409124 53.90552707 -103.6875 38.4375 C-102.74519531 37.66921875 -101.80289063 36.9009375 -100.83203125 36.109375 C-71.98608577 12.99132035 -36.98621472 -0.00188455 0 0 Z " fill="#0F1729" transform="translate(510.6875,351.5625)"/>
<path d="M0 0 C37.29 0 74.58 0 113 0 C113 0.66 113 1.32 113 2 C114.98 2 116.96 2 119 2 C119 2.33 119 2.66 119 3 C118.41415036 2.99815641 117.82830072 2.99631283 117.22469807 2.99441338 C102.91647868 2.9500892 88.60826547 2.91707322 74.29999256 2.89637566 C67.38038975 2.88609836 60.460833 2.87210658 53.54125977 2.84912109 C46.8563391 2.82692582 40.17147602 2.81541167 33.48651695 2.81024551 C30.9434096 2.80656652 28.40030469 2.79938261 25.85721779 2.78853989 C22.2795115 2.77390055 18.70199927 2.77202724 15.12426758 2.77294922 C14.0863205 2.76575867 13.04837341 2.75856812 11.97897339 2.75115967 C-2.59071186 2.55285512 -2.59071186 2.55285512 -15 9 C-15.66 8.67 -16.32 8.34 -17 8 C-11.01901799 2.69867503 -8.12404224 1.84376842 0 2 C0 1.34 0 0.68 0 0 Z " fill="#9DA0A9" transform="translate(457,150)"/>
<path d="M0 0 C41.91 0 83.82 0 127 0 C127.495 1.485 127.495 1.485 128 3 C85.76 3 43.52 3 0 3 C0 2.01 0 1.02 0 0 Z " fill="#343B4B" transform="translate(448,892)"/>
<path d="M0 0 C0.33 0 0.66 0 1 0 C1.11708742 14.56055881 1.20511194 29.12105485 1.25906086 43.68198967 C1.28478234 50.4437527 1.31981552 57.20522227 1.37719727 63.96679688 C1.43258095 70.49607355 1.46144992 77.0251603 1.47438622 83.5546608 C1.48360139 86.04167595 1.5015965 88.52867507 1.52865028 91.01556015 C1.56512051 94.5079683 1.56993758 97.99913028 1.56762695 101.49169922 C1.58560333 102.51237991 1.60357971 103.53306061 1.62210083 104.58467102 C1.56259014 112.93591746 -0.89301957 119.3428797 -6.31640625 125.7265625 C-7.05761719 126.35304688 -7.79882812 126.97953125 -8.5625 127.625 C-9.30628906 128.27726563 -10.05007813 128.92953125 -10.81640625 129.6015625 C-13 131 -13 131 -17 131 C-17 130.34 -17 129.68 -17 129 C-15.42578125 127.95703125 -15.42578125 127.95703125 -13.3125 126.8125 C-7.72657988 123.44117476 -4.52405399 119.33211536 -2.6875 113.0625 C-2.460625 112.051875 -2.23375 111.04125 -2 110 C-1.67 110 -1.34 110 -1 110 C-0.67 73.7 -0.34 37.4 0 0 Z " fill="#192335" transform="translate(884,468)"/>
<path d="M0 0 C0.33 0 0.66 0 1 0 C1.25110392 2.03908483 1.47492522 4.08153919 1.6875 6.125 C1.81511719 7.26195312 1.94273437 8.39890625 2.07421875 9.5703125 C1.94432541 15.57275198 -1.04865897 19.42659898 -5.19604492 23.53662109 C-6.03668991 24.37703949 -6.8773349 25.21745789 -7.74345398 26.08334351 C-8.64666885 26.97107452 -9.54988373 27.85880554 -10.48046875 28.7734375 C-11.40845779 29.6971817 -12.33644684 30.6209259 -13.29255676 31.57266235 C-15.74697944 34.01568925 -18.21027916 36.44956766 -20.67559814 38.8815918 C-23.19480168 41.36998032 -25.70542122 43.86699715 -28.21679688 46.36328125 C-33.13620808 51.25062142 -38.06506017 56.12834151 -43 61 C-43.66 60.34 -44.32 59.68 -45 59 C-44.52250809 58.53139053 -44.04501617 58.06278107 -43.55305481 57.57997131 C-38.56045192 52.67624318 -33.58228862 47.75818988 -28.61206055 42.83178711 C-26.75826396 40.99803681 -24.90088417 39.16790121 -23.03979492 37.34155273 C-20.35673415 34.70731405 -17.68706541 32.06010574 -15.01953125 29.41015625 C-14.19226028 28.60353043 -13.36498932 27.7969046 -12.51264954 26.96583557 C-6.26294403 20.71854948 -0.53731898 14.14939984 -0.1875 4.9375 C-0.13980469 3.99777344 -0.09210937 3.05804687 -0.04296875 2.08984375 C-0.02878906 1.40019531 -0.01460937 0.71054687 0 0 Z " fill="#151E31" transform="translate(825,720)"/>
<path d="M0 0 C3.47661018 2.31774012 3.74771051 3.69253254 4.6088562 7.64971924 C5.3096221 11.86043823 5.57362923 16.07778929 5.81640625 20.3359375 C5.87779282 21.29650055 5.93917938 22.2570636 6.00242615 23.24673462 C6.19609713 26.28910101 6.38005147 29.33194161 6.5625 32.375 C6.74961086 35.43939067 6.93887853 38.50359866 7.13328552 41.5675354 C7.25357136 43.46811376 7.36948222 45.36897504 7.48060608 47.27011108 C7.56090309 48.55252182 7.56090309 48.55252182 7.64282227 49.86083984 C7.68786392 50.61392426 7.73290558 51.36700867 7.77931213 52.14291382 C7.90458498 54.09128814 7.90458498 54.09128814 9 56 C9.07065617 58.04055005 9.08421976 60.08334257 9.0625 62.125 C9.05347656 63.22070312 9.04445313 64.31640625 9.03515625 65.4453125 C9.02355469 66.28835938 9.01195312 67.13140625 9 68 C9.66 68 10.32 68 11 68 C11 69.65 11 71.3 11 73 C11.66 73 12.32 73 13 73 C13.66 74.98 14.32 76.96 15 79 C10.07692308 74.69230769 10.07692308 74.69230769 9.6875 71.1875 C9.8421875 70.1046875 9.8421875 70.1046875 10 69 C9.34 69 8.68 69 8 69 C8 66.36 8 63.72 8 61 C7.34 61 6.68 61 6 61 C5.94465088 60.22809326 5.88930176 59.45618652 5.83227539 58.66088867 C5.57967688 55.1694568 5.32115964 51.67848785 5.0625 48.1875 C4.97548828 46.97255859 4.88847656 45.75761719 4.79882812 44.50585938 C4.71181641 43.34248047 4.62480469 42.17910156 4.53515625 40.98046875 C4.456604 39.90692139 4.37805176 38.83337402 4.29711914 37.72729492 C4.08751138 34.90982842 4.08751138 34.90982842 3 32 C2.86380609 30.38322379 2.77577245 28.76212509 2.71875 27.140625 C2.68136719 26.18929687 2.64398438 25.23796875 2.60546875 24.2578125 C2.55326172 22.76894531 2.55326172 22.76894531 2.5 21.25 C2.26849155 10.47222719 2.26849155 10.47222719 0 0 Z " fill="#5D6370" transform="translate(426,809)"/>
<path d="M0 0 C0.495 1.485 0.495 1.485 1 3 C-0.24088379 4.23302856 -0.24088379 4.23302856 -1.50683594 5.4909668 C-4.58817872 8.5541497 -7.66616192 11.62068983 -10.74316406 14.68823242 C-12.07298486 16.01303808 -13.40370357 17.33694309 -14.73535156 18.65991211 C-16.654088 20.56645927 -18.56952542 22.47626879 -20.484375 24.38671875 C-21.07619568 24.97337814 -21.66801636 25.56003754 -22.277771 26.16447449 C-25.41042227 29.29670345 -28.30593534 32.47054405 -31 36 C-31.99 35.67 -32.98 35.34 -34 35 C-25.44091592 24.2641612 -16.65679766 13.72975146 -6 5 C-5.39800781 4.4946875 -4.79601562 3.989375 -4.17578125 3.46875 C-2.78964765 2.30556097 -1.39581803 1.15154987 0 0 Z " fill="#192132" transform="translate(413,385)"/>
<path d="M0 0 C0.66 0.33 1.32 0.66 2 1 C2 2.98 2 4.96 2 7 C2.66 7 3.32 7 4 7 C4.06058594 7.85464844 4.12117187 8.70929688 4.18359375 9.58984375 C4.26738281 10.69457031 4.35117187 11.79929687 4.4375 12.9375 C4.51871094 14.03964844 4.59992187 15.14179688 4.68359375 16.27734375 C4.70418084 18.91109903 4.70418084 18.91109903 6 20 C6.09785341 21.34544327 6.12797985 22.69592563 6.12939453 24.04492188 C6.13254669 24.90251099 6.13569885 25.7601001 6.13894653 26.64367676 C6.1369223 27.57595093 6.13489807 28.5082251 6.1328125 29.46875 C6.13376923 30.41939331 6.13472595 31.37003662 6.13571167 32.3494873 C6.13639357 34.36368882 6.13453862 36.37789252 6.13037109 38.39208984 C6.12502298 41.48670355 6.13031577 44.5811721 6.13671875 47.67578125 C6.13605797 49.62760449 6.13477681 51.57942764 6.1328125 53.53125 C6.13483673 54.46352417 6.13686096 55.39579834 6.13894653 56.35632324 C6.13579437 57.21391235 6.13264221 58.07150146 6.12939453 58.95507812 C6.12820114 60.09305847 6.12820114 60.09305847 6.12698364 61.25402832 C6 63 6 63 5 64 C4.79162581 65.82906235 4.63250341 67.66388134 4.5 69.5 C4.11111111 74.88888889 4.11111111 74.88888889 3 76 C2.33844543 79.70092528 1.75668469 83.40629203 1.19335938 87.12304688 C0.48747164 91.59610752 -0.40853621 95.73542819 -2 100 C-2.66 100 -3.32 100 -4 100 C-3.566875 98.63875 -3.566875 98.63875 -3.125 97.25 C-1.8742546 92.91643144 -1.22610236 88.51811582 -0.5625 84.0625 C0 81 0 81 1.02734375 77.609375 C2.06753527 73.74938721 2.37430225 70.23819052 2.5625 66.25 C2.90198366 59.29404901 2.90198366 59.29404901 4 56 C4.24117232 51.46271782 4.19033565 46.91800021 4.1875 42.375 C4.18669434 41.06297607 4.18588867 39.75095215 4.18505859 38.39916992 C4.10288135 25.33862741 2.94549162 12.753352 0 0 Z " fill="#AEB1B7" transform="translate(673,474)"/>
<path d="M0 0 C0.33 0 0.66 0 1 0 C1.02886751 4.14581887 1.04675327 8.29161216 1.0625 12.4375 C1.07087891 13.62150391 1.07925781 14.80550781 1.08789062 16.02539062 C1.09111328 17.15009766 1.09433594 18.27480469 1.09765625 19.43359375 C1.10289307 20.47572021 1.10812988 21.51784668 1.11352539 22.59155273 C1 25 1 25 0 26 C-0.15786308 27.85174706 -0.25107356 29.7090911 -0.31640625 31.56640625 C-0.35830078 32.69111328 -0.40019531 33.81582031 -0.44335938 34.97460938 C-0.48267578 36.15861328 -0.52199219 37.34261719 -0.5625 38.5625 C-0.60568359 39.75037109 -0.64886719 40.93824219 -0.69335938 42.16210938 C-0.79983546 45.10794784 -0.90184841 48.0538743 -1 51 C-1.66 51 -2.32 51 -3 51 C-2.96519531 51.64066406 -2.93039062 52.28132813 -2.89453125 52.94140625 C-2.71012429 58.83364766 -3.2695542 62.76664555 -6 68 C-6.99 68 -7.98 68 -9 68 C-8.67 67.01 -8.34 66.02 -8 65 C-7.34 65 -6.68 65 -6 65 C-6 63.35 -6 61.7 -6 60 C-5.34 60 -4.68 60 -4 60 C-4.01015137 59.34275436 -4.02030273 58.68550873 -4.03076172 58.00834656 C-4.0910372 51.02673082 -3.72436955 44.16038724 -3.125 37.20703125 C-3.03621582 36.13498947 -2.94743164 35.06294769 -2.85595703 33.9584198 C-2.57487087 30.57607705 -2.28754579 27.19429907 -2 23.8125 C-1.80687676 21.50198777 -1.61416459 19.19144114 -1.421875 16.88085938 C-0.95266426 11.25350016 -0.47834735 5.62658954 0 0 Z " fill="#C0C2C7" transform="translate(434,171)"/>
<path d="M0 0 C0.33 0.99 0.66 1.98 1 3 C-2.71557729 6.83598952 -6.75563733 10.12282872 -10.91015625 13.46875 C-13.06107029 15.23081358 -15.16299968 17.00598286 -17.24609375 18.84375 C-17.77912109 19.30765137 -18.31214844 19.77155273 -18.86132812 20.24951172 C-20.3714541 21.56736329 -21.87152091 22.89671495 -23.37109375 24.2265625 C-26 26 -26 26 -28.34765625 25.7734375 C-29.16556641 25.39058594 -29.16556641 25.39058594 -30 25 C-29.35675781 24.47792969 -28.71351563 23.95585938 -28.05078125 23.41796875 C-21.6539709 18.20744277 -15.3298454 12.92033629 -9.04296875 7.578125 C-6.04192774 5.03552286 -3.02497047 2.51402628 0 0 Z " fill="#1D2537" transform="translate(351,797)"/>
<path d="M0 0 C0.33 0 0.66 0 1 0 C1.55407935 5.54079352 0.11226242 9.51171415 -3 14 C-6.79479887 18.51987651 -10.89380928 22.76468378 -15 27 C-15.99 26.67 -16.98 26.34 -18 26 C-17.32453125 25.27554687 -16.6490625 24.55109375 -15.953125 23.8046875 C-15.06109375 22.83789062 -14.1690625 21.87109375 -13.25 20.875 C-12.36828125 19.92367188 -11.4865625 18.97234375 -10.578125 17.9921875 C-6.48186459 13.23804285 -3.85873059 8.97449117 -2 3 C-1.34 2.01 -0.68 1.02 0 0 Z " fill="#1E2738" transform="translate(826,322)"/>
<path d="M0 0 C0.66 0.33 1.32 0.66 2 1 C2 3.97 2 6.94 2 10 C1.01 10.495 1.01 10.495 0 11 C0.05220703 12.77117187 0.05220703 12.77117187 0.10546875 14.578125 C0.13361232 16.13540242 0.16091187 17.69269525 0.1875 19.25 C0.21263672 20.02730469 0.23777344 20.80460937 0.26367188 21.60546875 C0.27333984 22.35957031 0.28300781 23.11367188 0.29296875 23.890625 C0.3086792 24.58188477 0.32438965 25.27314453 0.34057617 25.98535156 C-0.1015103 28.60047524 -1.30410867 30.00483373 -3 32 C-2.88874972 28.35361371 -2.75845829 24.70813568 -2.625 21.0625 C-2.57859375 19.53012695 -2.57859375 19.53012695 -2.53125 17.96679688 C-2.29214287 11.73008583 -1.551407 6.04796468 0 0 Z " fill="#273040" transform="translate(351,482)"/>
<path d="M0 0 C0.33 0 0.66 0 1 0 C2.125 6.75 2.125 6.75 1 9 C0.93944551 10.51313916 0.93967588 12.02897758 0.97265625 13.54296875 C0.98490234 14.45240234 0.99714844 15.36183594 1.00976562 16.29882812 C1.04456683 18.20516068 1.08354171 20.11142221 1.12695312 22.01757812 C1.19187228 27.44405578 0.80868993 31.87183209 -1 37 C-1.99 36.67 -2.98 36.34 -4 36 C-3.80301514 35.15429443 -3.80301514 35.15429443 -3.60205078 34.29150391 C-2.01649207 27.01598794 -1.37959225 19.79498768 -0.875 12.375 C-0.78863281 11.18003906 -0.70226562 9.98507812 -0.61328125 8.75390625 C-0.40321288 5.83629006 -0.19890877 2.91839458 0 0 Z " fill="#363E4D" transform="translate(594,843)"/>
<path d="M0 0 C0.66 0 1.32 0 2 0 C1.54281728 5.12044643 0.62935492 9.2234396 -1.30078125 13.96875 C-2.43717874 17.27001646 -2.69033405 20.53174138 -3 24 C-3.66 24 -4.32 24 -5 24 C-5.81373452 14.97658831 -3.65396307 8.20836705 0 0 Z " fill="#242D3F" transform="translate(784,631)"/>
<path d="M0 0 C0 0.99 0 1.98 0 3 C-2.37242295 4.18621147 -4.74529728 5.37133179 -7.12109375 6.55078125 C-9.01973062 7.50654011 -10.90821885 8.48276991 -12.78515625 9.48046875 C-13.66042969 9.94066406 -14.53570313 10.40085937 -15.4375 10.875 C-16.24058594 11.30554688 -17.04367187 11.73609375 -17.87109375 12.1796875 C-20 13 -20 13 -23 12 C-18.66902671 8.08360053 -13.9904138 6.01012112 -8.6875 3.75 C-7.85154297 3.38648438 -7.01558594 3.02296875 -6.15429688 2.6484375 C-4.10571254 1.75876659 -2.05436987 0.87620804 0 0 Z " fill="#1C2537" transform="translate(630,787)"/>
<path d="M0 0 C0.33 0 0.66 0 1 0 C1.06058594 0.98742187 1.12117188 1.97484375 1.18359375 2.9921875 C1.26738281 4.27351562 1.35117187 5.55484375 1.4375 6.875 C1.51871094 8.15117188 1.59992188 9.42734375 1.68359375 10.7421875 C1.79206027 13.88300152 1.79206027 13.88300152 3 16 C3.07065617 18.04055005 3.08421976 20.08334257 3.0625 22.125 C3.05347656 23.22070312 3.04445313 24.31640625 3.03515625 25.4453125 C3.02355469 26.28835938 3.01195312 27.13140625 3 28 C3.66 28 4.32 28 5 28 C5 29.65 5 31.3 5 33 C5.66 33 6.32 33 7 33 C7.66 34.98 8.32 36.96 9 39 C4.07692308 34.69230769 4.07692308 34.69230769 3.6875 31.1875 C3.790625 30.465625 3.89375 29.74375 4 29 C3.34 29 2.68 29 2 29 C2 26.36 2 23.72 2 21 C1.34 21 0.68 21 0 21 C0 14.07 0 7.14 0 0 Z " fill="#A8ABB2" transform="translate(432,849)"/>
<path d="M0 0 C0.33 0 0.66 0 1 0 C1.1391722 7.11131264 0.73492545 14.05382537 0 21.125 C-0.09539062 22.08148438 -0.19078125 23.03796875 -0.2890625 24.0234375 C-0.5216625 26.34943754 -0.75869679 28.67488959 -1 31 C-1.66 31 -2.32 31 -3 31 C-3 32.65 -3 34.3 -3 36 C-3.33 36 -3.66 36 -4 36 C-4.04254356 34.00045254 -4.04080783 31.99958364 -4 30 C-3.67 29.67 -3.34 29.34 -3 29 C-2.8672658 27.61851888 -2.79671519 26.23093271 -2.75390625 24.84375 C-2.70459961 23.55597656 -2.70459961 23.55597656 -2.65429688 22.2421875 C-2.5941482 20.44540587 -2.53675494 18.64852939 -2.48242188 16.8515625 C-2.2523673 11.00036301 -1.42641846 5.68257396 0 0 Z " fill="#434A58" transform="translate(431,200)"/>
<path d="M0 0 C-2 3 -2 3 -4.12890625 3.4765625 C-4.93199219 3.52554688 -5.73507812 3.57453125 -6.5625 3.625 C-9.58076447 3.60362942 -9.58076447 3.60362942 -12 5 C-14.33297433 5.04092937 -16.66705225 5.04241723 -19 5 C-19.33 4.34 -19.66 3.68 -20 3 C-13.19925959 1.09579269 -7.08076251 -0.40850553 0 0 Z " fill="#222B3D" transform="translate(822,602)"/>
<path d="M0 0 C0.99 0.33 1.98 0.66 3 1 C3.33 9.58 3.66 18.16 4 27 C3.34 27.33 2.68 27.66 2 28 C1.01445028 22.02872819 0.68944649 16.10508542 0.4375 10.0625 C0.39431641 9.09248047 0.35113281 8.12246094 0.30664062 7.12304688 C0.20137907 4.74881399 0.09924293 2.37449079 0 0 Z " fill="#2C3444" transform="translate(594,199)"/>
<path d="M0 0 C0.66 0.66 1.32 1.32 2 2 C1.34 3.32 0.68 4.64 0 6 C-0.66 6 -1.32 6 -2 6 C-2.20625 6.5775 -2.4125 7.155 -2.625 7.75 C-4.55027866 10.90045599 -6.77851354 12.26039731 -10 14 C-12.375 13.75 -12.375 13.75 -14 13 C-13.42507813 12.5771875 -12.85015625 12.154375 -12.2578125 11.71875 C-10.06073809 10.04623661 -7.96111889 8.30849851 -5.875 6.5 C-4.85019531 5.61828125 -4.85019531 5.61828125 -3.8046875 4.71875 C-1.79525008 2.93117304 -1.79525008 2.93117304 0 0 Z " fill="#1D2637" transform="translate(590,879)"/>
<path d="M0 0 C0.66 0 1.32 0 2 0 C3.72293135 4.46334184 4.22240791 8.10201231 4.125 12.875 C4.10695312 14.02742188 4.08890625 15.17984375 4.0703125 16.3671875 C4.03550781 17.67042969 4.03550781 17.67042969 4 19 C3.34 19 2.68 19 2 19 C2 20.98 2 22.96 2 25 C1.34 25 0.68 25 0 25 C0.165 23.88625 0.33 22.7725 0.5 21.625 C1.40297265 14.33672074 1.25720845 7.22894857 0 0 Z " fill="#BDBFC4" transform="translate(245,383)"/>
<path d="M0 0 C0.99 0.66 1.98 1.32 3 2 C2.67 2.99 2.34 3.98 2 5 C1.77548542 7.22574335 1.59217122 9.45581519 1.4375 11.6875 C1.35371094 12.86699219 1.26992188 14.04648437 1.18359375 15.26171875 C1.12300781 16.16535156 1.06242188 17.06898438 1 18 C0.01 17.34 -0.98 16.68 -2 16 C-1.85890014 13.89551062 -1.71195825 11.7914123 -1.5625 9.6875 C-1.48128906 8.51574219 -1.40007813 7.34398437 -1.31640625 6.13671875 C-1 3 -1 3 0 0 Z " fill="#232C3D" transform="translate(598,810)"/>
<path d="M0 0 C0.33 0 0.66 0 1 0 C2.73239758 14.0679032 2.73239758 14.0679032 -1 19 C-1.99 19.66 -2.98 20.32 -4 21 C-4.33 20.01 -4.66 19.02 -5 18 C-4.38125 17.01 -3.7625 16.02 -3.125 15 C-0.20900903 10.3243593 -0.19488716 5.38863011 0 0 Z " fill="#293243" transform="translate(825,720)"/>
<path d="M0 0 C0.99 0.66 1.98 1.32 3 2 C-3.02818509 6.28670939 -7.71304215 6.474377 -15 6 C-15 5.34 -15 4.68 -15 4 C-14.00097656 3.79503906 -13.00195312 3.59007812 -11.97265625 3.37890625 C-10.68230469 3.10949219 -9.39195312 2.84007812 -8.0625 2.5625 C-6.77472656 2.29566406 -5.48695313 2.02882813 -4.16015625 1.75390625 C-1.15361121 1.32818384 -1.15361121 1.32818384 0 0 Z " fill="#161F31" transform="translate(732,825)"/>
<path d="M0 0 C0.33 0.66 0.66 1.32 1 2 C-1.79035158 7.44118558 -4.85174364 9.91104618 -10 13 C-11.75149165 14.58245275 -11.75149165 14.58245275 -13 16 C-13.66 15.67 -14.32 15.34 -15 15 C-14.0479279 13.99403703 -13.08812654 12.99538437 -12.125 12 C-11.32449219 11.1646875 -11.32449219 11.1646875 -10.5078125 10.3125 C-9 9 -9 9 -7 9 C-7 8.34 -7 7.68 -7 7 C-6.34 7 -5.68 7 -5 7 C-4.34 5.68 -3.68 4.36 -3 3 C-2.34 3 -1.68 3 -1 3 C-0.67 2.01 -0.34 1.02 0 0 Z " fill="#B3B5BB" transform="translate(633,629)"/>
<path d="M0 0 C0.33 0.99 0.66 1.98 1 3 C-0.328125 4.9375 -0.328125 4.9375 -2.25 7 C-2.87390625 7.680625 -3.4978125 8.36125 -4.140625 9.0625 C-5.74068213 10.72978642 -7.35592507 12.3762223 -9 14 C-9.99 13.67 -10.98 13.34 -12 13 C-11.55269531 12.56429688 -11.10539062 12.12859375 -10.64453125 11.6796875 C-6.85478464 7.94650427 -3.33540417 4.143987 0 0 Z " fill="#242C3B" transform="translate(397,399)"/>
<path d="M0 0 C0.66 0 1.32 0 2 0 C1.44175115 3.61682353 0.25399273 4.97916829 -2.5625 7.25 C-6.97109047 10.92515408 -10.99213417 14.89620122 -15 19 C-15 16 -15 16 -12.41015625 13.15234375 C-11.30164198 12.07310597 -10.18539623 11.00176601 -9.0625 9.9375 C-5.0479068 6.34450657 -5.0479068 6.34450657 -2 2 C-1.34 2 -0.68 2 0 2 C0 1.34 0 0.68 0 0 Z " fill="#90949C" transform="translate(222,288)"/>
<path d="M0 0 C1.76923828 0.01353516 1.76923828 0.01353516 3.57421875 0.02734375 C4.47785156 0.03894531 5.38148438 0.05054688 6.3125 0.0625 C6.3125 0.7225 6.3125 1.3825 6.3125 2.0625 C5.60222656 2.12308594 4.89195312 2.18367187 4.16015625 2.24609375 C3.24105469 2.32988281 2.32195312 2.41367187 1.375 2.5 C0.00021484 2.62181641 0.00021484 2.62181641 -1.40234375 2.74609375 C-3.64909732 2.82294976 -3.64909732 2.82294976 -4.6875 4.0625 C-6.35367115 4.10313832 -8.02138095 4.105221 -9.6875 4.0625 C-9.6875 3.0725 -9.6875 2.0825 -9.6875 1.0625 C-6.26517028 -0.07827657 -3.60076783 -0.03565117 0 0 Z " fill="#3C4453" transform="translate(379.6875,782.9375)"/>
<path d="M0 0 C0.33 0 0.66 0 1 0 C1 1.98 1 3.96 1 6 C0.34 6 -0.32 6 -1 6 C-1 7.65 -1 9.3 -1 11 C-1.66 11 -2.32 11 -3 11 C-3 11.99 -3 12.98 -3 14 C-3.66 14 -4.32 14 -5 14 C-5 14.99 -5 15.98 -5 17 C-5.99 17 -6.98 17 -8 17 C-6.66015608 13.31542922 -4.92669289 10.08021884 -2.953125 6.71484375 C-1.75106952 4.55212917 -0.8447317 2.32301218 0 0 Z " fill="#D1D3D6" transform="translate(240,418)"/>
<path d="M0 0 C1.1446875 -0.02578125 2.289375 -0.0515625 3.46875 -0.078125 C6.5 0.25 6.5 0.25 8.40625 1.765625 C8.7671875 2.25546875 9.128125 2.7453125 9.5 3.25 C8.92636719 3.09144531 8.35273438 2.93289062 7.76171875 2.76953125 C0.92033306 1.19802124 -4.36613222 2.18090695 -10.5546875 5.375 C-12.5 6.25 -12.5 6.25 -15.5 6.25 C-10.17228817 1.63264975 -7.24855091 0.09795339 0 0 Z " fill="#969AA2" transform="translate(305.5,215.75)"/>
<path d="M0 0 C-0.33 0.99 -0.66 1.98 -1 3 C-3.12472576 3.05386629 -5.24983652 3.09273071 -7.375 3.125 C-9.15003906 3.15980469 -9.15003906 3.15980469 -10.9609375 3.1953125 C-14 3 -14 3 -16 1 C-10.61509359 0.08342019 -5.45769811 -0.11138159 0 0 Z " fill="#2A3141" transform="translate(502,352)"/>
<path d="M0 0 C-0.33 0.66 -0.66 1.32 -1 2 C-1.99 2 -2.98 2 -4 2 C-4 2.66 -4 3.32 -4 4 C-8.53701494 5.45184478 -12.18061476 6.23509196 -17 6 C-13.96503913 3.49723606 -11.06804717 2.08387688 -7.375 0.75 C-6.41335938 0.39421875 -5.45171875 0.0384375 -4.4609375 -0.328125 C-2 -1 -2 -1 0 0 Z " fill="#9DA0A8" transform="translate(411,251)"/>
<path d="M0 0 C2 2 2 2 2.1875 4.5625 C2 7 2 7 1 8 C0.7834375 9.7325 0.7834375 9.7325 0.5625 11.5 C0.376875 12.655 0.19125 13.81 0 15 C-0.99 15.495 -0.99 15.495 -2 16 C-3.3805087 12.23331402 -2.59568159 9.55210827 -1.5625 5.75 C-1.27503906 4.67234375 -0.98757813 3.5946875 -0.69140625 2.484375 C-0.46324219 1.66453125 -0.23507812 0.8446875 0 0 Z " fill="#262F3E" transform="translate(355,466)"/>
<path d="M0 0 C0.66 0 1.32 0 2 0 C1.51675181 5.15464734 -1.18610761 8.81550319 -4 13 C-4.99 12.67 -5.98 12.34 -7 12 C-5.88407791 9.99492073 -4.75701288 7.99603904 -3.625 6 C-2.68527344 4.329375 -2.68527344 4.329375 -1.7265625 2.625 C-1.15679687 1.75875 -0.58703125 0.8925 0 0 Z " fill="#202838" transform="translate(374,427)"/>
<path d="M0 0 C0.33 0.99 0.66 1.98 1 3 C-1.97 6.3 -4.94 9.6 -8 13 C-8.99 12.67 -9.98 12.34 -11 12 C-7.37 8.04 -3.74 4.08 0 0 Z " fill="#202839" transform="translate(806,351)"/>
<path d="M0 0 C0.33 0.99 0.66 1.98 1 3 C-5.07439825 7.90153173 -5.07439825 7.90153173 -8.9375 8.3125 C-9.9584375 8.1578125 -9.9584375 8.1578125 -11 8 C-11.33 7.34 -11.66 6.68 -12 6 C-11.30132812 5.73445312 -10.60265625 5.46890625 -9.8828125 5.1953125 C-8.97273438 4.84210937 -8.06265625 4.48890625 -7.125 4.125 C-6.22007812 3.77695312 -5.31515625 3.42890625 -4.3828125 3.0703125 C-1.87782993 2.11469105 -1.87782993 2.11469105 0 0 Z " fill="#1F2739" transform="translate(320,823)"/>
<path d="M0 0 C0.66 0 1.32 0 2 0 C1.25 7.75 1.25 7.75 -1 10 C-1.69748583 11.31747324 -2.36959957 12.64914193 -3 14 C-4.37095624 10.30962722 -3.60010967 8.29116165 -2.0625 4.75 C-1.68222656 3.85796875 -1.30195312 2.9659375 -0.91015625 2.046875 C-0.60980469 1.37140625 -0.30945313 0.6959375 0 0 Z " fill="#1D2738" transform="translate(784,631)"/>
<path d="M0 0 C1.25127906 3.54667178 0.72285053 5.72253438 -0.4375 9.25 C-0.72496094 10.14203125 -1.01242187 11.0340625 -1.30859375 11.953125 C-1.53675781 12.62859375 -1.76492188 13.3040625 -2 14 C-4 11 -4 11 -3.8125 8.125 C-2.98580683 4.94541088 -1.83180644 2.70788778 0 0 Z " fill="#242D3D" transform="translate(783,378)"/>
<path d="M0 0 C0 0.33 0 0.66 0 1 C-1.98 1 -3.96 1 -6 1 C-6 1.66 -6 2.32 -6 3 C-7.62463842 3.05395478 -9.24978541 3.09277195 -10.875 3.125 C-11.77992188 3.14820313 -12.68484375 3.17140625 -13.6171875 3.1953125 C-16 3 -16 3 -18 1 C-11.96445452 0.30739642 -6.07593562 -0.11251733 0 0 Z " fill="#49505E" transform="translate(390,259)"/>
<path d="M0 0 C0.66 0.33 1.32 0.66 2 1 C1.60404157 2.48484412 1.18249294 3.9628831 0.75 5.4375 C0.51796875 6.26121094 0.2859375 7.08492187 0.046875 7.93359375 C-1 10 -1 10 -3.109375 10.78515625 C-3.73328125 10.85605469 -4.3571875 10.92695312 -5 11 C-4.54658132 9.72740489 -4.08704773 8.45698757 -3.625 7.1875 C-3.36976563 6.47980469 -3.11453125 5.77210938 -2.8515625 5.04296875 C-2 3 -2 3 0 0 Z " fill="#252E3E" transform="translate(792,613)"/>
<path d="M0 0 C0.33 0.99 0.66 1.98 1 3 C-0.26691507 3.67408308 -1.53870749 4.33900497 -2.8125 5 C-3.52019531 5.37125 -4.22789062 5.7425 -4.95703125 6.125 C-7 7 -7 7 -10 7 C-10 6.34 -10 5.68 -10 5 C-6.7 3.35 -3.4 1.7 0 0 Z " fill="#1D2535" transform="translate(443,367)"/>
<path d="M0 0 C0.99 0.33 1.98 0.66 3 1 C1.68 3.64 0.36 6.28 -1 9 C-1.99 8.67 -2.98 8.34 -4 8 C-2.68 5.36 -1.36 2.72 0 0 Z " fill="#1E2637" transform="translate(366,441)"/>
<path d="M0 0 C0.33 0.99 0.66 1.98 1 3 C-0.9375 6.1875 -0.9375 6.1875 -3 9 C-3.99 8.67 -4.98 8.34 -6 8 C-4.26440562 4.942048 -2.61527381 2.36620011 0 0 Z " fill="#262E3F" transform="translate(606,799)"/>
<path d="M0 0 C0.33 0.66 0.66 1.32 1 2 C0.67 2.99 0.34 3.98 0 5 C-0.66 5 -1.32 5 -2 5 C-2 5.66 -2 6.32 -2 7 C-2.99 7 -3.98 7 -5 7 C-5.33 7.99 -5.66 8.98 -6 10 C-6.33 9.34 -6.66 8.68 -7 8 C-4.69 5.36 -2.38 2.72 0 0 Z " fill="#9CA0A7" transform="translate(213,701)"/>
<path d="M0 0 C0.33 0.99 0.66 1.98 1 3 C-4.625 7 -4.625 7 -8 7 C-8 6.34 -8 5.68 -8 5 C-6.25 3.7109375 -6.25 3.7109375 -4 2.375 C-3.2575 1.92898438 -2.515 1.48296875 -1.75 1.0234375 C-1.1725 0.68570312 -0.595 0.34796875 0 0 Z " fill="#212939" transform="translate(431,373)"/>
<path d="M0 0 C1.8871875 0.061875 1.8871875 0.061875 3.8125 0.125 C2.8225 1.61 2.8225 1.61 1.8125 3.125 C-1.1575 2.795 -4.1275 2.465 -7.1875 2.125 C-4.09861478 0.06574319 -3.47814073 -0.1140374 0 0 Z " fill="#2D3545" transform="translate(818.1875,601.875)"/>
<path d="M0 0 C0 0.99 0 1.98 0 3 C-5.2734375 6.22265625 -5.2734375 6.22265625 -7 7 C-7.66 6.67 -8.32 6.34 -9 6 C-7.8803014 4.99406757 -6.7540588 3.9954151 -5.625 3 C-4.68527344 2.1646875 -4.68527344 2.1646875 -3.7265625 1.3125 C-2 0 -2 0 0 0 Z " fill="#A8ABB2" transform="translate(677,246)"/>
<path d="M0 0 C0.66 0.33 1.32 0.66 2 1 C-0.74395564 3.94721162 -3.38337216 6.19168608 -7 8 C-7.66 7.67 -8.32 7.34 -9 7 C-3.51752022 1.21293801 -3.51752022 1.21293801 0 0 Z " fill="#9B9EA5" transform="translate(710,218)"/>
<path d="M0 0 C1.7492214 -0.08142927 3.49954542 -0.13938541 5.25 -0.1875 C6.22453125 -0.22230469 7.1990625 -0.25710937 8.203125 -0.29296875 C11.37468742 0.03924798 12.67040307 0.88672279 15 3 C13.02 3 11.04 3 9 3 C9 2.34 9 1.68 9 1 C5.7 1.33 2.4 1.66 -1 2 C-0.67 1.34 -0.34 0.68 0 0 Z " fill="#999DA5" transform="translate(716,216)"/>
<path d="M0 0 C0.99 0.33 1.98 0.66 3 1 C3 3.97 3 6.94 3 10 C2.34 10 1.68 10 1 10 C0.67 6.7 0.34 3.4 0 0 Z " fill="#1D2637" transform="translate(594,199)"/>
<path d="M0 0 C0 0.66 0 1.32 0 2 C-6.0546875 2.1953125 -6.0546875 2.1953125 -8 2 C-8.66 1.34 -9.32 0.68 -10 0 C-6.30458414 -0.95024979 -3.69541586 -0.95024979 0 0 Z " fill="#2A3141" transform="translate(486,355)"/>
<path d="M0 0 C0.99 0.66 1.98 1.32 3 2 C-0.44450737 4.29633824 -2.93812283 4.54016485 -7 5 C-7.33 4.34 -7.66 3.68 -8 3 C-6.73637508 2.44172391 -5.4637081 1.90387903 -4.1875 1.375 C-3.47980469 1.07335937 -2.77210938 0.77171875 -2.04296875 0.4609375 C-1.36878906 0.30882812 -0.69460938 0.15671875 0 0 Z " fill="#283043" transform="translate(732,825)"/>
<path d="M0 0 C0.66 0.33 1.32 0.66 2 1 C-1.32307692 5.8 -1.32307692 5.8 -4.75 6.8125 C-5.4925 6.874375 -6.235 6.93625 -7 7 C-4.66666667 4.66666667 -2.33333333 2.33333333 0 0 Z " fill="#A7AAB1" transform="translate(616,645)"/>
<path d="M0 0 C0 3 0 3 -1 6 C-1.66 6 -2.32 6 -3 6 C-3 6.99 -3 7.98 -3 9 C-3.99 9 -4.98 9 -6 9 C-5.34 7.35 -4.68 5.7 -4 4 C-3.34 4 -2.68 4 -2 4 C-1.34 2.68 -0.68 1.36 0 0 Z " fill="#A5A8AF" transform="translate(646,614)"/>
<path d="M0 0 C4.41889613 1.35021826 6.34345343 3.26115668 9 7 C7.02 6.34 5.04 5.68 3 5 C3 4.34 3 3.68 3 3 C2.34 3 1.68 3 1 3 C0.67 2.01 0.34 1.02 0 0 Z " fill="#BDC0C5" transform="translate(340,238)"/>
<path d="M0 0 C0.9681648 3.8726592 1.07622858 7.03611362 1 11 C0.01 10.67 -0.98 10.34 -2 10 C-1.34 6.7 -0.68 3.4 0 0 Z " fill="#404756" transform="translate(592,869)"/>
<path d="M0 0 C0.33 0.99 0.66 1.98 1 3 C0.01 4.485 0.01 4.485 -1 6 C-3.625 6.1875 -3.625 6.1875 -6 6 C-4 4 -2 2 0 0 Z " fill="#232B3C" transform="translate(351,797)"/>
<path d="M0 0 C2 2 2 2 2 5 C2.66 5 3.32 5 4 5 C4 7.31 4 9.62 4 12 C3.33333333 10.66666667 2.66666667 9.33333333 2 8 C1.62875 7.34 1.2575 6.68 0.875 6 C0 4 0 4 0 0 Z " fill="#90959D" transform="translate(669,462)"/>
<path d="M0 0 C0 0.99 0 1.98 0 3 C-2 4.6875 -2 4.6875 -4 6 C-3.6875 4.125 -3.6875 4.125 -3 2 C-2.01 1.34 -1.02 0.68 0 0 Z M-7 7 C-6.34 7.33 -5.68 7.66 -5 8 C-6.98 8.99 -6.98 8.99 -9 10 C-8.34 9.01 -7.68 8.02 -7 7 Z " fill="#EEEFF0" transform="translate(228,285)"/>
<path d="M0 0 C0.33 0.99 0.66 1.98 1 3 C-0.32 4.32 -1.64 5.64 -3 7 C-3.99 6.67 -4.98 6.34 -6 6 C-4 4 -2 2 0 0 Z " fill="#252C3D" transform="translate(358,791)"/>
<path d="M0 0 C1.125 3.75 1.125 3.75 0 6 C-1.64363134 6.72159424 -3.31050386 7.39351421 -5 8 C-3.62845496 5.04590299 -2.01136276 2.55991624 0 0 Z " fill="#9FA3AA" transform="translate(227,683)"/>
<path d="M0 0 C0.66 0.66 1.32 1.32 2 2 C0.02 3.32 -1.96 4.64 -4 6 C-4.66 5.67 -5.32 5.34 -6 5 C-4.02 3.35 -2.04 1.7 0 0 Z " fill="#242C3D" transform="translate(799,607)"/>
<path d="M0 0 C0.66 0.33 1.32 0.66 2 1 C1.67 3.31 1.34 5.62 1 8 C0.01 7.67 -0.98 7.34 -2 7 C-1.34 4.69 -0.68 2.38 0 0 Z " fill="#293141" transform="translate(360,453)"/>
<path d="M0 0 C0 3.61029169 -0.96092582 6.55806676 -2 10 C-2.99 10 -3.98 10 -5 10 C-3.66511872 6.40608886 -2.03977277 3.24509304 0 0 Z " fill="#838791" transform="translate(237,425)"/>
<path d="M0 0 C3.14191424 1.53604696 6.08596738 3.05731159 9 5 C8.67 5.66 8.34 6.32 8 7 C6.68 6.67 5.36 6.34 4 6 C4 5.01 4 4.02 4 3 C2.68 2.67 1.36 2.34 0 2 C0 1.34 0 0.68 0 0 Z " fill="#A4A8AF" transform="translate(321,223)"/>
<path d="M0 0 C0 0.99 0 1.98 0 3 C-1.65 3.66 -3.3 4.32 -5 5 C-5.66 4.34 -6.32 3.68 -7 3 C-4.69 2.01 -2.38 1.02 0 0 Z " fill="#262E41" transform="translate(630,787)"/>
<path d="M0 0 C-1.62366466 3.24732932 -4.75387839 3.70155136 -8 5 C-7.625 3.0625 -7.625 3.0625 -7 1 C-4.53721199 -0.231394 -2.7204945 -0.07159196 0 0 Z " fill="#20293A" transform="translate(369,787)"/>
<path d="M0 0 C0 0.66 0 1.32 0 2 C-2.31 2.33 -4.62 2.66 -7 3 C-7 2.34 -7 1.68 -7 1 C-4.53721199 -0.231394 -2.7204945 -0.07159196 0 0 Z " fill="#293143" transform="translate(644,783)"/>
<path d="M0 0 C0.66 0.99 1.32 1.98 2 3 C1.01 4.98 0.02 6.96 -1 9 C-1.66 8.01 -2.32 7.02 -3 6 C-2.01 4.02 -1.02 2.04 0 0 Z " fill="#242C3E" transform="translate(881,582)"/>
<path d="M0 0 C0.33 0.99 0.66 1.98 1 3 C-0.25 4.5625 -0.25 4.5625 -2 6 C-4.1875 5.6875 -4.1875 5.6875 -6 5 C-4.02 3.35 -2.04 1.7 0 0 Z " fill="#28303F" transform="translate(413,385)"/>
<path d="M0 0 C-5.625 2.125 -5.625 2.125 -9 1 C-5.66794923 -2.33205077 -3.95714908 -2.63809939 0 0 Z " fill="#2C3443" transform="translate(463,362)"/>
<path d="M0 0 C1.33332095 2.6666419 0.67102033 4.16680303 0 7 C-0.66 7 -1.32 7 -2 7 C-2.33 8.32 -2.66 9.64 -3 11 C-3.32613618 6.32538149 -2.70582788 3.83325617 0 0 Z " fill="#AEB1B7" transform="translate(439,159)"/>
</svg>
