<?xml version="1.0" encoding="UTF-8"?>
<svg version="1.1" xmlns="http://www.w3.org/2000/svg" width="1024" height="1024">
<path d="M0 0 C337.92 0 675.84 0 1024 0 C1024 337.92 1024 675.84 1024 1024 C686.08 1024 348.16 1024 0 1024 C0 686.08 0 348.16 0 0 Z " fill="#344256" transform="translate(0,0)"/>
<path d="M0 0 C0.99662155 -0.00860046 1.9932431 -0.01720093 3.02006531 -0.02606201 C4.67423965 -0.03245193 4.67423965 -0.03245193 6.36183167 -0.03897095 C8.09359901 -0.05123718 8.09359901 -0.05123718 9.86035156 -0.06375122 C13.70271783 -0.08867561 17.54504686 -0.10514353 21.38746643 -0.11953735 C22.69797533 -0.12486103 24.00848423 -0.13018471 25.35870552 -0.13566971 C30.87031198 -0.15731539 36.38191548 -0.17604685 41.89355373 -0.1872921 C49.78164014 -0.20349204 57.66923076 -0.23655284 65.55713028 -0.29369295 C71.10715456 -0.33251708 76.65704702 -0.35194007 82.20720345 -0.35721266 C85.51876638 -0.36085239 88.82968279 -0.37525395 92.14112663 -0.4053154 C95.84658434 -0.43702104 99.55080451 -0.43699396 103.25636292 -0.42959595 C104.88321014 -0.45420395 104.88321014 -0.45420395 106.54292297 -0.47930908 C114.54355229 -0.41418864 121.2862243 1.39155685 127.30686092 6.90943336 C132.9407628 12.90407624 134.80067555 19.54791225 135.45387268 27.59140015 C135.531297 28.42542358 135.60872131 29.25944702 135.68849182 30.1187439 C136.18763472 35.79215018 136.53595843 41.47172028 136.85231018 47.1578064 C136.91209297 48.20538368 136.91209297 48.20538368 136.9730835 49.27412415 C137.17139051 52.76011717 137.35726884 56.24582814 137.51856995 59.73373413 C138.08445042 70.24897576 138.80282073 80.58878262 145.39137268 89.15390015 C145.72137268 90.14390015 146.05137268 91.13390015 146.39137268 92.15390015 C148.19576868 93.27425634 148.19576868 93.27425634 150.39137268 94.15390015 C151.49182922 94.68140869 151.49182922 94.68140869 152.61451721 95.21957397 C153.40970764 95.59622192 154.20489807 95.97286987 155.02418518 96.3609314 C156.35836487 96.99418335 156.35836487 96.99418335 157.71949768 97.64022827 C159.56040915 98.51311855 161.40154901 99.38552733 163.24293518 100.25741577 C164.14012268 100.68345093 165.03731018 101.10948608 165.96168518 101.5484314 C166.86451233 101.97438599 167.76733948 102.40034058 168.69752502 102.83920288 C170.47804488 103.70816241 172.24001572 104.61632335 173.97975159 105.56430054 C179.62880698 108.61859806 184.10493061 109.91524502 190.51637268 109.96640015 C191.28207581 109.99153687 192.04777893 110.01667358 192.83668518 110.04257202 C194.68771592 110.10041673 196.53958911 110.1302695 198.39137268 110.15390015 C198.39137268 109.49390015 198.39137268 108.83390015 198.39137268 108.15390015 C199.71137268 108.15390015 201.03137268 108.15390015 202.39137268 108.15390015 C202.39137268 107.49390015 202.39137268 106.83390015 202.39137268 106.15390015 C202.95984924 105.86257202 203.52832581 105.5712439 204.11402893 105.27108765 C211.27084015 101.4716453 216.68379939 97.28893288 221.82887268 91.02890015 C224.7400417 87.58902105 227.40530415 85.87643732 231.48512268 84.0640564 C237.07910406 81.39315955 240.84703714 76.62969237 244.68043518 71.9234314 C246.51820571 70.02272352 247.92154038 69.07653865 250.39137268 68.15390015 C251.71137268 68.15390015 253.03137268 68.15390015 254.39137268 68.15390015 C254.72137268 67.16390015 255.05137268 66.17390015 255.39137268 65.15390015 C267.70355581 64.54281753 274.05718665 67.29310135 283.39137268 75.15390015 C286.83567436 78.33776757 290.15296731 81.63476486 293.45387268 84.96640015 C294.31947815 85.82427124 295.18508362 86.68214233 296.07691956 87.56600952 C297.3018512 88.79480835 297.3018512 88.79480835 298.55152893 90.0484314 C299.29024231 90.78940063 300.02895569 91.53036987 300.79005432 92.29379272 C302.39137268 94.15390015 302.39137268 94.15390015 302.39137268 96.15390015 C302.95759338 96.39632446 303.52381409 96.63874878 304.10719299 96.88851929 C308.81340618 99.49564872 312.37121667 103.80732184 316.14137268 107.59140015 C317.47361877 108.89947632 317.47361877 108.89947632 318.83277893 110.23397827 C319.67195862 111.07251343 320.51113831 111.91104858 321.37574768 112.7749939 C322.14628479 113.54255005 322.9168219 114.3101062 323.71070862 115.10092163 C325.39137268 117.15390015 325.39137268 117.15390015 325.39137268 120.15390015 C326.05137268 120.15390015 326.71137268 120.15390015 327.39137268 120.15390015 C327.39137268 120.81390015 327.39137268 121.47390015 327.39137268 122.15390015 C327.99038391 122.2511438 328.58939514 122.34838745 329.20655823 122.44857788 C331.86753124 123.30761811 332.62687864 124.26012237 334.34840393 126.4390564 C337.50725059 130.22141507 340.86738275 133.66493217 344.40309143 137.0874939 C345.50146248 138.15969421 346.59976876 139.23196088 347.69801331 140.30429077 C349.39049854 141.95356153 351.08637484 143.59858602 352.79298401 145.23324585 C359.85888866 152.01533853 365.99965184 157.94969817 367.92262268 167.90390015 C367.74849381 180.44117908 360.83442019 187.54574981 352.88697815 196.45223999 C350.77338866 198.85702595 348.77009214 201.34478713 346.76637268 203.84140015 C343.74347306 207.57492716 340.59888889 211.13502425 337.32887268 214.65390015 C328.38956612 224.38812165 321.53632161 232.67670141 321.68434143 246.29452515 C322.33838168 252.69998884 324.68245246 258.60901571 326.95387268 264.59140015 C327.57987366 266.2614209 327.57987366 266.2614209 328.21852112 267.96517944 C332.07902894 277.59545224 336.87378969 284.66447421 346.39137268 289.15390015 C348.66123162 289.91430587 348.66123162 289.91430587 350.39137268 290.15390015 C350.39137268 290.81390015 350.39137268 291.47390015 350.39137268 292.15390015 C351.65594299 292.14229858 352.92051331 292.13069702 354.22340393 292.1187439 C355.88355871 292.10936449 357.54371508 292.10026445 359.20387268 292.09140015 C360.03725159 292.08302124 360.87063049 292.07464233 361.72926331 292.06600952 C362.53170471 292.06278687 363.33414612 292.05956421 364.16090393 292.0562439 C365.2684906 292.04838867 365.2684906 292.04838867 366.39845276 292.04037476 C368.39137268 292.15390015 368.39137268 292.15390015 371.39137268 293.15390015 C373.38201708 293.30376425 375.37672659 293.40218052 377.37184143 293.4703064 C378.53522034 293.51220093 379.69859924 293.55409546 380.89723206 293.59725952 C382.71964417 293.65623413 382.71964417 293.65623413 384.57887268 293.71640015 C385.80541565 293.75958374 387.03195862 293.80276733 388.29566956 293.84725952 C391.32745649 293.95343105 394.35932583 294.05547967 397.39137268 294.15390015 C397.39137268 294.81390015 397.39137268 295.47390015 397.39137268 296.15390015 C398.23699768 296.08429077 399.08262268 296.0146814 399.95387268 295.94296265 C406.96655786 295.60826631 411.48627559 295.71619185 416.81324768 300.5171814 C417.59441956 301.32735718 417.59441956 301.32735718 418.39137268 302.15390015 C419.15449768 302.93765015 419.91762268 303.72140015 420.70387268 304.52890015 C425.28456823 311.65442656 425.82902278 318.03474458 425.77955627 326.29232788 C425.78481323 327.38119293 425.79007019 328.47005798 425.79548645 329.59191895 C425.80863768 333.17392529 425.79996469 336.7554834 425.78981018 340.3374939 C425.79183245 342.83798813 425.79474517 345.33848178 425.79850769 347.838974 C425.80348927 353.74251394 425.7930247 359.64589266 425.77705538 365.54940897 C425.76579747 370.24486777 425.76977306 374.94013782 425.78248596 379.6355896 C425.79991169 386.12876396 425.80258546 392.62175655 425.79281998 399.11494637 C425.79082431 401.58320216 425.79325488 404.05146578 425.80025864 406.51971245 C425.80791235 409.9753742 425.79621294 413.43045889 425.77955627 416.88607788 C425.78562897 417.89778549 425.79170166 418.9094931 425.79795837 419.95185852 C425.71560155 429.21621726 423.85199473 436.57896433 417.42652893 443.42733765 C411.92910502 448.09117905 404.95153094 450.102031 397.85743713 450.51107788 C396.96583389 450.56460922 396.07423065 450.61814056 395.15560913 450.67329407 C394.19829391 450.72748001 393.2409787 450.78166595 392.25465393 450.8374939 C390.21232478 450.96165485 388.17000744 451.08601 386.12770081 451.21054077 C382.91992572 451.40185596 379.71205064 451.59092782 376.50392151 451.7762146 C373.39958476 451.95699163 370.29589122 452.14673661 367.19215393 452.3374939 C366.24495987 452.38965561 365.29776581 452.44181732 364.3218689 452.49555969 C356.63057922 452.97603855 348.95937841 453.74457015 342.20387268 457.71640015 C341.42656799 458.15081421 340.64926331 458.58522827 339.84840393 459.0328064 C332.83962428 465.08331093 329.6430162 473.6672963 326.51637268 482.15390015 C326.11418518 483.18257202 325.71199768 484.2112439 325.29762268 485.27108765 C321.62520631 495.0891804 321.09521302 503.42527772 325.39137268 513.15390015 C327.42152099 516.41842876 329.8934381 519.23825075 332.39137268 522.15390015 C333.44380688 523.43533306 334.49300704 524.71942563 335.53981018 526.00546265 C341.18638172 532.93170146 346.90806654 539.78091559 352.76637268 546.52890015 C367.47596746 563.5253621 367.47596746 563.5253621 367.76637268 573.77890015 C367.81535706 574.94679077 367.86434143 576.1146814 367.91481018 577.31796265 C366.68232282 586.35007149 360.56802367 592.55718225 354.29981995 598.73129272 C353.49918121 599.53572815 352.69854248 600.34016357 351.87364197 601.16897583 C349.2446689 603.80531258 346.60165429 606.42704662 343.95777893 609.0484314 C342.11768827 610.88613549 340.27833891 612.72458212 338.43969727 614.56373596 C334.59339891 618.40691364 330.74075092 622.2435418 326.88233948 626.07455444 C322.43186186 630.49354387 317.99196209 634.92293762 313.5579353 639.35842973 C309.27583553 643.64175307 304.98793168 647.91920219 300.69705009 652.19373131 C298.87821827 654.0062081 297.06058702 655.81989052 295.24418831 657.63480568 C292.70521546 660.16943466 290.15976054 662.69736555 287.61231995 665.22348022 C286.49229332 666.34486641 286.49229332 666.34486641 285.34963989 667.48890686 C278.3894408 674.36421814 272.22454463 678.9305025 262.07887268 679.59140015 C251.33148172 679.2289249 243.60269458 671.26862929 235.97877502 664.53964233 C232.7479621 661.71926488 229.39819402 659.04259837 226.07106018 656.3374939 C224.25675845 654.85907601 222.44964025 653.37180612 220.64918518 651.8765564 C205.11251998 638.14910013 205.11251998 638.14910013 185.62574768 633.61483765 C178.44867204 634.81101692 171.94267373 638.10276697 165.39137268 641.15390015 C164.65531799 641.48518921 163.91926331 641.81647827 163.16090393 642.1578064 C153.046412 646.72275408 145.46880535 650.55403998 141.04493713 661.21859741 C139.9291222 664.52269339 139.65951937 667.88901146 139.39137268 671.34140015 C139.31725159 672.16293579 139.24313049 672.98447144 139.16676331 673.8309021 C138.69703014 679.14217499 138.28681733 684.45847055 137.86305237 689.77357483 C137.60586848 692.98831156 137.34504487 696.20275167 137.08473206 699.41723633 C136.8944688 701.80258377 136.71277983 704.18847214 136.53199768 706.57455444 C135.459724 720.32789652 134.28897946 730.01920903 123.58668518 739.63827515 C117.39256126 743.9146454 110.68144638 743.45024827 103.45436096 743.44442749 C102.2568924 743.45114471 101.05942383 743.45786194 99.82566833 743.46478271 C96.55282379 743.48049262 93.28013182 743.48713578 90.00725412 743.48841429 C87.95917464 743.48983939 85.91112148 743.49411576 83.86304855 743.49940872 C76.7085731 743.5178906 69.55417199 743.52608157 62.39967346 743.52450562 C55.7455838 743.52330442 49.0918186 743.54440696 42.43781102 743.57599294 C36.71190695 743.60219835 30.9861086 743.61287115 25.26014507 743.6115948 C21.84601914 743.61108645 18.43218184 743.61669859 15.018116 743.6379509 C11.20752875 743.65757303 7.39777448 743.65178662 3.58717346 743.63973999 C2.46587036 743.650979 1.34456726 743.66221802 0.18928528 743.67379761 C-7.37381872 743.61312262 -12.61985964 742.44522122 -18.59690857 737.51327515 C-19.03390076 736.9821814 -19.47089294 736.45108765 -19.92112732 735.90390015 C-20.59595154 735.12272827 -20.59595154 735.12272827 -21.28440857 734.32577515 C-25.75357967 726.9958072 -26.09185246 720.17399733 -26.23362732 711.77890015 C-26.28448304 709.62516042 -26.33898117 707.47150261 -26.39768982 705.31796265 C-26.42403503 703.90184692 -26.42403503 703.90184692 -26.45091248 702.4571228 C-26.46201301 700.126241 -26.46201301 700.126241 -27.60862732 698.15390015 C-27.71392389 696.68645373 -27.76389291 695.21482019 -27.78440857 693.7437439 C-27.70979819 671.94913639 -27.70979819 671.94913639 -36.72801208 652.86019897 C-43.4183825 646.78996675 -52.27039083 643.32564231 -60.48362732 639.84140015 C-62.01116638 639.17914429 -62.01116638 639.17914429 -63.56956482 638.50350952 C-71.583772 635.06056393 -78.7457624 632.15594059 -87.40550232 635.10702515 C-95.38593619 638.7805582 -101.57948721 644.01225969 -108.06663513 649.79745483 C-110.33896596 651.79635763 -112.69059234 653.69177516 -115.04612732 655.59140015 C-118.72736865 658.57938581 -122.33162163 661.63831875 -125.90574646 664.75228882 C-144.40078415 680.83138597 -144.40078415 680.83138597 -156.25706482 680.4546814 C-169.60980612 678.74677263 -179.37529749 665.55115724 -188.29612732 656.59140015 C-189.19395935 655.6974353 -190.09179138 654.80347046 -191.01683044 653.88241577 C-192.33650818 652.56080444 -192.33650818 652.56080444 -193.68284607 651.2124939 C-194.85206604 650.04158203 -194.85206604 650.04158203 -196.04490662 648.84701538 C-198.01350189 646.77906238 -199.87457229 644.69188642 -201.72850037 642.52523804 C-205.94708405 637.6714462 -210.50692004 633.17317431 -215.0853157 628.66317749 C-216.65311623 627.11774706 -218.21662521 625.56808891 -219.77900696 624.0171814 C-224.21577776 619.61368548 -228.65681765 615.2145653 -233.10813904 610.82577515 C-235.84599646 608.12578054 -238.57630454 605.41834079 -241.30207443 602.70614624 C-242.33341402 601.68279654 -243.36751004 600.66221627 -244.40452957 599.6446228 C-259.14214756 585.17853651 -259.14214756 585.17853651 -259.74143982 576.15390015 C-259.71534669 569.47405825 -259.71534669 569.47405825 -258.60862732 566.15390015 C-257.61862732 566.15390015 -256.62862732 566.15390015 -255.60862732 566.15390015 C-255.68726013 565.42815796 -255.76589294 564.70241577 -255.84690857 563.9546814 C-255.53592721 560.29937589 -254.25614787 559.01417923 -251.79612732 556.34140015 C-251.08843201 555.55120483 -250.38073669 554.76100952 -249.65159607 553.9468689 C-247.60862732 552.15390015 -247.60862732 552.15390015 -244.60862732 552.15390015 C-244.33010925 551.56512085 -244.05159119 550.97634155 -243.76463318 550.36972046 C-241.9608773 546.91229948 -239.56246846 543.97180064 -237.17112732 540.90390015 C-236.68063904 540.25421265 -236.19015076 539.60452515 -235.68479919 538.93515015 C-234.39841118 537.28246272 -233.00942251 535.71080178 -231.60862732 534.15390015 C-230.61862732 534.15390015 -229.62862732 534.15390015 -228.60862732 534.15390015 C-228.56737732 533.32890015 -228.52612732 532.50390015 -228.48362732 531.65390015 C-227.29133281 526.88472213 -224.7003604 523.89489717 -221.60862732 520.15390015 C-218.52718189 516.47250493 -218.52718189 516.47250493 -216.60862732 512.15390015 C-215.61862732 512.15390015 -214.62862732 512.15390015 -213.60862732 512.15390015 C-213.55425727 509.29947262 -213.51477758 506.44609938 -213.48362732 503.59140015 C-213.4584906 502.39160522 -213.4584906 502.39160522 -213.43284607 501.16757202 C-213.39163332 496.11901024 -213.97141704 491.98621976 -215.60862732 487.15390015 C-216.12489685 485.49100952 -216.12489685 485.49100952 -216.65159607 483.79452515 C-220.30924463 472.95889732 -224.28205204 463.46959899 -234.30003357 457.2749939 C-239.36183819 454.8168925 -244.16028532 453.83165966 -249.74534607 453.3374939 C-250.41850861 453.27646988 -251.09167114 453.21544586 -251.78523254 453.15257263 C-253.95495988 452.95826147 -256.12544685 452.77472585 -258.29612732 452.59140015 C-259.79087128 452.45896712 -261.28558152 452.32615306 -262.78025818 452.19296265 C-271.44949151 451.43378198 -280.11853415 450.75569233 -288.82420349 450.62045288 C-297.48188261 450.36033285 -304.29396925 446.93650277 -310.60862732 441.15390015 C-314.46308779 436.21228415 -315.72108975 432.55088059 -315.76252747 426.38778687 C-315.77112793 425.43200241 -315.77972839 424.47621796 -315.78858948 423.49147034 C-315.79284943 422.44936905 -315.79710937 421.40726776 -315.80149841 420.33358765 C-315.81376465 418.67913383 -315.81376465 418.67913383 -315.82627869 416.99125671 C-315.85111039 413.33714334 -315.86764599 409.68306885 -315.88206482 406.02890015 C-315.8873885 404.77880157 -315.89271217 403.528703 -315.89819717 402.24072266 C-315.91942436 396.98205906 -315.93855212 391.72340127 -315.94981956 386.46470642 C-315.96601841 378.95623151 -315.99910101 371.44827732 -316.05622041 363.93999863 C-316.09980581 358.00588308 -316.11558659 352.07188164 -316.12195206 346.13760376 C-316.12864717 343.62434184 -316.14382348 341.11108697 -316.16784286 338.59793091 C-316.1996464 335.06801454 -316.19950723 331.53939235 -316.19212341 328.0093689 C-316.20852875 326.98346146 -316.22493408 325.95755402 -316.24183655 324.90055847 C-316.17752599 317.33694336 -314.53467984 310.68802243 -310.60862732 304.15390015 C-303.05126084 297.47169633 -296.85576466 295.71465321 -286.78050232 295.3296814 C-283.80420267 295.2741299 -283.80420267 295.2741299 -281.77708435 294.66049194 C-279.07331281 294.02884074 -276.51685211 293.95426715 -273.74143982 293.87265015 C-272.60835388 293.83526733 -271.47526794 293.79788452 -270.30784607 293.7593689 C-269.12835388 293.72456421 -267.94886169 293.68975952 -266.73362732 293.65390015 C-264.40278582 293.58466723 -262.07204699 293.51186707 -259.74143982 293.43515015 C-258.70906189 293.40485718 -257.67668396 293.37456421 -256.61302185 293.34335327 C-253.55442329 293.15048211 -250.62433275 292.68716513 -247.60862732 292.15390015 C-244.93052657 292.04193941 -242.29130046 292.10764716 -239.60862732 292.15390015 C-239.60862732 291.49390015 -239.60862732 290.83390015 -239.60862732 290.15390015 C-238.73851013 289.91606812 -238.73851013 289.91606812 -237.85081482 289.6734314 C-231.74648247 287.85019021 -226.69913797 285.8390952 -223.38987732 280.00546265 C-221.59727506 276.15136779 -220.15606451 272.39653839 -219.60862732 268.15390015 C-218.94862732 268.15390015 -218.28862732 268.15390015 -217.60862732 268.15390015 C-217.60862732 266.83390015 -217.60862732 265.51390015 -217.60862732 264.15390015 C-216.94862732 264.15390015 -216.28862732 264.15390015 -215.60862732 264.15390015 C-215.48487732 263.45265015 -215.36112732 262.75140015 -215.23362732 262.02890015 C-214.60862732 259.15390015 -214.60862732 259.15390015 -213.59300232 256.5640564 C-212.33631819 252.21054351 -212.24067576 248.22387986 -212.23362732 243.71640015 C-212.19688904 242.48566772 -212.19688904 242.48566772 -212.15940857 241.23007202 C-212.13110866 235.32010735 -213.38830826 232.086207 -216.60862732 227.15390015 C-216.60862732 226.49390015 -216.60862732 225.83390015 -216.60862732 225.15390015 C-217.18483826 225.0868689 -217.76104919 225.01983765 -218.35472107 224.95077515 C-221.50849785 223.83574835 -222.63397791 222.03886724 -224.67112732 219.40390015 C-225.45616638 218.41003296 -226.24120544 217.41616577 -227.05003357 216.3921814 C-227.67289246 215.59868286 -227.67289246 215.59868286 -228.30833435 214.78915405 C-230.5188421 212.00921021 -232.81186511 209.30017542 -235.10862732 206.59140015 C-235.57180359 206.04354858 -236.03497986 205.49569702 -236.51219177 204.9312439 C-239.39995308 201.53090116 -242.35283553 198.20106971 -245.35862732 194.90390015 C-253.6827287 185.72642866 -257.9487743 180.35951165 -257.90940857 167.6968689 C-257.50556668 162.93992616 -256.1593925 160.13947074 -253.60862732 156.15390015 C-252.94862732 156.15390015 -252.28862732 156.15390015 -251.60862732 156.15390015 C-251.60862732 155.49390015 -251.60862732 154.83390015 -251.60862732 154.15390015 C-250.28050232 152.8843689 -250.28050232 152.8843689 -248.35862732 151.34140015 C-244.44820284 148.03417944 -241.03360191 144.44570144 -237.60862732 140.65390015 C-233.70019815 136.33927329 -229.74391181 132.31291724 -225.27659607 128.5640564 C-222.91084726 126.56397368 -220.76943712 124.37157337 -218.60862732 122.15390015 C-218.11491638 121.69370483 -217.62120544 121.23350952 -217.11253357 120.7593689 C-213.34648625 117.19993764 -211.09305882 113.69441289 -208.60862732 109.15390015 C-206.98362732 107.21640015 -206.98362732 107.21640015 -205.60862732 106.15390015 C-204.94862732 106.15390015 -204.28862732 106.15390015 -203.60862732 106.15390015 C-203.60862732 105.49390015 -203.60862732 104.83390015 -203.60862732 104.15390015 C-202.88675232 103.76202515 -202.16487732 103.37015015 -201.42112732 102.96640015 C-198.1984158 100.88954161 -196.74815573 98.7675556 -194.72190857 95.5796814 C-194.35452576 95.10917358 -193.98714294 94.63866577 -193.60862732 94.15390015 C-192.94862732 94.15390015 -192.28862732 94.15390015 -191.60862732 94.15390015 C-191.60862732 93.49390015 -191.60862732 92.83390015 -191.60862732 92.15390015 C-190.61862732 91.82390015 -189.62862732 91.49390015 -188.60862732 91.15390015 C-186.92646766 89.53221902 -186.92646766 89.53221902 -185.29612732 87.52890015 C-184.68124451 86.80960327 -184.06636169 86.0903064 -183.43284607 85.34921265 C-182.29589172 83.98097208 -181.17116266 82.60236243 -180.06565857 81.20858765 C-177.53767091 78.07740722 -175.36576725 75.82321775 -171.79612732 73.90390015 C-168.33827954 72.47520353 -168.33827954 72.47520353 -167.60862732 69.15390015 C-162.25558193 65.28148433 -157.23556136 63.8536172 -150.60862732 64.15390015 C-147.7161555 64.88190403 -145.34666574 65.90497034 -142.60862732 67.15390015 C-141.61862732 67.48390015 -140.62862732 67.81390015 -139.60862732 68.15390015 C-139.60862732 68.81390015 -139.60862732 69.47390015 -139.60862732 70.15390015 C-138.55481873 70.49614624 -138.55481873 70.49614624 -137.47972107 70.8453064 C-134.03384205 72.41587711 -131.47279254 74.60347317 -128.67112732 77.09140015 C-124.01191504 81.13305368 -119.28654032 85.05015192 -114.42112732 88.84140015 C-113.54992249 89.52275024 -113.54992249 89.52275024 -112.66111755 90.21786499 C-109.94790416 92.33738329 -107.22805002 94.44783029 -104.50315857 96.55233765 C-103.58921326 97.26647827 -102.67526794 97.9806189 -101.73362732 98.71640015 C-100.93183044 99.33643921 -100.13003357 99.95647827 -99.30393982 100.5953064 C-98.74448669 101.10964233 -98.18503357 101.62397827 -97.60862732 102.15390015 C-97.60862732 102.81390015 -97.60862732 103.47390015 -97.60862732 104.15390015 C-97.07237732 104.25702515 -96.53612732 104.36015015 -95.98362732 104.46640015 C-92.98360688 105.33482712 -90.37067382 106.71010311 -87.60862732 108.15390015 C-87.60862732 108.81390015 -87.60862732 109.47390015 -87.60862732 110.15390015 C-84.87916872 110.01246183 -82.15014609 109.86590485 -79.42112732 109.71640015 C-78.65220154 109.67708374 -77.88327576 109.63776733 -77.09104919 109.59725952 C-73.17611657 109.3788298 -69.43742044 109.06697907 -65.60862732 108.15390015 C-65.60862732 107.49390015 -65.60862732 106.83390015 -65.60862732 106.15390015 C-64.28862732 106.15390015 -62.96862732 106.15390015 -61.60862732 106.15390015 C-61.60862732 105.49390015 -61.60862732 104.83390015 -61.60862732 104.15390015 C-57.9888933 102.83763323 -55.51295601 102.15390015 -51.60862732 102.15390015 C-51.60862732 101.49390015 -51.60862732 100.83390015 -51.60862732 100.15390015 C-50.28862732 100.15390015 -48.96862732 100.15390015 -47.60862732 100.15390015 C-47.60862732 99.49390015 -47.60862732 98.83390015 -47.60862732 98.15390015 C-46.98987732 98.05077515 -46.37112732 97.94765015 -45.73362732 97.84140015 C-43.24336248 97.27864642 -43.24336248 97.27864642 -41.60862732 94.15390015 C-41.01050232 94.05077515 -40.41237732 93.94765015 -39.79612732 93.84140015 C-36.17977321 92.70483171 -34.34993933 90.3744538 -32.60862732 87.15390015 C-31.61567974 83.75009218 -30.86308761 80.36434992 -30.18675232 76.8843689 C-29.60862732 74.15390015 -29.60862732 74.15390015 -28.60862732 73.15390015 C-28.46324364 71.48311197 -28.38143998 69.80669257 -28.32737732 68.13046265 C-28.28999451 67.10952515 -28.25261169 66.08858765 -28.21409607 65.03671265 C-28.16188904 63.42409546 -28.16188904 63.42409546 -28.10862732 61.77890015 C-28.03975401 59.66678526 -27.96700963 57.55479205 -27.88987732 55.44296265 C-27.85958435 54.50146362 -27.82929138 53.5599646 -27.79808044 52.5899353 C-27.60862732 50.15390015 -27.60862732 50.15390015 -26.60862732 47.15390015 C-26.46026784 45.38223039 -26.36092714 43.60622403 -26.29222107 41.8296814 C-26.25032654 40.80165405 -26.20843201 39.77362671 -26.16526794 38.71444702 C-26.10629333 37.10666382 -26.10629333 37.10666382 -26.04612732 35.46640015 C-26.00294373 34.38294312 -25.95976013 33.29948608 -25.91526794 32.18319702 C-25.80915894 29.50689224 -25.70710371 26.83049488 -25.60862732 24.15390015 C-24.94862732 24.15390015 -24.28862732 24.15390015 -23.60862732 24.15390015 C-23.70143982 22.57608765 -23.70143982 22.57608765 -23.79612732 20.96640015 C-23.59530749 16.88306355 -22.8628915 15.44859394 -20.60862732 12.15390015 C-20.29925232 11.30827515 -19.98987732 10.46265015 -19.67112732 9.59140015 C-18.34597724 6.55134995 -17.28710216 5.14558656 -14.60862732 3.15390015 C-12.26127897 2.46205011 -9.94441336 1.97047806 -7.53440857 1.5484314 C-4.57587933 0.94232297 -3.35691486 0.02147588 0 0 Z " fill="#FEFEFE" transform="translate(457.60862731933594,149.84609985351563)"/>
<path d="M0 0 C1.20515762 0.00406357 1.20515762 0.00406357 2.43466187 0.00820923 C15.55527454 0.07503748 28.08260572 1.05133155 40.8125 4.4375 C41.5358252 4.62473633 42.25915039 4.81197266 43.00439453 5.00488281 C65.14747215 10.89816801 86.24846141 21.77758249 103.8125 36.4375 C104.38452148 36.90414062 104.95654297 37.37078125 105.54589844 37.8515625 C121.64932601 50.99434899 136.39469645 66.73090391 145.8125 85.4375 C146.99983807 87.58342294 148.18735165 89.72924877 149.375 91.875 C156.8125 105.74317686 156.8125 105.74317686 156.8125 112.4375 C157.4725 112.4375 158.1325 112.4375 158.8125 112.4375 C159.01746094 113.36433594 159.22242188 114.29117188 159.43359375 115.24609375 C159.70300781 116.44363281 159.97242188 117.64117187 160.25 118.875 C160.65025391 120.66744141 160.65025391 120.66744141 161.05859375 122.49609375 C161.51316748 125.3079686 161.51316748 125.3079686 162.8125 126.4375 C163.13347751 128.75567089 163.32470956 131.07529357 163.53125 133.40625 C163.60315837 135.42930593 163.60315837 135.42930593 164.8125 136.4375 C164.98588518 138.78374976 165.09666352 141.10306316 165.1640625 143.453125 C165.19947144 144.53247818 165.19947144 144.53247818 165.2355957 145.63363647 C165.30952131 147.98477987 165.37446825 150.33604067 165.4375 152.6875 C165.45995789 153.48017273 165.48241577 154.27284546 165.5055542 155.08953857 C165.84867213 167.54582637 166.07373625 180.02132978 164.8125 192.4375 C164.4825 192.7675 164.1525 193.0975 163.8125 193.4375 C163.57962992 195.11933948 163.39985834 196.8087416 163.25 198.5 C163.16621094 199.41910156 163.08242188 200.33820313 162.99609375 201.28515625 C162.93550781 201.99542969 162.87492187 202.70570313 162.8125 203.4375 C162.1525 203.4375 161.4925 203.4375 160.8125 203.4375 C160.8125 205.7475 160.8125 208.0575 160.8125 210.4375 C160.1525 210.4375 159.4925 210.4375 158.8125 210.4375 C158.874375 212.0153125 158.874375 212.0153125 158.9375 213.625 C158.82102125 217.17760173 158.34041932 219.28616641 156.8125 222.4375 C156.1525 222.4375 155.4925 222.4375 154.8125 222.4375 C154.709375 223.076875 154.60625 223.71625 154.5 224.375 C153.57346927 228.50227326 152.19589371 232.44392949 150.8125 236.4375 C150.1525 236.4375 149.4925 236.4375 148.8125 236.4375 C148.8125 237.7575 148.8125 239.0775 148.8125 240.4375 C148.1525 240.4375 147.4925 240.4375 146.8125 240.4375 C146.709375 241.159375 146.60625 241.88125 146.5 242.625 C145.74456053 245.71543421 144.65718685 247.85493841 142.8125 250.4375 C142.1525 250.4375 141.4925 250.4375 140.8125 250.4375 C140.73 250.953125 140.6475 251.46875 140.5625 252 C137.86161267 260.77788382 131.15406226 267.14036718 124.8125 273.4375 C123.39540257 274.85373577 121.97878113 276.2704479 120.5625 277.6875 C111.0625 287.1875 111.0625 287.1875 108.81079102 289.43383789 C107.22398493 291.02490907 105.65390813 292.63266148 104.08984375 294.24609375 C100.04405118 298.1392149 95.39310504 301.21086792 90.8125 304.4375 C90.1834375 304.90027344 89.554375 305.36304688 88.90625 305.83984375 C85.80867044 308.06030257 84.81733007 308.4375 80.8125 308.4375 C80.8125 309.0975 80.8125 309.7575 80.8125 310.4375 C79.4925 310.4375 78.1725 310.4375 76.8125 310.4375 C76.8125 311.0975 76.8125 311.7575 76.8125 312.4375 C75.4925 312.4375 74.1725 312.4375 72.8125 312.4375 C72.8125 313.0975 72.8125 313.7575 72.8125 314.4375 C71.4925 314.4375 70.1725 314.4375 68.8125 314.4375 C68.8125 315.0975 68.8125 315.7575 68.8125 316.4375 C66.8325 316.4375 64.8525 316.4375 62.8125 316.4375 C62.8125 317.0975 62.8125 317.7575 62.8125 318.4375 C52.43892369 323.02975513 52.43892369 323.02975513 46.8125 322.4375 C46.8125 323.0975 46.8125 323.7575 46.8125 324.4375 C43.5125 324.4375 40.2125 324.4375 36.8125 324.4375 C36.8125 325.0975 36.8125 325.7575 36.8125 326.4375 C35.96945312 326.49808594 35.12640625 326.55867188 34.2578125 326.62109375 C32.61425781 326.74677734 32.61425781 326.74677734 30.9375 326.875 C29.84695313 326.95621094 28.75640625 327.03742188 27.6328125 327.12109375 C24.86521029 327.26751703 24.86521029 327.26751703 22.8125 328.4375 C21.39276727 328.52684406 19.96892209 328.55508978 18.54638672 328.55102539 C17.22524368 328.55091209 17.22524368 328.55091209 15.87741089 328.55079651 C14.92528717 328.54563522 13.97316345 328.54047394 12.9921875 328.53515625 C12.01839142 328.5337413 11.04459534 328.53232635 10.04129028 328.53086853 C6.92332927 328.52525973 3.8054394 328.51270573 0.6875 328.5 C-1.42317605 328.49498613 -3.53385322 328.49042303 -5.64453125 328.48632812 C-10.82554521 328.47528745 -16.00651752 328.45854073 -21.1875 328.4375 C-21.1875 327.7775 -21.1875 327.1175 -21.1875 326.4375 C-22.54875 326.5303125 -22.54875 326.5303125 -23.9375 326.625 C-28.55440381 326.63434596 -32.78363373 325.40437514 -37.21875 324.21875 C-39.66380274 323.57531507 -42.08276285 323.04364303 -44.5625 322.5625 C-56.70920984 319.85352155 -67.50788554 314.63424721 -78.1875 308.4375 C-78.85072266 308.05432617 -79.51394531 307.67115234 -80.19726562 307.27636719 C-89.40181159 301.89748822 -97.72158116 295.96525159 -105.640625 288.82861328 C-107.19486429 287.43087725 -108.76752567 286.05645003 -110.34375 284.68359375 C-140.74895824 257.90451989 -159.9640291 217.63898911 -163.1875 177.4375 C-165.828508 127.74083986 -148.91376515 85.95373097 -115.875 49.17578125 C-103.20119171 36.26249693 -88.264472 25.64037222 -72.1875 17.4375 C-71.59324219 17.12619141 -70.99898438 16.81488281 -70.38671875 16.49414062 C-62.61111381 12.45117087 -54.6353024 9.40694575 -46.3125 6.6875 C-45.46413574 6.40567871 -44.61577148 6.12385742 -43.74169922 5.83349609 C-29.30673302 1.30821659 -15.04260601 -0.11984972 0 0 Z " fill="#344256" transform="translate(511.1875,351.5625)"/>
<path d="M0 0 C0 0.33 0 0.66 0 1 C-1.98 1 -3.96 1 -6 1 C-6 1.66 -6 2.32 -6 3 C-6.88260498 3.02505615 -7.76520996 3.0501123 -8.67456055 3.07592773 C-11.96406615 3.1713353 -15.25341182 3.27055193 -18.54272461 3.37231445 C-19.96357775 3.41549804 -21.38447726 3.45718408 -22.80541992 3.49731445 C-24.8534947 3.55542095 -26.90133965 3.61899638 -28.94921875 3.68359375 C-30.17987061 3.72025146 -31.41052246 3.75690918 -32.6784668 3.79467773 C-35.56671106 3.97321602 -38.18091796 4.39039538 -41 5 C-44.76860704 5.22338615 -48.53618972 5.37878427 -52.30859375 5.5234375 C-56.16115946 6.02080577 -58.61085808 7.17620277 -62 9 C-62.99 9 -63.98 9 -65 9 C-65 9.66 -65 10.32 -65 11 C-65.78375 11.433125 -66.5675 11.86625 -67.375 12.3125 C-70.53577993 14.34442996 -71.02411819 15.42176668 -72 19 C-72.3813074 21.32597511 -72.72460254 23.65912158 -73 26 C-73.66 26 -74.32 26 -75 26 C-74.93934393 40.18691028 -74.8615645 54.37363922 -74.76428509 68.56034756 C-74.71960733 75.14821074 -74.6803452 81.73601244 -74.65356445 88.32397461 C-74.62750602 94.68480569 -74.58708492 101.04539988 -74.53681374 107.40608406 C-74.52016233 109.829652 -74.50863734 112.2532609 -74.50238609 114.67687798 C-74.49272655 118.07837481 -74.46464368 121.47926792 -74.43237305 124.88061523 C-74.43380814 125.87683899 -74.43524323 126.87306274 -74.4367218 127.8994751 C-74.36232535 133.46477791 -73.65584106 137.96008058 -71.54339314 143.12919712 C-71 145 -71 145 -72 148 C-75.02435802 143.26622223 -76.11634576 139.8194074 -76.15390015 134.23388672 C-76.16250061 133.27810226 -76.17110107 132.32231781 -76.17996216 131.33757019 C-76.18422211 130.2954689 -76.18848206 129.25336761 -76.19287109 128.1796875 C-76.20513733 126.52523369 -76.20513733 126.52523369 -76.21765137 124.83735657 C-76.24248307 121.18324319 -76.25901867 117.5291687 -76.2734375 113.875 C-76.27876118 112.62490143 -76.28408485 111.37480286 -76.28956985 110.08682251 C-76.31079704 104.82815892 -76.3299248 99.56950112 -76.34119225 94.31080627 C-76.3573911 86.80233136 -76.39047369 79.29437718 -76.44759309 71.78609848 C-76.49117849 65.85198293 -76.50695927 59.9179815 -76.51332474 53.98370361 C-76.52001985 51.47044169 -76.53519617 48.95718682 -76.55921555 46.44403076 C-76.59101908 42.91411439 -76.59087991 39.3854922 -76.58349609 35.85546875 C-76.59990143 34.82956131 -76.61630676 33.80365387 -76.63320923 32.74665833 C-76.56889867 25.18304321 -74.92605252 18.53412228 -71 12 C-63.44263353 5.31779618 -57.24713734 3.56075306 -47.171875 3.17578125 C-44.19557535 3.12022975 -44.19557535 3.12022975 -42.16845703 2.5065918 C-39.46468549 1.8749406 -36.90822479 1.800367 -34.1328125 1.71875 C-32.99972656 1.68136719 -31.86664063 1.64398438 -30.69921875 1.60546875 C-29.51972656 1.57066406 -28.34023437 1.53585937 -27.125 1.5 C-24.7941585 1.43076708 -22.46341967 1.35796692 -20.1328125 1.28125 C-19.10043457 1.25095703 -18.06805664 1.22066406 -17.00439453 1.18945312 C-11.21818761 0.82458261 -5.83033938 -0.10052309 0 0 Z " fill="#B4B9C1" transform="translate(218,442)"/>
<path d="M0 0 C9.36477423 1.50758676 18.68285855 3.22643247 28 5 C28 5.66 28 6.32 28 7 C34.2297985 6.88256379 40.45941685 6.75772966 46.68896484 6.62768555 C48.80937313 6.58430248 50.92981712 6.54262993 53.05029297 6.50268555 C56.09353408 6.44506457 59.1365949 6.38134675 62.1796875 6.31640625 C63.60787308 6.29133751 63.60787308 6.29133751 65.06491089 6.26576233 C65.94567291 6.24581711 66.82643494 6.22587189 67.73388672 6.20532227 C68.51110077 6.18977798 69.28831482 6.1742337 70.08908081 6.15821838 C72.08556935 6.11216749 72.08556935 6.11216749 74 5 C76.04055005 4.92934383 78.08334257 4.91578024 80.125 4.9375 C81.22070312 4.94652344 82.31640625 4.95554687 83.4453125 4.96484375 C84.70988281 4.98224609 84.70988281 4.98224609 86 5 C86 4.34 86 3.68 86 3 C88.64 3 91.28 3 94 3 C94 3.33 94 3.66 94 4 C92.02 4 90.04 4 88 4 C88 4.66 88 5.32 88 6 C87.15695312 6.06058594 86.31390625 6.12117187 85.4453125 6.18359375 C84.34960938 6.26738281 83.25390625 6.35117187 82.125 6.4375 C80.48917969 6.55931641 80.48917969 6.55931641 78.8203125 6.68359375 C76.05271029 6.83001703 76.05271029 6.83001703 74 8 C58.72184665 9.86656172 42.27417578 9.93919786 27 8 C26.67 7.67 26.34 7.34 26 7 C23.86917898 6.76324211 21.73804611 6.52897138 19.60546875 6.30859375 C12.62095755 5.4813428 6.35232347 4.03806775 0 1 C0 0.67 0 0.34 0 0 Z " fill="#C3C8CD" transform="translate(462,673)"/>
<path d="M0 0 C0.5625 1.9375 0.5625 1.9375 1 4 C0.67 4.33 0.34 4.66 0 5 C-0.38631609 7.7102488 -0.7143911 10.40367401 -1 13.125 C-1.08685059 13.92728027 -1.17370117 14.72956055 -1.26318359 15.55615234 C-2.04865512 23.02623707 -2.57970224 30.50100309 -3 38 C-3.66 38 -4.32 38 -5 38 C-4.98428955 38.71542969 -4.9685791 39.43085938 -4.95239258 40.16796875 C-4.88959253 43.44523039 -4.85086697 46.7223649 -4.8125 50 C-4.77479492 51.68802734 -4.77479492 51.68802734 -4.73632812 53.41015625 C-4.67825199 60.03083534 -5.1894807 64.98062008 -8 71 C-8.66 71 -9.32 71 -10 71 C-9.69217504 69.35328588 -9.37860766 67.70764424 -9.0625 66.0625 C-8.88847656 65.14597656 -8.71445312 64.22945313 -8.53515625 63.28515625 C-8 61 -8 61 -7 60 C-6.85461632 58.32921182 -6.77281266 56.65279243 -6.71875 54.9765625 C-6.68136719 53.955625 -6.64398438 52.9346875 -6.60546875 51.8828125 C-6.55326172 50.27019531 -6.55326172 50.27019531 -6.5 48.625 C-6.43112669 46.51288511 -6.35838231 44.40089191 -6.28125 42.2890625 C-6.25095703 41.34756348 -6.22066406 40.40606445 -6.18945312 39.43603516 C-6 37 -6 37 -5 34 C-4.85164052 32.22833025 -4.75229982 30.45232388 -4.68359375 28.67578125 C-4.64169922 27.64775391 -4.59980469 26.61972656 -4.55664062 25.56054688 C-4.51732422 24.48869141 -4.47800781 23.41683594 -4.4375 22.3125 C-4.37272461 20.68731445 -4.37272461 20.68731445 -4.30664062 19.02929688 C-4.20053162 16.35299209 -4.09847639 13.67659474 -4 11 C-3.34 11 -2.68 11 -2 11 C-2.061875 9.39125 -2.061875 9.39125 -2.125 7.75 C-2.0114175 4.34252515 -1.78726636 2.79260369 0 0 Z " fill="#CED2D6" transform="translate(436,163)"/>
<path d="M0 0 C0 3.93235469 -1.54945341 5.02964049 -4 8 C-4.33 8.99 -4.66 9.98 -5 11 C-5.66 11 -6.32 11 -7 11 C-7 12.32 -7 13.64 -7 15 C-7.66 15 -8.32 15 -9 15 C-9.18830948 27.57438133 -9.18830948 27.57438133 -3 38 C-3.33 38.66 -3.66 39.32 -4 40 C-5.15330947 38.42210402 -6.29737927 36.8374518 -7.4375 35.25 C-8.07558594 34.36828125 -8.71367187 33.4865625 -9.37109375 32.578125 C-12.66279903 27.36823176 -12.68951129 21.44755646 -11.5 15.5 C-11.335 15.005 -11.17 14.51 -11 14 C-10.01 14 -9.02 14 -8 14 C-8.0825 13.27425781 -8.165 12.54851563 -8.25 11.80078125 C-7.91950238 8.0981751 -6.53867299 6.84517328 -4 4.1875 C-2.88625 3.00220703 -2.88625 3.00220703 -1.75 1.79296875 C-0.88375 0.90544922 -0.88375 0.90544922 0 0 Z " fill="#AEB4BB" transform="translate(210,702)"/>
<path d="M0 0 C0.66 0 1.32 0 2 0 C3.4375 1.94140625 3.4375 1.94140625 5 4.5625 C5.515625 5.40941406 6.03125 6.25632812 6.5625 7.12890625 C9.39840266 12.79300531 10.25751377 18.17680321 10.4140625 24.46484375 C10.43342865 25.14301651 10.4527948 25.82118927 10.4727478 26.51991272 C10.53191999 28.65898566 10.57867519 30.79811428 10.625 32.9375 C10.66323745 34.39911036 10.70229242 35.86069957 10.7421875 37.32226562 C10.83756819 40.88131543 10.92182567 44.44052587 11 48 C8.56349923 45.56349923 8.75135054 44.92852498 8.7265625 41.58984375 C8.70875732 40.69015869 8.69095215 39.79047363 8.67260742 38.86352539 C8.64904175 37.41514282 8.64904175 37.41514282 8.625 35.9375 C8.399092 28.64585737 7.87274949 21.67129119 6.1875 14.5625 C6.0342627 13.89661865 5.88102539 13.2307373 5.72314453 12.54467773 C4.50848261 7.82146065 2.53150902 4.11303876 0 0 Z " fill="#C1C5CB" transform="translate(421,802)"/>
<path d="M0 0 C3 3 3 3 3.35644531 4.9453125 C3.34242676 6.02425781 3.34242676 6.02425781 3.328125 7.125 C3.32296875 7.91390625 3.3178125 8.7028125 3.3125 9.515625 C3.291875 10.33546875 3.27125 11.1553125 3.25 12 C3.24226562 13.22976563 3.24226562 13.22976563 3.234375 14.484375 C3.18881327 17.96984735 3.11216218 20.66351346 2 24 C1.77439324 26.39254576 1.59151405 28.78928123 1.4375 31.1875 C1.35371094 32.45980469 1.26992188 33.73210938 1.18359375 35.04296875 C1.09271484 36.50669922 1.09271484 36.50669922 1 38 C0.67 38 0.34 38 0 38 C0 25.46 0 12.92 0 0 Z " fill="#B2B7BE" transform="translate(676,505)"/>
<path d="M0 0 C7.59 0 15.18 0 23 0 C23 0.66 23 1.32 23 2 C24.32064453 1.93039062 24.32064453 1.93039062 25.66796875 1.859375 C26.82941406 1.82328125 27.99085938 1.7871875 29.1875 1.75 C30.33605469 1.70359375 31.48460937 1.6571875 32.66796875 1.609375 C36.60353399 2.07075428 38.17745787 3.29971488 41 6 C35.125 5.125 35.125 5.125 34 4 C32.65984779 3.84417697 31.31241097 3.74955858 29.96484375 3.68359375 C28.75151367 3.62075195 28.75151367 3.62075195 27.51367188 3.55664062 C26.66353516 3.51732422 25.81339844 3.47800781 24.9375 3.4375 C24.08349609 3.39431641 23.22949219 3.35113281 22.34960938 3.30664062 C20.23327963 3.20023298 18.11666187 3.09958269 16 3 C16 2.34 16 1.68 16 1 C10.72 1 5.44 1 0 1 C0 0.67 0 0.34 0 0 Z " fill="#C1C6CC" transform="translate(832,444)"/>
<path d="M0 0 C0.99 0.33 1.98 0.66 3 1 C3 1.66 3 2.32 3 3 C1.71996094 2.51273438 1.71996094 2.51273438 0.4140625 2.015625 C-3.11576543 0.96556177 -5.95412826 0.73280622 -9.625 0.75 C-11.28402344 0.74226562 -11.28402344 0.74226562 -12.9765625 0.734375 C-15.92727748 0.99361094 -17.46463525 1.58153602 -20 3 C-22.75 3.125 -22.75 3.125 -25 3 C-18.07945702 -4.86826065 -8.65720649 -3.49548296 0 0 Z " fill="#AEB3BB" transform="translate(315,217)"/>
<path d="M0 0 C5.67039996 1.70465295 10.67288424 4.27474432 15.90234375 6.99023438 C19.36658986 8.76240652 22.77481344 10.32713095 26.4453125 11.62890625 C30 13 30 13 31 15 C28.36 14.67 25.72 14.34 23 14 C23 13.34 23 12.68 23 12 C22.01 12 21.02 12 20 12 C20 11.34 20 10.68 20 10 C19.41734375 9.86078125 18.8346875 9.7215625 18.234375 9.578125 C11.5335794 7.84435271 5.5685537 5.11717534 0 1 C0 0.67 0 0.34 0 0 Z " fill="#ACB2BA" transform="translate(608,245)"/>
<path d="M0 0 C1.61352427 5.31865406 0.95798694 10.76040542 0.75 16.25 C0.70939453 17.91095703 0.70939453 17.91095703 0.66796875 19.60546875 C0.43045388 26.04901731 -0.33070178 31.11606307 -3 37 C-3.66 37 -4.32 37 -5 37 C-4.69217504 35.35328588 -4.37860766 33.70764424 -4.0625 32.0625 C-3.88847656 31.14597656 -3.71445312 30.22945312 -3.53515625 29.28515625 C-3 27 -3 27 -2 26 C-1.85461632 24.32921182 -1.77281266 22.65279243 -1.71875 20.9765625 C-1.66267578 19.44515625 -1.66267578 19.44515625 -1.60546875 17.8828125 C-1.57066406 16.80773437 -1.53585937 15.73265625 -1.5 14.625 C-1.43112669 12.51288511 -1.35838231 10.40089191 -1.28125 8.2890625 C-1.25095703 7.34756348 -1.22066406 6.40606445 -1.18945312 5.43603516 C-1 3 -1 3 0 0 Z " fill="#B8BDC3" transform="translate(431,197)"/>
<path d="M0 0 C0 0.33 0 0.66 0 1 C-0.75023437 1.08121094 -1.50046875 1.16242188 -2.2734375 1.24609375 C-5.61265942 2.16940296 -6.53316663 3.35457871 -8.625 6.0625 C-10.3515625 8.28515625 -10.3515625 8.28515625 -12 10 C-12.99 10 -13.98 10 -15 10 C-13.68954637 6.06863911 -12.16791954 3.68793173 -9 1 C-5.8035914 -0.06546953 -3.34252724 -0.07427838 0 0 Z " fill="#C5C9CE" transform="translate(452,152)"/>
<path d="M0 0 C0.33 0.66 0.66 1.32 1 2 C0 5 0 5 -1.84765625 5.92578125 C-2.55792969 6.28027344 -3.26820313 6.63476562 -4 7 C-5.80535051 8.92019123 -5.80535051 8.92019123 -7.4375 11.1875 C-8.035625 11.98414063 -8.63375 12.78078125 -9.25 13.6015625 C-11.52422704 16.71847188 -13.78279739 19.84216598 -16 23 C-16.66 22.67 -17.32 22.34 -18 22 C-14.27872776 17.18560405 -10.53412387 12.39019302 -6.75 7.625 C-6.10546875 6.81289063 -5.4609375 6.00078125 -4.796875 5.1640625 C-3.27461308 3.33072966 -1.71995743 1.64563828 0 0 Z " fill="#959CA6" transform="translate(229,679)"/>
<path d="M0 0 C0 0.33 0 0.66 0 1 C-1.98 1 -3.96 1 -6 1 C-6 1.66 -6 2.32 -6 3 C-14.58 3 -23.16 3 -32 3 C-32 2.67 -32 2.34 -32 2 C-30.77023438 1.93941406 -29.54046875 1.87882812 -28.2734375 1.81640625 C-26.64061573 1.73194995 -25.00780373 1.64730453 -23.375 1.5625 C-22.56675781 1.52318359 -21.75851563 1.48386719 -20.92578125 1.44335938 C-13.86493673 1.07022532 -7.08601421 -0.12217266 0 0 Z " fill="#CDD0D5" transform="translate(218,442)"/>
<path d="M0 0 C0.33 0 0.66 0 1 0 C1.06058594 1.10859375 1.12117188 2.2171875 1.18359375 3.359375 C1.26802951 4.8229282 1.35267599 6.28646925 1.4375 7.75 C1.47681641 8.47960937 1.51613281 9.20921875 1.55664062 9.9609375 C1.76191011 13.43472875 2.13560423 16.63961807 3 20 C3.12205329 22.67540816 3.04467313 25.31961238 3 28 C2.67 28 2.34 28 2 28 C-0.49428183 22.24547579 -0.22806703 16.76938083 -0.125 10.625 C-0.11597656 9.60277344 -0.10695313 8.58054687 -0.09765625 7.52734375 C-0.0742043 5.01798478 -0.04138355 2.50911664 0 0 Z " fill="#D0D3D7" transform="translate(432,852)"/>
<path d="M0 0 C0.66 0.33 1.32 0.66 2 1 C-2.62 5.62 -7.24 10.24 -12 15 C-12.66 14.67 -13.32 14.34 -14 14 C-9.72706118 8.76564995 -5.18419194 4.32893185 0 0 Z " fill="#2D3644" transform="translate(406,391)"/>
<path d="M0 0 C7.05909078 1.12276571 14.03843148 2.37563401 21 4 C21 4.33 21 4.66 21 5 C6.21867882 4.40546697 6.21867882 4.40546697 0 1 C0 0.67 0 0.34 0 0 Z " fill="#AAB0B9" transform="translate(462,673)"/>
<path d="M0 0 C2.5 1.375 2.5 1.375 5 3 C5 3.66 5 4.32 5 5 C5.53625 5.103125 6.0725 5.20625 6.625 5.3125 C9.62502044 6.18092697 12.2379535 7.55620296 15 9 C13.4375 9.75 13.4375 9.75 11 10 C6.64542464 7.90047259 3.1303899 5.75646788 0 2 C0 1.34 0 0.68 0 0 Z " fill="#C5C9CF" transform="translate(355,249)"/>
<path d="M0 0 C4.67461851 -0.32613618 7.16674383 0.29417212 11 3 C8.13822943 4.43088528 6.06624227 3.59991697 3 3 C3 2.34 3 1.68 3 1 C2.01 0.67 1.02 0.34 0 0 Z " fill="#B9BEC4" transform="translate(628,256)"/>
<path d="M0 0 C-1.28519565 2.86697492 -2.57129254 4.97607712 -5 7 C-5.66 7 -6.32 7 -7 7 C-3.86206897 0 -3.86206897 0 0 0 Z " fill="#303A4B" transform="translate(609,798)"/>
</svg>
