<?xml version="1.0" encoding="UTF-8"?>
<svg version="1.1" xmlns="http://www.w3.org/2000/svg" width="1024" height="1024">
<path d="M0 0 C337.92 0 675.84 0 1024 0 C1024 337.92 1024 675.84 1024 1024 C686.08 1024 348.16 1024 0 1024 C0 686.08 0 348.16 0 0 Z " fill="#344256" transform="translate(0,0)"/>
<path d="M0 0 C1.31145996 -0.00315216 2.62291992 -0.00630432 3.97412109 -0.009552 C5.4072269 -0.00776211 6.84033241 -0.00571113 8.2734375 -0.00341797 C9.74169938 -0.00409157 11.20996116 -0.00506207 12.67822266 -0.00631714 C15.75489362 -0.00779145 18.83153554 -0.00564811 21.90820312 -0.00097656 C25.85265413 0.00472057 29.79703709 0.00144014 33.7414856 -0.00454903 C36.77319858 -0.00816183 39.80489542 -0.00701274 42.83660889 -0.00442123 C44.29107674 -0.00375396 45.74554606 -0.00457344 47.20001221 -0.00690079 C49.23229952 -0.00943903 51.26459197 -0.0048847 53.296875 0 C54.45364746 0.00079559 55.61041992 0.00159119 56.80224609 0.00241089 C59.6484375 0.12939453 59.6484375 0.12939453 62.6484375 1.12939453 C65.27623747 1.31131914 67.89278574 1.4532333 70.5234375 1.56689453 C80.18656331 2.07066426 89.72776494 2.65814845 98.7265625 6.46533203 C102.25346837 7.68397837 105.94471466 7.88076499 109.6484375 8.12939453 C109.6484375 8.78939453 109.6484375 9.44939453 109.6484375 10.12939453 C110.50501953 10.05978516 110.50501953 10.05978516 111.37890625 9.98876953 C119.06402254 9.64666579 125.44352535 11.6241332 132.6484375 14.12939453 C134.6479763 14.79744321 136.64783933 15.46452508 138.6484375 16.12939453 C138.6484375 16.78939453 138.6484375 17.44939453 138.6484375 18.12939453 C140.164375 18.03658203 140.164375 18.03658203 141.7109375 17.94189453 C145.29131783 18.11238883 147.39118175 18.68630225 150.5703125 20.21142578 C153.18710229 21.36733856 155.86000232 22.20048549 158.5859375 23.06689453 C162.79481166 24.4419677 166.65063645 25.99174145 170.54736328 28.08007812 C172.72530681 29.16778453 174.91778177 30.04551994 177.19140625 30.91455078 C182.89346476 33.17135452 188.35730152 35.8181241 193.8359375 38.56689453 C195.25422852 39.26395508 195.25422852 39.26395508 196.70117188 39.97509766 C202.06567868 42.65548189 206.84209189 45.55045955 211.6484375 49.12939453 C213.04636944 49.95369233 214.46074453 50.7515868 215.8984375 51.50439453 C225.76893166 56.88222722 234.74371042 63.29423342 243.6484375 70.12939453 C244.74675463 70.957069 245.84572343 71.78387936 246.9453125 72.60986328 C252.90494778 77.10819564 258.64936087 81.75502386 264.13671875 86.82861328 C266.17863916 88.69905048 268.24950016 90.51097602 270.34765625 92.31689453 C275.14073591 96.49983371 279.6496199 100.94674046 284.1484375 105.44189453 C284.97085938 106.25207031 285.79328125 107.06224609 286.640625 107.89697266 C287.41664063 108.67105469 288.19265625 109.44513672 288.9921875 110.24267578 C289.69537109 110.94175049 290.39855469 111.6408252 291.12304688 112.36108398 C292.6484375 114.12939453 292.6484375 114.12939453 292.6484375 116.12939453 C293.3084375 116.12939453 293.9684375 116.12939453 294.6484375 116.12939453 C296.04443146 117.65776723 297.36431399 119.25589552 298.6484375 120.87939453 C299.45925781 121.89646484 300.27007813 122.91353516 301.10546875 123.96142578 C301.52779785 124.49203613 301.95012695 125.02264648 302.38525391 125.56933594 C304.31270869 127.94978357 306.33482611 130.24825142 308.3359375 132.56689453 C318.59572747 144.87225011 327.63315836 158.31958691 335.56542969 172.23242188 C336.30962306 173.53593461 337.06066506 174.83555377 337.81738281 176.13183594 C368.457887 228.62496038 383.85330358 289.09828161 383.8984375 349.69189453 C383.89944458 350.6359314 383.90045166 351.57996826 383.90148926 352.5526123 C383.88973779 368.93070886 383.01484468 384.90296322 380.6484375 401.12939453 C380.4316333 402.64170654 380.4316333 402.64170654 380.21044922 404.18457031 C371.75847269 461.30795102 348.92901412 517.33753339 313.6484375 563.12939453 C313.19227051 563.7283252 312.73610352 564.32725586 312.26611328 564.94433594 C306.8408234 572.05968812 301.23784788 578.88695788 295.1328125 585.43408203 C293.16672019 587.5671067 291.26150092 589.72677972 289.3671875 591.92236328 C285.543085 596.30659281 281.5135711 600.45643563 277.3984375 604.56689453 C276.65118408 605.31334229 275.90393066 606.05979004 275.1340332 606.82885742 C270.35638123 611.55393409 265.51389773 615.97248982 260.21875 620.11376953 C257.47280025 622.2671283 254.85195279 624.53635208 252.2109375 626.81689453 C181.68979854 685.4036869 86.00615318 712.21939442 -4.76879883 704.25585938 C-80.73405418 696.91405908 -154.81049978 667.16285087 -211.3515625 615.12939453 C-212.63922881 613.99981795 -213.93073868 612.87460362 -215.2265625 611.75439453 C-224.14457941 603.95338176 -232.60385972 596.11620802 -240.3515625 587.12939453 C-241.24919632 586.11696266 -242.14767719 585.10528134 -243.046875 584.09423828 C-255.69448169 569.75243059 -267.04900075 554.34835454 -277.12695312 538.10253906 C-278.31000245 536.19635791 -279.50977474 534.30153733 -280.7109375 532.40673828 C-286.35994315 523.37074077 -290.89473172 513.93911746 -295.34667969 504.26806641 C-296.70892855 501.36881956 -298.18423276 498.53257273 -299.6640625 495.69189453 C-302.0618772 490.95555176 -303.76996105 486.19051919 -305.3515625 481.12939453 C-306.38097195 478.04116619 -307.60963341 475.11094673 -308.9140625 472.12939453 C-311.12066528 466.98970743 -312.55692751 461.88325253 -313.7734375 456.43017578 C-314.12942399 454.18037703 -314.12942399 454.18037703 -315.3515625 453.12939453 C-315.4753125 452.11876953 -315.5990625 451.10814453 -315.7265625 450.06689453 C-316.21090491 447.01553736 -316.73168637 444.91821226 -317.8515625 442.12939453 C-319.30958514 438.47732821 -319.80402012 435.03063397 -320.3515625 431.12939453 C-320.83020733 429.72609491 -321.33205255 428.3305846 -321.8515625 426.94189453 C-323.54523991 422.18150998 -323.87431623 417.5574671 -324.140625 412.53564453 C-324.08747897 410.17925954 -324.08747897 410.17925954 -325.3515625 409.12939453 C-325.42415196 406.943 -325.43530033 404.75439064 -325.4140625 402.56689453 C-325.40503906 401.36935547 -325.39601563 400.17181641 -325.38671875 398.93798828 C-325.37511719 398.01115234 -325.36351562 397.08431641 -325.3515625 396.12939453 C-326.0115625 396.12939453 -326.6715625 396.12939453 -327.3515625 396.12939453 C-327.3515625 390.51939453 -327.3515625 384.90939453 -327.3515625 379.12939453 C-328.0115625 379.12939453 -328.6715625 379.12939453 -329.3515625 379.12939453 C-329.37469014 371.19325666 -329.39247973 363.25713277 -329.40337467 355.32096958 C-329.40860258 351.63624955 -329.41569855 347.9515525 -329.42700195 344.2668457 C-329.43783412 340.71368622 -329.44384003 337.1605489 -329.44643974 333.60737419 C-329.4482934 332.24893787 -329.45191288 330.89050282 -329.45729256 329.53207588 C-329.46450725 327.6355723 -329.46497059 325.7390466 -329.46508789 323.8425293 C-329.4673085 322.76109146 -329.46952911 321.67965363 -329.47181702 320.56544495 C-329.3515625 318.12939453 -329.3515625 318.12939453 -328.3515625 317.12939453 C-328.14187499 314.7995333 -327.98340861 312.46495417 -327.8515625 310.12939453 C-327.46267361 303.24050564 -327.46267361 303.24050564 -326.3515625 302.12939453 C-326.11728472 300.11344872 -325.93820126 298.09092053 -325.7890625 296.06689453 C-325.66337891 294.40980469 -325.66337891 294.40980469 -325.53515625 292.71923828 C-325.47457031 291.86458984 -325.41398438 291.00994141 -325.3515625 290.12939453 C-324.6915625 290.12939453 -324.0315625 290.12939453 -323.3515625 290.12939453 C-323.36896484 289.06398438 -323.36896484 289.06398438 -323.38671875 287.97705078 C-323.39574219 287.05794922 -323.40476562 286.13884766 -323.4140625 285.19189453 C-323.43146484 283.81710937 -323.43146484 283.81710937 -323.44921875 282.41455078 C-323.3515625 280.12939453 -323.3515625 280.12939453 -322.3515625 279.12939453 C-322.11875885 277.20045003 -321.88796716 275.27122006 -321.671875 273.34033203 C-321.20998185 270.15214271 -320.31162081 267.20158111 -319.3515625 264.12939453 C-318.6915625 264.12939453 -318.0315625 264.12939453 -317.3515625 264.12939453 C-317.3515625 261.48939453 -317.3515625 258.84939453 -317.3515625 256.12939453 C-316.6915625 256.12939453 -316.0315625 256.12939453 -315.3515625 256.12939453 C-315.3721875 254.99501953 -315.3928125 253.86064453 -315.4140625 252.69189453 C-315.3515625 249.12939453 -315.3515625 249.12939453 -314.3515625 248.12939453 C-314.05477369 246.40449324 -313.78920296 244.67417563 -313.5390625 242.94189453 C-312.71121494 238.09396906 -311.29440608 235.11647293 -308.3515625 231.12939453 C-307.56940662 228.40114413 -307.56940662 228.40114413 -307.3515625 226.12939453 C-306.6915625 226.12939453 -306.0315625 226.12939453 -305.3515625 226.12939453 C-305.3515625 224.14939453 -305.3515625 222.16939453 -305.3515625 220.12939453 C-304.6915625 220.12939453 -304.0315625 220.12939453 -303.3515625 220.12939453 C-303.1659375 219.01564453 -303.1659375 219.01564453 -302.9765625 217.87939453 C-302.38509741 215.27694814 -301.53460098 213.49547148 -300.3515625 211.12939453 C-300.11695313 210.18322266 -299.88234375 209.23705078 -299.640625 208.26220703 C-298.03062846 202.51445239 -295.25295884 197.23551217 -292.6640625 191.87939453 C-292.15939453 190.81076172 -291.65472656 189.74212891 -291.13476562 188.64111328 C-287.72696377 181.54978351 -284.16294856 174.39051999 -279.3515625 168.12939453 C-278.6915625 168.12939453 -278.0315625 168.12939453 -277.3515625 168.12939453 C-276.3615625 165.15939453 -276.3615625 165.15939453 -275.3515625 162.12939453 C-274.6915625 162.12939453 -274.0315625 162.12939453 -273.3515625 162.12939453 C-273.1040625 161.40751953 -272.8565625 160.68564453 -272.6015625 159.94189453 C-271.3515625 157.12939453 -271.3515625 157.12939453 -269.6015625 155.00439453 C-267.52217003 152.34739305 -266.09489711 149.8582992 -264.5390625 146.87939453 C-257.53092538 133.71907597 -257.53092538 133.71907597 -252.3515625 131.12939453 C-251.35029343 129.46348996 -250.35051298 127.79669046 -249.3515625 126.12939453 C-247.97333642 124.49208332 -246.5540356 122.88871419 -245.1015625 121.31689453 C-242.41673396 118.39880961 -239.77247858 115.45993198 -237.1875 112.45361328 C-232.73601509 107.35445412 -227.99729056 102.55331006 -223.2265625 97.75439453 C-222.34613281 96.85333984 -221.46570313 95.95228516 -220.55859375 95.02392578 C-219.27662109 93.73421875 -219.27662109 93.73421875 -217.96875 92.41845703 C-217.20159668 91.64195801 -216.43444336 90.86545898 -215.64404297 90.06542969 C-213.27226153 88.06242364 -211.2390998 87.19320818 -208.3515625 86.12939453 C-206.30405167 84.08182959 -206.30405167 84.08182959 -204.4765625 81.69189453 C-202.03920926 78.81388985 -200.22465182 76.70588859 -196.6640625 75.37939453 C-192.81588165 73.92725081 -191.1284336 72.1198711 -188.3515625 69.12939453 C-186.37199308 67.43851231 -184.37211054 65.77108981 -182.3515625 64.12939453 C-181.5265625 63.40751953 -180.7015625 62.68564453 -179.8515625 61.94189453 C-177.3515625 60.12939453 -177.3515625 60.12939453 -174.5859375 59.27392578 C-170.94718776 57.98630057 -168.25698844 56.21636397 -165.1015625 54.00439453 C-159.55796819 50.12939453 -159.55796819 50.12939453 -157.3515625 50.12939453 C-157.0215625 49.13939453 -156.6915625 48.14939453 -156.3515625 47.12939453 C-152.17109869 44.06869781 -147.47296484 42.06424798 -142.5390625 40.56689453 C-138.79398206 39.42202538 -137.04799777 38.00559215 -134.3515625 35.12939453 C-127.58723356 31.81104449 -120.80860095 30.04250128 -113.3515625 29.12939453 C-113.3515625 28.13939453 -113.3515625 27.14939453 -113.3515625 26.12939453 C-112.25457031 25.71947266 -111.15757812 25.30955078 -110.02734375 24.88720703 C-108.57290564 24.34296567 -107.11847917 23.7986932 -105.6640625 23.25439453 C-104.94283203 22.98498047 -104.22160156 22.71556641 -103.47851562 22.43798828 C-99.75188358 21.04262834 -96.04232509 19.6177129 -92.3515625 18.12939453 C-89.16803267 16.95287264 -86.35019318 16.12921703 -82.9765625 15.69189453 C-79.6387341 15.17395564 -76.84146895 14.25551083 -73.7109375 13.02392578 C-65.9965207 10.09908895 -58.44513146 7.77177342 -50.1796875 7.30517578 C-48.33338261 7.32327517 -48.33338261 7.32327517 -47.3515625 6.12939453 C-43.8515625 5.62939453 -43.8515625 5.62939453 -40.3515625 5.12939453 C-40.0215625 4.79939453 -39.6915625 4.46939453 -39.3515625 4.12939453 C-37.33192051 4.056954 -35.30989126 4.04562265 -33.2890625 4.06689453 C-32.18433594 4.07591797 -31.07960938 4.08494141 -29.94140625 4.09423828 C-29.08675781 4.10583984 -28.23210937 4.11744141 -27.3515625 4.12939453 C-27.3515625 3.46939453 -27.3515625 2.80939453 -27.3515625 2.12939453 C-26.08699219 2.06880859 -24.82242187 2.00822266 -23.51953125 1.94580078 C-21.85936379 1.86138549 -20.19920813 1.77673798 -18.5390625 1.69189453 C-17.28899414 1.63291992 -17.28899414 1.63291992 -16.01367188 1.57275391 C-15.21123047 1.53085938 -14.40878906 1.48896484 -13.58203125 1.44580078 C-12.84364014 1.40914307 -12.10524902 1.37248535 -11.34448242 1.3347168 C-7.38863253 0.92716201 -4.09131897 0.00281389 0 0 Z " fill="#344256" transform="translate(485.3515625,161.87060546875)"/>
<path d="M0 0 C1.31145996 -0.00315216 2.62291992 -0.00630432 3.97412109 -0.009552 C5.4072269 -0.00776211 6.84033241 -0.00571113 8.2734375 -0.00341797 C9.74169938 -0.00409157 11.20996116 -0.00506207 12.67822266 -0.00631714 C15.75489362 -0.00779145 18.83153554 -0.00564811 21.90820312 -0.00097656 C25.85265413 0.00472057 29.79703709 0.00144014 33.7414856 -0.00454903 C36.77319858 -0.00816183 39.80489542 -0.00701274 42.83660889 -0.00442123 C44.29107674 -0.00375396 45.74554606 -0.00457344 47.20001221 -0.00690079 C49.23229952 -0.00943903 51.26459197 -0.0048847 53.296875 0 C54.45364746 0.00079559 55.61041992 0.00159119 56.80224609 0.00241089 C59.6484375 0.12939453 59.6484375 0.12939453 62.6484375 1.12939453 C65.27623747 1.31131914 67.89278574 1.4532333 70.5234375 1.56689453 C80.18656331 2.07066426 89.72776494 2.65814845 98.7265625 6.46533203 C102.25346837 7.68397837 105.94471466 7.88076499 109.6484375 8.12939453 C109.6484375 8.78939453 109.6484375 9.44939453 109.6484375 10.12939453 C110.50501953 10.05978516 110.50501953 10.05978516 111.37890625 9.98876953 C119.06402254 9.64666579 125.44352535 11.6241332 132.6484375 14.12939453 C134.6479763 14.79744321 136.64783933 15.46452508 138.6484375 16.12939453 C138.6484375 16.78939453 138.6484375 17.44939453 138.6484375 18.12939453 C140.164375 18.03658203 140.164375 18.03658203 141.7109375 17.94189453 C145.29131783 18.11238883 147.39118175 18.68630225 150.5703125 20.21142578 C153.18710229 21.36733856 155.86000232 22.20048549 158.5859375 23.06689453 C162.79481166 24.4419677 166.65063645 25.99174145 170.54736328 28.08007812 C172.72530681 29.16778453 174.91778177 30.04551994 177.19140625 30.91455078 C182.89346476 33.17135452 188.35730152 35.8181241 193.8359375 38.56689453 C195.25422852 39.26395508 195.25422852 39.26395508 196.70117188 39.97509766 C202.06567868 42.65548189 206.84209189 45.55045955 211.6484375 49.12939453 C213.04636944 49.95369233 214.46074453 50.7515868 215.8984375 51.50439453 C225.76893166 56.88222722 234.74371042 63.29423342 243.6484375 70.12939453 C244.74675463 70.957069 245.84572343 71.78387936 246.9453125 72.60986328 C252.90494778 77.10819564 258.64936087 81.75502386 264.13671875 86.82861328 C266.17863916 88.69905048 268.24950016 90.51097602 270.34765625 92.31689453 C275.14073591 96.49983371 279.6496199 100.94674046 284.1484375 105.44189453 C284.97085938 106.25207031 285.79328125 107.06224609 286.640625 107.89697266 C287.41664063 108.67105469 288.19265625 109.44513672 288.9921875 110.24267578 C289.69537109 110.94175049 290.39855469 111.6408252 291.12304688 112.36108398 C292.6484375 114.12939453 292.6484375 114.12939453 292.6484375 116.12939453 C293.3084375 116.12939453 293.9684375 116.12939453 294.6484375 116.12939453 C296.04443146 117.65776723 297.36431399 119.25589552 298.6484375 120.87939453 C299.45925781 121.89646484 300.27007813 122.91353516 301.10546875 123.96142578 C301.52779785 124.49203613 301.95012695 125.02264648 302.38525391 125.56933594 C304.31270869 127.94978357 306.33482611 130.24825142 308.3359375 132.56689453 C318.59572747 144.87225011 327.63315836 158.31958691 335.56542969 172.23242188 C336.30962306 173.53593461 337.06066506 174.83555377 337.81738281 176.13183594 C368.457887 228.62496038 383.85330358 289.09828161 383.8984375 349.69189453 C383.89944458 350.6359314 383.90045166 351.57996826 383.90148926 352.5526123 C383.88973779 368.93070886 383.01484468 384.90296322 380.6484375 401.12939453 C380.4316333 402.64170654 380.4316333 402.64170654 380.21044922 404.18457031 C371.75847269 461.30795102 348.92901412 517.33753339 313.6484375 563.12939453 C313.19227051 563.7283252 312.73610352 564.32725586 312.26611328 564.94433594 C306.8408234 572.05968812 301.23784788 578.88695788 295.1328125 585.43408203 C293.16672019 587.5671067 291.26150092 589.72677972 289.3671875 591.92236328 C285.543085 596.30659281 281.5135711 600.45643563 277.3984375 604.56689453 C276.65118408 605.31334229 275.90393066 606.05979004 275.1340332 606.82885742 C270.35638123 611.55393409 265.51389773 615.97248982 260.21875 620.11376953 C257.47280025 622.2671283 254.85195279 624.53635208 252.2109375 626.81689453 C181.68979854 685.4036869 86.00615318 712.21939442 -4.76879883 704.25585938 C-80.73405418 696.91405908 -154.81049978 667.16285087 -211.3515625 615.12939453 C-212.63922881 613.99981795 -213.93073868 612.87460362 -215.2265625 611.75439453 C-224.14457941 603.95338176 -232.60385972 596.11620802 -240.3515625 587.12939453 C-241.24919632 586.11696266 -242.14767719 585.10528134 -243.046875 584.09423828 C-255.69448169 569.75243059 -267.04900075 554.34835454 -277.12695312 538.10253906 C-278.31000245 536.19635791 -279.50977474 534.30153733 -280.7109375 532.40673828 C-286.35994315 523.37074077 -290.89473172 513.93911746 -295.34667969 504.26806641 C-296.70892855 501.36881956 -298.18423276 498.53257273 -299.6640625 495.69189453 C-302.0618772 490.95555176 -303.76996105 486.19051919 -305.3515625 481.12939453 C-306.38097195 478.04116619 -307.60963341 475.11094673 -308.9140625 472.12939453 C-311.12066528 466.98970743 -312.55692751 461.88325253 -313.7734375 456.43017578 C-314.12942399 454.18037703 -314.12942399 454.18037703 -315.3515625 453.12939453 C-315.4753125 452.11876953 -315.5990625 451.10814453 -315.7265625 450.06689453 C-316.21090491 447.01553736 -316.73168637 444.91821226 -317.8515625 442.12939453 C-319.30958514 438.47732821 -319.80402012 435.03063397 -320.3515625 431.12939453 C-320.83020733 429.72609491 -321.33205255 428.3305846 -321.8515625 426.94189453 C-323.54523991 422.18150998 -323.87431623 417.5574671 -324.140625 412.53564453 C-324.08747897 410.17925954 -324.08747897 410.17925954 -325.3515625 409.12939453 C-325.42415196 406.943 -325.43530033 404.75439064 -325.4140625 402.56689453 C-325.40503906 401.36935547 -325.39601563 400.17181641 -325.38671875 398.93798828 C-325.37511719 398.01115234 -325.36351562 397.08431641 -325.3515625 396.12939453 C-326.0115625 396.12939453 -326.6715625 396.12939453 -327.3515625 396.12939453 C-327.3515625 390.51939453 -327.3515625 384.90939453 -327.3515625 379.12939453 C-328.0115625 379.12939453 -328.6715625 379.12939453 -329.3515625 379.12939453 C-329.37469014 371.19325666 -329.39247973 363.25713277 -329.40337467 355.32096958 C-329.40860258 351.63624955 -329.41569855 347.9515525 -329.42700195 344.2668457 C-329.43783412 340.71368622 -329.44384003 337.1605489 -329.44643974 333.60737419 C-329.4482934 332.24893787 -329.45191288 330.89050282 -329.45729256 329.53207588 C-329.46450725 327.6355723 -329.46497059 325.7390466 -329.46508789 323.8425293 C-329.4673085 322.76109146 -329.46952911 321.67965363 -329.47181702 320.56544495 C-329.3515625 318.12939453 -329.3515625 318.12939453 -328.3515625 317.12939453 C-328.14187499 314.7995333 -327.98340861 312.46495417 -327.8515625 310.12939453 C-327.46267361 303.24050564 -327.46267361 303.24050564 -326.3515625 302.12939453 C-326.11728472 300.11344872 -325.93820126 298.09092053 -325.7890625 296.06689453 C-325.66337891 294.40980469 -325.66337891 294.40980469 -325.53515625 292.71923828 C-325.47457031 291.86458984 -325.41398438 291.00994141 -325.3515625 290.12939453 C-324.6915625 290.12939453 -324.0315625 290.12939453 -323.3515625 290.12939453 C-323.36896484 289.06398438 -323.36896484 289.06398438 -323.38671875 287.97705078 C-323.39574219 287.05794922 -323.40476562 286.13884766 -323.4140625 285.19189453 C-323.43146484 283.81710937 -323.43146484 283.81710937 -323.44921875 282.41455078 C-323.3515625 280.12939453 -323.3515625 280.12939453 -322.3515625 279.12939453 C-322.11875885 277.20045003 -321.88796716 275.27122006 -321.671875 273.34033203 C-321.20998185 270.15214271 -320.31162081 267.20158111 -319.3515625 264.12939453 C-318.6915625 264.12939453 -318.0315625 264.12939453 -317.3515625 264.12939453 C-317.3515625 261.48939453 -317.3515625 258.84939453 -317.3515625 256.12939453 C-316.6915625 256.12939453 -316.0315625 256.12939453 -315.3515625 256.12939453 C-315.3721875 254.99501953 -315.3928125 253.86064453 -315.4140625 252.69189453 C-315.3515625 249.12939453 -315.3515625 249.12939453 -314.3515625 248.12939453 C-314.05477369 246.40449324 -313.78920296 244.67417563 -313.5390625 242.94189453 C-312.71121494 238.09396906 -311.29440608 235.11647293 -308.3515625 231.12939453 C-307.56940662 228.40114413 -307.56940662 228.40114413 -307.3515625 226.12939453 C-306.6915625 226.12939453 -306.0315625 226.12939453 -305.3515625 226.12939453 C-305.3515625 224.14939453 -305.3515625 222.16939453 -305.3515625 220.12939453 C-304.6915625 220.12939453 -304.0315625 220.12939453 -303.3515625 220.12939453 C-303.1659375 219.01564453 -303.1659375 219.01564453 -302.9765625 217.87939453 C-302.38509741 215.27694814 -301.53460098 213.49547148 -300.3515625 211.12939453 C-300.11695313 210.18322266 -299.88234375 209.23705078 -299.640625 208.26220703 C-298.03062846 202.51445239 -295.25295884 197.23551217 -292.6640625 191.87939453 C-292.15939453 190.81076172 -291.65472656 189.74212891 -291.13476562 188.64111328 C-287.72696377 181.54978351 -284.16294856 174.39051999 -279.3515625 168.12939453 C-278.6915625 168.12939453 -278.0315625 168.12939453 -277.3515625 168.12939453 C-276.3615625 165.15939453 -276.3615625 165.15939453 -275.3515625 162.12939453 C-274.6915625 162.12939453 -274.0315625 162.12939453 -273.3515625 162.12939453 C-273.1040625 161.40751953 -272.8565625 160.68564453 -272.6015625 159.94189453 C-271.3515625 157.12939453 -271.3515625 157.12939453 -269.6015625 155.00439453 C-267.52217003 152.34739305 -266.09489711 149.8582992 -264.5390625 146.87939453 C-257.53092538 133.71907597 -257.53092538 133.71907597 -252.3515625 131.12939453 C-251.35029343 129.46348996 -250.35051298 127.79669046 -249.3515625 126.12939453 C-247.97333642 124.49208332 -246.5540356 122.88871419 -245.1015625 121.31689453 C-242.41673396 118.39880961 -239.77247858 115.45993198 -237.1875 112.45361328 C-232.73601509 107.35445412 -227.99729056 102.55331006 -223.2265625 97.75439453 C-222.34613281 96.85333984 -221.46570313 95.95228516 -220.55859375 95.02392578 C-219.27662109 93.73421875 -219.27662109 93.73421875 -217.96875 92.41845703 C-217.20159668 91.64195801 -216.43444336 90.86545898 -215.64404297 90.06542969 C-213.27226153 88.06242364 -211.2390998 87.19320818 -208.3515625 86.12939453 C-206.30405167 84.08182959 -206.30405167 84.08182959 -204.4765625 81.69189453 C-202.03920926 78.81388985 -200.22465182 76.70588859 -196.6640625 75.37939453 C-192.81588165 73.92725081 -191.1284336 72.1198711 -188.3515625 69.12939453 C-186.37199308 67.43851231 -184.37211054 65.77108981 -182.3515625 64.12939453 C-181.5265625 63.40751953 -180.7015625 62.68564453 -179.8515625 61.94189453 C-177.3515625 60.12939453 -177.3515625 60.12939453 -174.5859375 59.27392578 C-170.94718776 57.98630057 -168.25698844 56.21636397 -165.1015625 54.00439453 C-159.55796819 50.12939453 -159.55796819 50.12939453 -157.3515625 50.12939453 C-157.0215625 49.13939453 -156.6915625 48.14939453 -156.3515625 47.12939453 C-152.17109869 44.06869781 -147.47296484 42.06424798 -142.5390625 40.56689453 C-138.79398206 39.42202538 -137.04799777 38.00559215 -134.3515625 35.12939453 C-127.58723356 31.81104449 -120.80860095 30.04250128 -113.3515625 29.12939453 C-113.3515625 28.13939453 -113.3515625 27.14939453 -113.3515625 26.12939453 C-112.25457031 25.71947266 -111.15757812 25.30955078 -110.02734375 24.88720703 C-108.57290564 24.34296567 -107.11847917 23.7986932 -105.6640625 23.25439453 C-104.94283203 22.98498047 -104.22160156 22.71556641 -103.47851562 22.43798828 C-99.75188358 21.04262834 -96.04232509 19.6177129 -92.3515625 18.12939453 C-89.16803267 16.95287264 -86.35019318 16.12921703 -82.9765625 15.69189453 C-79.6387341 15.17395564 -76.84146895 14.25551083 -73.7109375 13.02392578 C-65.9965207 10.09908895 -58.44513146 7.77177342 -50.1796875 7.30517578 C-48.33338261 7.32327517 -48.33338261 7.32327517 -47.3515625 6.12939453 C-43.8515625 5.62939453 -43.8515625 5.62939453 -40.3515625 5.12939453 C-40.0215625 4.79939453 -39.6915625 4.46939453 -39.3515625 4.12939453 C-37.33192051 4.056954 -35.30989126 4.04562265 -33.2890625 4.06689453 C-32.18433594 4.07591797 -31.07960938 4.08494141 -29.94140625 4.09423828 C-29.08675781 4.10583984 -28.23210937 4.11744141 -27.3515625 4.12939453 C-27.3515625 3.46939453 -27.3515625 2.80939453 -27.3515625 2.12939453 C-26.08699219 2.06880859 -24.82242187 2.00822266 -23.51953125 1.94580078 C-21.85936379 1.86138549 -20.19920813 1.77673798 -18.5390625 1.69189453 C-17.28899414 1.63291992 -17.28899414 1.63291992 -16.01367188 1.57275391 C-15.21123047 1.53085938 -14.40878906 1.48896484 -13.58203125 1.44580078 C-12.84364014 1.40914307 -12.10524902 1.37248535 -11.34448242 1.3347168 C-7.38863253 0.92716201 -4.09131897 0.00281389 0 0 Z M-204.3515625 152.12939453 C-207.56622354 155.63487608 -210.49899378 159.32416529 -213.3515625 163.12939453 C-213.9700708 163.94126221 -213.9700708 163.94126221 -214.60107422 164.76953125 C-246.36444487 206.53055299 -267.29246391 254.20243213 -275.3515625 306.12939453 C-275.46338867 306.84160156 -275.57521484 307.55380859 -275.69042969 308.28759766 C-287.30417958 383.83192661 -267.11086597 465.28211185 -222.08984375 526.85498047 C-219.24756472 530.67019348 -216.31474548 534.40752219 -213.3515625 538.12939453 C-212.62324219 539.05236328 -211.89492188 539.97533203 -211.14453125 540.92626953 C-198.19113328 557.07717295 -183.62731305 572.3258041 -167.3515625 585.12939453 C-165.5588447 586.62813811 -163.76719354 588.1281584 -161.9765625 589.62939453 C-152.99706727 596.9634993 -143.36143403 603.24977565 -133.4453125 609.23486328 C-130.65253206 610.94508868 -127.9448989 612.74208538 -125.2265625 614.56689453 C-114.56315641 621.38960092 -102.56742388 626.34582935 -90.859375 631.07470703 C-88.52012241 632.05850485 -86.28867785 633.14504167 -84.0390625 634.31689453 C-79.23484137 636.783927 -74.78419286 638.12939453 -69.3515625 638.12939453 C-69.3515625 638.78939453 -69.3515625 639.44939453 -69.3515625 640.12939453 C-68.2996875 640.41814453 -67.2478125 640.70689453 -66.1640625 641.00439453 C-62.3515625 642.12939453 -62.3515625 642.12939453 -59.9765625 643.12939453 C-54.67351653 645.14960252 -49.05014369 646.49704493 -43.3515625 646.12939453 C-43.3515625 646.78939453 -43.3515625 647.44939453 -43.3515625 648.12939453 C-42.71347656 648.18998047 -42.07539063 648.25056641 -41.41796875 648.31298828 C-40.59167969 648.39677734 -39.76539063 648.48056641 -38.9140625 648.56689453 C-38.09035156 648.64810547 -37.26664063 648.72931641 -36.41796875 648.81298828 C-34.3515625 649.12939453 -34.3515625 649.12939453 -33.3515625 650.12939453 C-31.37646377 650.33883063 -29.39584568 650.49743275 -27.4140625 650.62939453 C-21.57164503 651.01935327 -21.57164503 651.01935327 -19.3515625 652.12939453 C-16.23886959 652.44371976 -13.12538672 652.64029327 -10.00390625 652.84814453 C-7.3515625 653.12939453 -7.3515625 653.12939453 -6.3515625 654.12939453 C12.43526098 656.46692556 32.10265373 655.6491303 50.9609375 654.69189453 C51.74251221 654.65273926 52.52408691 654.61358398 53.3293457 654.57324219 C56.78406498 654.6448479 56.78406498 654.6448479 59.6484375 653.12939453 C62.8583068 652.85940552 66.06074609 652.68328016 69.27734375 652.52392578 C72.75788027 652.63233934 72.75788027 652.63233934 75.6484375 651.12939453 C78.48816285 650.80588152 81.32917487 650.61635163 84.1796875 650.41064453 C86.589798 650.39554188 86.589798 650.39554188 87.6484375 649.12939453 C89.16313198 648.89746589 90.68598312 648.71724215 92.2109375 648.56689453 C93.03722656 648.48310547 93.86351562 648.39931641 94.71484375 648.31298828 C95.35292969 648.25240234 95.99101563 648.19181641 96.6484375 648.12939453 C96.6484375 647.46939453 96.6484375 646.80939453 96.6484375 646.12939453 C97.8446875 646.17064453 99.0409375 646.21189453 100.2734375 646.25439453 C104.07173703 646.26791161 107.09819368 645.54949206 110.6484375 644.12939453 C110.6484375 643.46939453 110.6484375 642.80939453 110.6484375 642.12939453 C111.8446875 642.17064453 113.0409375 642.21189453 114.2734375 642.25439453 C118.07173703 642.26791161 121.09819368 641.54949206 124.6484375 640.12939453 C124.6484375 639.46939453 124.6484375 638.80939453 124.6484375 638.12939453 C126.6284375 638.12939453 128.6084375 638.12939453 130.6484375 638.12939453 C130.6484375 637.46939453 130.6484375 636.80939453 130.6484375 636.12939453 C131.9684375 636.12939453 133.2884375 636.12939453 134.6484375 636.12939453 C134.6484375 635.46939453 134.6484375 634.80939453 134.6484375 634.12939453 C135.32648438 634.03142578 136.00453125 633.93345703 136.703125 633.83251953 C147.14112037 632.15550089 155.72794577 628.21621882 165.08203125 623.39892578 C167.6484375 622.12939453 167.6484375 622.12939453 170.6484375 621.12939453 C170.6484375 620.13939453 170.6484375 619.14939453 170.6484375 618.12939453 C171.9684375 618.12939453 173.2884375 618.12939453 174.6484375 618.12939453 C175.99523026 616.80965788 177.32547983 615.47302341 178.6484375 614.12939453 C181.23649545 612.46492088 183.93859593 611.02245255 186.6484375 609.56689453 C190.85467439 607.28470622 194.85349965 605.06306989 198.6484375 602.12939453 C199.4528125 601.84064453 200.2571875 601.55189453 201.0859375 601.25439453 C204.39052834 599.80359855 206.12126477 597.71400301 208.6484375 595.12939453 C212.76637919 591.60424675 216.81594162 588.37230044 221.7734375 586.12939453 C225.62421029 584.34917616 228.11948073 581.92417416 231 578.84814453 C232.6484375 577.12939453 232.6484375 577.12939453 235.6484375 574.69189453 C238.72691898 572.06235827 241.22474039 569.2671163 243.83984375 566.19189453 C246.18692422 563.51531033 248.70400306 561.04443222 251.265625 558.57470703 C252.75698235 557.15829676 252.75698235 557.15829676 253.6484375 555.12939453 C254.6384375 554.79939453 255.6284375 554.46939453 256.6484375 554.12939453 C258.43247358 552.25534194 258.43247358 552.25534194 260.2109375 549.87939453 C260.90316406 548.98607422 261.59539063 548.09275391 262.30859375 547.17236328 C263.08074219 546.16818359 263.85289062 545.16400391 264.6484375 544.12939453 C265.56225664 542.97842624 266.47767503 541.82872621 267.39453125 540.68017578 C268.31292465 539.51775074 269.23089904 538.35499452 270.1484375 537.19189453 C270.59388916 536.63663086 271.03934082 536.08136719 271.49829102 535.50927734 C274.12219685 532.22623241 274.12219685 532.22623241 274.6484375 528.12939453 C275.3084375 528.12939453 275.9684375 528.12939453 276.6484375 528.12939453 C276.8753125 527.40751953 277.1021875 526.68564453 277.3359375 525.94189453 C278.91387106 522.56060833 280.98390015 520.73196589 283.6484375 518.12939453 C288.0420967 512.49649812 291.3140603 506.43284419 294.6484375 500.12939453 C295.32085621 498.87508143 295.99407124 497.62119499 296.66796875 496.36767578 C298.05757732 493.78075182 299.43913473 491.18982174 300.8125 488.59423828 C301.8795281 486.58050653 302.95387866 484.57055665 304.046875 482.57080078 C305.9687621 478.96555866 307.16422361 476.25568343 306.6484375 472.12939453 C307.3084375 472.12939453 307.9684375 472.12939453 308.6484375 472.12939453 C310.25198851 468.62162669 310.86880614 465.98584574 310.6484375 462.12939453 C311.3084375 462.12939453 311.9684375 462.12939453 312.6484375 462.12939453 C314.25198851 458.62162669 314.86880614 455.98584574 314.6484375 452.12939453 C315.3084375 452.12939453 315.9684375 452.12939453 316.6484375 452.12939453 C316.6484375 450.14939453 316.6484375 448.16939453 316.6484375 446.12939453 C317.3084375 446.12939453 317.9684375 446.12939453 318.6484375 446.12939453 C320.2397064 441.25613353 320.86035971 437.32148857 320.6484375 432.12939453 C321.3084375 432.12939453 321.9684375 432.12939453 322.6484375 432.12939453 C322.6484375 429.81939453 322.6484375 427.50939453 322.6484375 425.12939453 C323.3084375 425.12939453 323.9684375 425.12939453 324.6484375 425.12939453 C324.6484375 421.82939453 324.6484375 418.52939453 324.6484375 415.12939453 C325.3084375 415.12939453 325.9684375 415.12939453 326.6484375 415.12939453 C326.70902344 414.41912109 326.76960937 413.70884766 326.83203125 412.97705078 C326.91582031 412.05794922 326.99960937 411.13884766 327.0859375 410.19189453 C327.16714844 409.27537109 327.24835937 408.35884766 327.33203125 407.41455078 C327.6484375 405.12939453 327.6484375 405.12939453 328.6484375 404.12939453 C328.72087803 402.10975254 328.73220938 400.0877233 328.7109375 398.06689453 C328.69740234 396.40980469 328.69740234 396.40980469 328.68359375 394.71923828 C328.67199219 393.86458984 328.66039062 393.00994141 328.6484375 392.12939453 C329.3084375 392.12939453 329.9684375 392.12939453 330.6484375 392.12939453 C330.70902344 391.10458984 330.76960937 390.07978516 330.83203125 389.02392578 C330.91648776 387.66323758 331.00113317 386.3025611 331.0859375 384.94189453 C331.14491211 383.9315918 331.14491211 383.9315918 331.20507812 382.90087891 C331.54362521 377.56225177 331.54362521 377.56225177 332.15991211 375.01708984 C332.88452989 370.73384194 332.7907489 366.49312677 332.78125 362.15673828 C332.78220673 361.19667374 332.78316345 360.23660919 332.78414917 359.24745178 C332.78482824 357.22266575 332.78299302 355.19787752 332.77880859 353.1730957 C332.77345064 350.0744946 332.77876587 346.97603805 332.78515625 343.87744141 C332.78449553 341.90804004 332.78321451 339.93863877 332.78125 337.96923828 C332.78327423 337.04312241 332.78529846 336.11700653 332.78738403 335.16282654 C332.78265579 333.86611778 332.78265579 333.86611778 332.77783203 332.54321289 C332.77703644 331.78552109 332.77624084 331.02782928 332.77542114 330.24717712 C332.64590925 328.08722945 332.19021267 326.21901765 331.6484375 324.12939453 C331.39505468 320.65593844 331.20729758 317.18776622 331.04296875 313.70947266 C331.17241912 310.118414 331.17241912 310.118414 329.6484375 307.12939453 C329.32745999 304.81122364 329.13622794 302.49160096 328.9296875 300.16064453 C328.85777913 298.1375886 328.85777913 298.1375886 327.6484375 297.12939453 C327.32606538 294.5504176 327.13576446 291.97007632 326.9296875 289.37939453 C326.88643085 287.16274101 326.88643085 287.16274101 325.6484375 286.12939453 C325.4555125 284.29660703 325.2654968 282.46303848 325.125 280.62548828 C324.57070141 277.72223584 323.53178851 275.10062186 322.46386719 272.35229492 C321.05585832 268.5139953 320.02428008 264.57436336 318.9609375 260.62939453 C318.73599609 259.80697266 318.51105469 258.98455078 318.27929688 258.13720703 C317.73232325 256.1355163 317.18989781 254.13258365 316.6484375 252.12939453 C315.9884375 252.12939453 315.3284375 252.12939453 314.6484375 252.12939453 C314.52782959 251.25500732 314.40722168 250.38062012 314.28295898 249.47973633 C313.66857843 246.23574083 312.76729502 243.56252796 311.49609375 240.52392578 C310.83371704 238.939104 310.83371704 238.939104 310.15795898 237.32226562 C309.68044189 236.20674316 309.2029248 235.0912207 308.7109375 233.94189453 C308.21730713 232.78512207 307.72367676 231.62834961 307.21508789 230.43652344 C294.29682687 200.58640072 276.49502367 173.90281034 254.83886719 149.68774414 C253.6484375 148.12939453 253.6484375 148.12939453 252.6484375 145.12939453 C251.9884375 145.12939453 251.3284375 145.12939453 250.6484375 145.12939453 C250.6484375 144.46939453 250.6484375 143.80939453 250.6484375 143.12939453 C249.9884375 143.12939453 249.3284375 143.12939453 248.6484375 143.12939453 C248.6484375 142.46939453 248.6484375 141.80939453 248.6484375 141.12939453 C247.9884375 141.12939453 247.3284375 141.12939453 246.6484375 141.12939453 C246.6484375 140.46939453 246.6484375 139.80939453 246.6484375 139.12939453 C245.9884375 139.12939453 245.3284375 139.12939453 244.6484375 139.12939453 C244.6484375 138.46939453 244.6484375 137.80939453 244.6484375 137.12939453 C243.29458653 136.26154134 241.93924911 135.39595184 240.578125 134.53955078 C236.21946829 131.35437857 231.08372462 126.99996878 228.6484375 122.12939453 C227.58689453 121.49324219 227.58689453 121.49324219 226.50390625 120.84423828 C223.0329991 118.75979473 220.072058 116.26997639 216.9609375 113.69189453 C172.13373289 77.30177049 114.17763122 54.48729268 56.6484375 50.12939453 C55.56240234 50.04544434 54.47636719 49.96149414 53.35742188 49.875 C-46.16032112 42.67271901 -136.0584524 80.57202417 -204.3515625 152.12939453 Z " fill="#FCFCFC" transform="translate(485.3515625,161.87060546875)"/>
<path d="M0 0 C1.81733643 0.00108765 1.81733643 0.00108765 3.67138672 0.00219727 C4.89196777 0.00227783 6.11254883 0.0023584 7.37011719 0.00244141 C33.14571737 0.16402792 33.14571737 0.16402792 36.17138672 3.18969727 C37.49820107 3.47225958 38.83376766 3.7137481 40.17138672 3.93969727 C67.0096308 9.2155914 90.42215066 22.2073276 109.17138672 42.18969727 C109.17138672 42.84969727 109.17138672 43.50969727 109.17138672 44.18969727 C109.83138672 44.18969727 110.49138672 44.18969727 111.17138672 44.18969727 C122.64309922 57.87334678 130.83761751 73.90683453 135.17138672 91.18969727 C135.35467529 91.90746338 135.53796387 92.62522949 135.72680664 93.36474609 C141.76051676 119.56836423 137.10390406 149.31987386 122.97802734 172.11547852 C117.78097715 180.09695783 111.75976185 187.31594996 105.17138672 194.18969727 C104.60033203 194.80071289 104.02927734 195.41172852 103.44091797 196.04125977 C98.9287686 200.73560994 93.92276683 204.77587812 88.84765625 208.84301758 C84.90860993 212.00756455 80.9947946 215.20357943 77.078125 218.39575195 C74.14495679 220.78429822 71.20764285 223.1612894 68.22998047 225.49438477 C49.73510931 240.1028523 36.03988517 254.93784672 33.17138672 279.18969727 C32.90163853 282.92335468 32.73475165 286.66128131 32.56591797 290.40063477 C32.27567417 296.08540981 32.27567417 296.08540981 31.17138672 297.18969727 C29.18780677 297.28900096 27.20066322 297.31769187 25.21459961 297.3190918 C23.9398024 297.32224396 22.66500519 297.32539612 21.35157776 297.3286438 C19.94906581 297.32685383 18.54655418 297.32480283 17.14404297 297.32250977 C15.71536747 297.32318292 14.28669208 297.32415303 12.85801697 297.32540894 C9.85935377 297.32688587 6.8607203 297.32473184 3.86206055 297.32006836 C0.01385914 297.3143762 -3.83427245 297.31764683 -7.68247128 297.32364082 C-10.63436918 297.32725096 -13.58625048 297.32610567 -16.53814888 297.32351303 C-17.95715913 297.32284475 -19.37617087 297.32366875 -20.79517937 297.32599258 C-22.77759651 297.3285259 -24.76001891 297.32398157 -26.74243164 297.3190918 C-27.87192734 297.3182962 -29.00142303 297.31750061 -30.16514587 297.31668091 C-32.82861328 297.18969727 -32.82861328 297.18969727 -34.82861328 296.18969727 C-34.85356632 291.93961973 -34.87159158 287.68958245 -34.88354492 283.43945312 C-34.88853477 281.99738826 -34.89532902 280.55532836 -34.90405273 279.11328125 C-34.99533327 263.62243788 -34.99533327 263.62243788 -33.82861328 256.18969727 C-33.49861328 255.85969727 -33.16861328 255.52969727 -32.82861328 255.18969727 C-32.50444861 253.84294039 -32.21944529 252.48667148 -31.95361328 251.12719727 C-30.97958024 246.58413269 -29.66020704 242.46341603 -27.82861328 238.18969727 C-27.16861328 237.85969727 -26.50861328 237.52969727 -25.82861328 237.18969727 C-24.95422729 235.46978291 -24.15200667 233.71274478 -23.39111328 231.93969727 C-20.64442694 225.56807378 -17.85148763 221.02543024 -12.82861328 216.18969727 C-11.17275392 214.40729255 -9.52751052 212.61498637 -7.89111328 210.81469727 C-6.92790319 209.76231035 -5.96434388 208.710243 -5.00048828 207.65844727 C-3.35830424 205.86470895 -1.71881599 204.06871122 -0.08447266 202.26782227 C1.72362509 200.27754349 3.54063574 198.29569975 5.35888672 196.31469727 C6.19504517 195.38778076 6.19504517 195.38778076 7.0480957 194.44213867 C10.51845529 190.67838751 14.13034622 187.5413559 18.30078125 184.5690918 C20.25865062 183.1253484 22.05386744 181.5691 23.85888672 179.93969727 C26.51938944 177.61025257 28.86182859 176.46260424 32.17138672 175.18969727 C36.52264218 171.97355193 39.89570809 168.33219052 43.39013672 164.21704102 C45.05143471 162.32622159 46.78325717 160.60739618 48.60888672 158.87719727 C54.72897436 152.84018774 59.48904234 146.35386334 62.17138672 138.18969727 C62.83138672 137.85969727 63.49138672 137.52969727 64.17138672 137.18969727 C68.01077488 122.54314244 67.81123248 106.60069217 60.52294922 93.14672852 C58.83283076 90.41227922 57.05604933 87.79294129 55.17138672 85.18969727 C54.02669922 83.58094727 54.02669922 83.58094727 52.85888672 81.93969727 C42.52638679 71.36690664 28.80171792 65.33811058 14.09716797 64.88891602 C-7.00122463 64.70036775 -25.70653944 66.3649708 -41.64892578 81.81079102 C-50.94327032 91.95461866 -55.74404679 102.98056757 -58.25048828 116.41625977 C-58.82861328 119.18969727 -58.82861328 119.18969727 -59.82861328 120.18969727 C-61.90393067 120.29439807 -63.982845 120.3282598 -66.06079102 120.33496094 C-66.71121368 120.33831955 -67.36163635 120.34167816 -68.0317688 120.34513855 C-70.19193405 120.35467395 -72.35202201 120.35659296 -74.51220703 120.35766602 C-76.00814344 120.36087684 -77.50407953 120.36424078 -79.00001526 120.36775208 C-82.13991016 120.37374986 -85.27977751 120.37559132 -88.41967773 120.375 C-92.4495301 120.37489835 -96.47920638 120.38855058 -100.50901699 120.40577221 C-103.59988725 120.4168733 -106.6907147 120.41891979 -109.78160286 120.41839027 C-111.26760528 120.41957325 -112.75360871 120.42401273 -114.2395916 120.43172264 C-116.31553463 120.44148453 -118.39109221 120.43865984 -120.46704102 120.43261719 C-121.64983139 120.43404221 -122.83262177 120.43546722 -124.05125427 120.43693542 C-126.82861328 120.18969727 -126.82861328 120.18969727 -128.82861328 118.18969727 C-129.05908203 115.62329102 -129.05908203 115.62329102 -129.01611328 112.62719727 C-129.00966797 111.6359082 -129.00322266 110.64461914 -128.99658203 109.62329102 C-128.82861328 107.18969727 -128.82861328 107.18969727 -127.82861328 106.18969727 C-127.59786246 104.84222642 -127.41708265 103.48592162 -127.26611328 102.12719727 C-127.12173828 100.82782227 -126.97736328 99.52844727 -126.82861328 98.18969727 C-126.16861328 98.18969727 -125.50861328 98.18969727 -124.82861328 98.18969727 C-124.82861328 95.54969727 -124.82861328 92.90969727 -124.82861328 90.18969727 C-124.16861328 90.18969727 -123.50861328 90.18969727 -122.82861328 90.18969727 C-122.82861328 88.20969727 -122.82861328 86.22969727 -122.82861328 84.18969727 C-122.16861328 84.18969727 -121.50861328 84.18969727 -120.82861328 84.18969727 C-120.72419922 83.4871582 -120.61978516 82.78461914 -120.51220703 82.06079102 C-119.73402612 78.7924312 -118.45479774 76.22281542 -116.89111328 73.25219727 C-114.80724762 69.2841484 -113.21612822 65.44752207 -111.82861328 61.18969727 C-110.56930189 59.05855492 -109.30238703 57.16366089 -107.82861328 55.18969727 C-107.34134766 54.51680664 -106.85408203 53.84391602 -106.35205078 53.15063477 C-101.93594871 47.33383071 -96.99734375 42.08906569 -91.89111328 36.87719727 C-91.23530273 36.19544434 -90.57949219 35.51369141 -89.90380859 34.8112793 C-85.38413802 30.2748692 -80.7247839 26.77152039 -74.82861328 24.18969727 C-74.16861328 24.18969727 -73.50861328 24.18969727 -72.82861328 24.18969727 C-72.82861328 23.52969727 -72.82861328 22.86969727 -72.82861328 22.18969727 C-66.20361328 19.31469727 -66.20361328 19.31469727 -62.82861328 18.18969727 C-62.82861328 17.52969727 -62.82861328 16.86969727 -62.82861328 16.18969727 C-61.50861328 16.18969727 -60.18861328 16.18969727 -58.82861328 16.18969727 C-58.82861328 15.52969727 -58.82861328 14.86969727 -58.82861328 14.18969727 C-57.50861328 14.18969727 -56.18861328 14.18969727 -54.82861328 14.18969727 C-54.82861328 13.52969727 -54.82861328 12.86969727 -54.82861328 12.18969727 C-53.50861328 12.18969727 -52.18861328 12.18969727 -50.82861328 12.18969727 C-50.82861328 11.52969727 -50.82861328 10.86969727 -50.82861328 10.18969727 C-48.80931473 9.394124 -46.78809383 8.60342925 -44.76611328 7.81469727 C-43.64076172 7.37383789 -42.51541016 6.93297852 -41.35595703 6.47875977 C-34.16353612 3.8503003 -27.54200011 2.72655474 -19.95361328 2.12719727 C-18.06005662 1.97363134 -16.16680092 1.81629094 -14.27392578 1.65454102 C-13.44393066 1.58871826 -12.61393555 1.52289551 -11.75878906 1.45507812 C-1.2325906 0.00782569 -1.2325906 0.00782569 0 0 Z " fill="#FDFDFD" transform="translate(506.82861328125,299.810302734375)"/>
<path d="M0 0 C13.30722681 0.14190171 23.70407683 5.81827093 33.265625 14.80078125 C41.96857219 24.08096474 45.25332386 35.35114394 44.91015625 47.9140625 C43.90082179 57.59913703 40.47961487 65.60446473 34.5625 73.25 C33.840625 74.28125 33.11875 75.3125 32.375 76.375 C24.71213679 85.24908997 12.84514256 89.52506982 1.51171875 90.41015625 C-10.55567552 90.90314039 -21.03283638 86.13498881 -30.125 78.5 C-36.76474691 72.31217303 -40.65474899 66.01498577 -42.89453125 57.21875 C-43.25948396 55.26346244 -43.25948396 55.26346244 -44.4375 54.25 C-44.59236988 51.52786399 -44.66928197 48.84859523 -44.6875 46.125 C-44.708125 45.37734375 -44.72875 44.6296875 -44.75 43.859375 C-44.78710657 38.53458197 -43.80606862 35.0164512 -41.4375 30.25 C-40.9425 29.033125 -40.4475 27.81625 -39.9375 26.5625 C-38.6408787 23.69912795 -37.37784771 21.67543464 -35.4375 19.25 C-35.045625 18.486875 -34.65375 17.72375 -34.25 16.9375 C-29.25172139 9.5262593 -20.86866664 3.5805862 -12.05859375 1.7578125 C-10.19024274 1.53722007 -8.31387262 1.38646346 -6.4375 1.25 C-4.69469026 -0.49280974 -2.37049343 0.03623684 0 0 Z " fill="#FBFCFC" transform="translate(508.4375,629.75)"/>
<path d="M0 0 C1.1700097 3.91736581 0.69584017 6.97959015 0 11 C-0.66 11 -1.32 11 -2 11 C-2 13.64 -2 16.28 -2 19 C-2.66 19 -3.32 19 -4 19 C-4 31.87 -4 44.74 -4 58 C16.79 58 37.58 58 59 58 C59 58.33 59 58.66 59 59 C50.68998125 59.02314315 42.37997592 59.04092518 34.06993294 59.05181217 C30.2114867 59.05703667 26.35306247 59.06412649 22.49462891 59.07543945 C18.7728847 59.08628368 15.0511617 59.09228011 11.32940292 59.09487724 C9.90759828 59.09672871 8.48579483 59.10034403 7.06399918 59.10573006 C5.0766945 59.11296072 3.08936861 59.11340823 1.10205078 59.11352539 C-0.59671707 59.11685631 -0.59671707 59.11685631 -2.32980347 59.12025452 C-5 59 -5 59 -7 58 C-7.02495303 53.74992247 -7.0429783 49.49988519 -7.05493164 45.24975586 C-7.05992148 43.807691 -7.06671573 42.36563109 -7.07543945 40.92358398 C-7.16671999 25.43274061 -7.16671999 25.43274061 -6 18 C-5.67 17.67 -5.34 17.34 -5 17 C-4.67583533 15.65324313 -4.39083201 14.29697422 -4.125 12.9375 C-3.16670109 8.4073597 -1.71831741 4.29579353 0 0 Z " fill="#BEC0C6" transform="translate(479,538)"/>
<path d="M0 0 C1.21155762 0.0007251 2.42311523 0.0014502 3.67138672 0.00219727 C4.89196777 0.00227783 6.11254883 0.0023584 7.37011719 0.00244141 C33.14571737 0.16402792 33.14571737 0.16402792 36.17138672 3.18969727 C37.74580133 3.56289184 39.33159457 3.88867153 40.92138672 4.18969727 C41.78248047 4.35469727 42.64357422 4.51969727 43.53076172 4.68969727 C44.40216797 4.85469727 45.27357422 5.01969727 46.17138672 5.18969727 C47.83840668 5.52125925 49.50518269 5.85405904 51.17138672 6.18969727 C51.17138672 6.51969727 51.17138672 6.84969727 51.17138672 7.18969727 C45.59412125 7.42702771 40.54045611 6.76815758 35.17138672 5.18969727 C34.67638672 4.69469727 34.67638672 4.69469727 34.17138672 4.18969727 C14.00587324 1.87280848 -10.13175465 0.69689137 -29.82861328 6.18969727 C-30.15861328 6.51969727 -30.48861328 6.84969727 -30.82861328 7.18969727 C-33.01154102 7.42451419 -35.20064502 7.60333049 -37.39111328 7.75219727 C-38.58865234 7.83598633 -39.78619141 7.91977539 -41.02001953 8.00610352 C-41.94685547 8.06668945 -42.87369141 8.12727539 -43.82861328 8.18969727 C-36.66470201 3.41375642 -28.16804943 2.66949436 -19.76611328 2.06469727 C-17.89992857 1.92007112 -16.03401853 1.77183925 -14.16845703 1.61938477 C-12.95210571 1.53019775 -12.95210571 1.53019775 -11.71118164 1.43920898 C-0.89521958 0.00568373 -0.89521958 0.00568373 0 0 Z " fill="#BDC1C8" transform="translate(506.82861328125,299.810302734375)"/>
<path d="M0 0 C1.31145996 -0.00307663 2.62291992 -0.00615326 3.97412109 -0.00932312 C5.40722834 -0.00242496 6.84033385 0.00484204 8.2734375 0.01245117 C9.74169881 0.01364342 11.20996089 0.01409604 12.67822266 0.01383972 C15.75493141 0.01540376 18.83152367 0.02368704 21.90820312 0.03710938 C25.85266252 0.05409908 29.7969939 0.05792364 33.7414856 0.05716419 C36.7732058 0.05743608 39.804898 0.06292038 42.83660889 0.07016563 C44.2910745 0.07334851 45.7455433 0.07531882 47.20001221 0.07605934 C49.2323114 0.0782269 51.2645987 0.08776985 53.296875 0.09765625 C54.45364746 0.10146805 55.61041992 0.10527985 56.80224609 0.10920715 C59.6484375 0.24291992 59.6484375 0.24291992 62.6484375 1.24291992 C63.98207453 1.38695341 65.32061796 1.48882416 66.66015625 1.55932617 C67.79614258 1.62216797 67.79614258 1.62216797 68.95507812 1.6862793 C70.13360352 1.74525391 70.13360352 1.74525391 71.3359375 1.80541992 C72.53186523 1.87019531 72.53186523 1.87019531 73.75195312 1.9362793 C75.71725197 2.04219361 77.68282246 2.14304543 79.6484375 2.24291992 C79.6484375 2.57291992 79.6484375 2.90291992 79.6484375 3.24291992 C76.06512125 3.27199076 72.48183542 3.28974256 68.8984375 3.30541992 C67.88265625 3.31379883 66.866875 3.32217773 65.8203125 3.33081055 C64.840625 3.3340332 63.8609375 3.33725586 62.8515625 3.34057617 C61.95083008 3.34581299 61.05009766 3.3510498 60.12207031 3.35644531 C57.6484375 3.24291992 57.6484375 3.24291992 55.88366699 2.74291992 C53.01661445 2.101587 50.34976711 2.12351726 47.41113281 2.12939453 C45.51962494 2.12950783 45.51962494 2.12950783 43.58990479 2.12962341 C42.21879029 2.13472964 40.84767619 2.13994563 39.4765625 2.14526367 C38.06980439 2.14712964 36.66304562 2.1485527 35.25628662 2.14955139 C31.56063023 2.15336249 27.86501337 2.16318072 24.16937256 2.17425537 C20.39547256 2.18449978 16.62156615 2.1890555 12.84765625 2.1940918 C5.44789868 2.20480428 -1.95182636 2.22186376 -9.3515625 2.24291992 C-5.7801485 -0.13802274 -4.23835573 -0.00522119 0 0 Z " fill="#C5C9CF" transform="translate(485.3515625,161.757080078125)"/>
<path d="M0 0 C3.9491006 1.94828134 7.87612876 3.90578252 11.7265625 6.04296875 C23.10766509 12.33095134 34.88336592 17.30702312 47 22 C47.75522949 22.29293945 48.51045898 22.58587891 49.28857422 22.88769531 C52.49979791 24.11462162 55.65543153 25.21158158 59 26 C58.67 26.66 58.34 27.32 58 28 C56.02 27.67 54.04 27.34 52 27 C52 26.34 52 25.68 52 25 C51.319375 25.04125 50.63875 25.0825 49.9375 25.125 C46.40075832 24.97450035 43.36676967 24.05624147 40 23 C40 22.34 40 21.68 40 21 C39.45730469 20.88269531 38.91460937 20.76539063 38.35546875 20.64453125 C35.55802207 19.87906076 32.9845483 18.81569817 30.3125 17.6875 C29.26191406 17.2440625 28.21132813 16.800625 27.12890625 16.34375 C23.06879723 14.6000827 19.02642906 12.82002728 15 11 C15 10.34 15 9.68 15 9 C13.68 9 12.36 9 11 9 C11 8.34 11 7.68 11 7 C10.484375 6.9175 9.96875 6.835 9.4375 6.75 C5.95544268 5.67859775 3.12799115 3.86476395 0 2 C0 1.34 0 0.68 0 0 Z " fill="#BDC2C8" transform="translate(357,774)"/>
<path d="M0 0 C0.66 0.33 1.32 0.66 2 1 C-9.22 12.22 -20.44 23.44 -32 35 C-32 27.91891928 -22.24783012 21.11822159 -17.51953125 16.3828125 C-16.64683594 15.51398438 -15.77414062 14.64515625 -14.875 13.75 C-13.55435547 12.42355469 -13.55435547 12.42355469 -12.20703125 11.0703125 C-11.35238281 10.21695312 -10.49773437 9.36359375 -9.6171875 8.484375 C-8.85003418 7.71834961 -8.08288086 6.95232422 -7.29248047 6.16308594 C-4.95994141 3.96220244 -2.53062099 1.96795035 0 0 Z " fill="#293443" transform="translate(312,284)"/>
<path d="M0 0 C0 0.33 0 0.66 0 1 C-1.08539063 1.18175781 -2.17078125 1.36351562 -3.2890625 1.55078125 C-4.73446137 1.80419534 -6.17976918 2.05812925 -7.625 2.3125 C-8.33785156 2.43044922 -9.05070312 2.54839844 -9.78515625 2.66992188 C-14.35086671 3.48672329 -17.84405811 4.87461227 -22 7 C-24.2963772 7.56948045 -26.61130478 8.06817591 -28.9375 8.5 C-34.06860118 9.53159312 -38.27791532 10.8205763 -43 13 C-44.71877637 13.61327232 -46.4490608 14.19491056 -48.1875 14.75 C-49.00605469 15.01296875 -49.82460938 15.2759375 -50.66796875 15.546875 C-53.16366208 16.03180034 -54.61701892 15.81076138 -57 15 C-54.79195441 14.20752336 -52.58357503 13.4159987 -50.375 12.625 C-49.14523437 12.18414062 -47.91546875 11.74328125 -46.6484375 11.2890625 C-37.53607516 8.06949122 -37.53607516 8.06949122 -33.625 7.5625 C-30.28922037 7.04487902 -27.49302163 6.12602499 -24.36328125 4.8984375 C-16.18038484 1.78758432 -8.80380815 -0.59686835 0 0 Z " fill="#B0B6BD" transform="translate(436,170)"/>
<path d="M0 0 C0.66 0.33 1.32 0.66 2 1 C0.89041597 4.3287521 0.07455496 5.01489699 -2.5625 7.1875 C-6.39385524 10.41826442 -9.88071398 13.86879734 -13.3359375 17.49609375 C-15 19 -15 19 -17 19 C-17 19.66 -17 20.32 -17 21 C-18.65 21.66 -20.3 22.32 -22 23 C-20.55480663 19.68545526 -18.74845019 17.50259028 -16.19140625 14.9609375 C-15.44439453 14.21585937 -14.69738281 13.47078125 -13.92773438 12.703125 C-13.14720703 11.93484375 -12.36667969 11.1665625 -11.5625 10.375 C-10.78583984 9.59898437 -10.00917969 8.82296875 -9.20898438 8.0234375 C-3.42206101 2.28137401 -3.42206101 2.28137401 0 0 Z " fill="#CACDD3" transform="translate(426,327)"/>
<path d="M0 0 C0.66 0.33 1.32 0.66 2 1 C1.071875 1.886875 0.14375 2.77375 -0.8125 3.6875 C-2.69219535 5.55847286 -4.037975 7.06559317 -5.375 9.375 C-8.95395844 15.15639441 -14.0766054 19.72654509 -20 23 C-22.05534792 24.60895971 -24.02053157 26.29673647 -26 28 C-24.39626852 23.99482604 -21.57886014 21.3228902 -18.5546875 18.359375 C-17.75987473 17.56880707 -17.75987473 17.56880707 -16.94900513 16.76226807 C-15.26232175 15.08674325 -13.56880436 13.41832278 -11.875 11.75 C-10.72740612 10.61244149 -9.58026539 9.47442564 -8.43359375 8.3359375 C-5.62761863 5.55196535 -2.81549536 2.7743424 0 0 Z " fill="#B4B9C0" transform="translate(272,250)"/>
<path d="M0 0 C0 0.33 0 0.66 0 1 C-3.82320557 2.42258812 -6.91281305 3.24042276 -11 3 C-11 3.66 -11 4.32 -11 5 C-11.69480469 5.20367188 -12.38960938 5.40734375 -13.10546875 5.6171875 C-16.95317027 7.4553607 -19.39384782 10.06803988 -22.3125 13.125 C-22.86228516 13.68832031 -23.41207031 14.25164063 -23.97851562 14.83203125 C-25.32595438 16.21462058 -26.66394273 17.60640916 -28 19 C-28.33 18.34 -28.66 17.68 -29 17 C-25.69861474 9.29676772 -17.77377125 4.32376007 -10.4765625 0.8671875 C-6.79585613 -0.42164028 -3.86269753 -0.35765718 0 0 Z " fill="#CBCED3" transform="translate(502,632)"/>
<path d="M0 0 C0.99 0 1.98 0 3 0 C2.67 0.99 2.34 1.98 2 3 C-20.11 3 -42.22 3 -65 3 C-65.33 2.34 -65.66 1.68 -66 1 C-33.33 1.495 -33.33 1.495 0 2 C0 1.34 0 0.68 0 0 Z " fill="#C4C6CD" transform="translate(445,417)"/>
<path d="M0 0 C14.44664301 2.62666237 26.96956082 9.84377005 39 18 C38.01 18.495 38.01 18.495 37 19 C34.64018187 18.06421005 32.30368736 17.06652192 30 16 C30 15.34 30 14.68 30 14 C29.175 13.7525 28.35 13.505 27.5 13.25 C23.47626529 11.81295189 19.78020976 9.97645485 16 8 C16 7.34 16 6.68 16 6 C12.34543185 5.24758891 8.68266103 4.59950296 5 4 C5 3.34 5 2.68 5 2 C3.35 1.67 1.7 1.34 0 1 C0 0.67 0 0.34 0 0 Z " fill="#B8BDC4" transform="translate(558,307)"/>
<path d="M0 0 C0.66 0.33 1.32 0.66 2 1 C2 1.66 2 2.32 2 3 C-1.0197921 4.43969458 -4.04102035 5.87635087 -7.0625 7.3125 C-7.91005859 7.71662109 -8.75761719 8.12074219 -9.63085938 8.53710938 C-23.63313472 15.18683859 -23.63313472 15.18683859 -29 16 C-24.67589098 12.6368041 -20.69366785 10.15658369 -15.4375 8.5625 C-11.59840581 7.35448189 -9.76743259 5.95192809 -7 3 C-4.69301037 1.71542623 -2.5129027 0.88416947 0 0 Z " fill="#B3B8C0" transform="translate(358,194)"/>
<path d="M0 0 C0.66 0.33 1.32 0.66 2 1 C2 8.92 2 16.84 2 25 C1.34 25 0.68 25 0 25 C0.04125 25.9075 0.0825 26.815 0.125 27.75 C0.00381991 30.90068238 -0.2083967 32.45403741 -2 35 C-3.485 35.495 -3.485 35.495 -5 36 C-4.625 33.5625 -4.625 33.5625 -4 31 C-3.34 30.67 -2.68 30.34 -2 30 C0.63429035 20.24336908 0.21572267 10.00713512 0 0 Z " fill="#B4B9C1" transform="translate(573,407)"/>
<path d="M0 0 C3.88596846 0.63937324 7.20238348 1.81361278 10.8125 3.375 C19.72594902 7.20749911 19.72594902 7.20749911 29 10 C28.67 10.66 28.34 11.32 28 12 C25.03 11.505 25.03 11.505 22 11 C22 10.34 22 9.68 22 9 C20.9790625 9.061875 20.9790625 9.061875 19.9375 9.125 C16.40075832 8.97450035 13.36676967 8.05624147 10 7 C10 6.34 10 5.68 10 5 C9.46375 4.896875 8.9275 4.79375 8.375 4.6875 C5.37497956 3.81907303 2.7620465 2.44379704 0 1 C0 0.67 0 0.34 0 0 Z " fill="#B5BAC1" transform="translate(387,790)"/>
<path d="M0 0 C-2.75927344 2.75927344 -5.21154052 2.51783243 -9 3 C-9.33 3.33 -9.66 3.66 -10 4 C-12.18292774 4.23481693 -14.37203174 4.41363323 -16.5625 4.5625 C-17.76003906 4.64628906 -18.95757812 4.73007812 -20.19140625 4.81640625 C-21.11824219 4.87699219 -22.04507812 4.93757813 -23 5 C-17.66836338 1.44557559 -6.15654398 -3.07827199 0 0 Z " fill="#9DA3AD" transform="translate(486,303)"/>
<path d="M0 0 C6.74588099 0.2982173 12.85321344 0.57405717 19.078125 3.30078125 C22.59125955 4.57893386 26.29214738 4.75109323 30 5 C30 5.33 30 5.66 30 6 C26.37 6 22.74 6 19 6 C19 5.34 19 4.68 19 4 C17.081875 4.0309375 17.081875 4.0309375 15.125 4.0625 C11.25 4.125 11.25 4.125 9 3 C7.46331135 2.77532169 5.92031946 2.59203195 4.375 2.4375 C3.55773437 2.35371094 2.74046875 2.26992187 1.8984375 2.18359375 C1.27195312 2.12300781 0.64546875 2.06242188 0 2 C0 1.34 0 0.68 0 0 Z " fill="#C8CCD1" transform="translate(565,165)"/>
<path d="M0 0 C0.66 0.66 1.32 1.32 2 2 C-3 7 -8 12 -13 17 C-11.05672098 10.09056348 -5.04378761 4.8420361 0 0 Z " fill="#2F3949" transform="translate(470,376)"/>
<path d="M0 0 C0.33 0.99 0.66 1.98 1 3 C0.01 4.485 0.01 4.485 -1 6 C-1.38499891 7.65549531 -1.72793135 9.3222433 -2 11 C-2.66 11 -3.32 11 -4 11 C-4 11.99 -4 12.98 -4 14 C-4.66 14 -5.32 14 -6 14 C-6 15.32 -6 16.64 -6 18 C-6.99 18 -7.98 18 -9 18 C-7.65072455 13.46152802 -5.80840652 9.68067754 -3.375 5.625 C-2.74335938 4.56539063 -2.11171875 3.50578125 -1.4609375 2.4140625 C-0.73777344 1.21910156 -0.73777344 1.21910156 0 0 Z " fill="#AAB0B8" transform="translate(205,331)"/>
<path d="M0 0 C2 1.8125 2 1.8125 4 4 C4 4.99 4 5.98 4 7 C4.66 7 5.32 7 6 7 C6 8.98 6 10.96 6 13 C6.66 13 7.32 13 8 13 C8.33 15.31 8.66 17.62 9 20 C8.34 20 7.68 20 7 20 C6.01811439 17.41767086 5.03940411 14.83421317 4.0625 12.25 C3.78470703 11.52039063 3.50691406 10.79078125 3.22070312 10.0390625 C2.95322266 9.33007812 2.68574219 8.62109375 2.41015625 7.890625 C2.16402588 7.24125977 1.91789551 6.59189453 1.66430664 5.92285156 C0.98874565 3.967424 0.47199954 2.01334243 0 0 Z " fill="#B2B7BE" transform="translate(793,394)"/>
<path d="M0 0 C3.28465896 2.79196011 5.01321958 6.23196817 7 10 C7 10.66 7 11.32 7 12 C7.66 12 8.32 12 9 12 C9 13.32 9 14.64 9 16 C9.66 16 10.32 16 11 16 C10.67 17.32 10.34 18.64 10 20 C8.70623653 17.91794343 7.41493446 15.83442696 6.125 13.75 C5.76019531 13.16347656 5.39539063 12.57695313 5.01953125 11.97265625 C0 3.85014205 0 3.85014205 0 0 Z " fill="#BDC1C7" transform="translate(196,676)"/>
<path d="M0 0 C2 1 2 1 3.03515625 3.66015625 C4.88704158 9.79320613 6.49841212 15.60475457 7 22 C5 21 5 21 3.96484375 18.33984375 C2.11295842 12.20679387 0.50158788 6.39524543 0 0 Z " fill="#B0B5BC" transform="translate(803,418)"/>
<path d="M0 0 C0 0.33 0 0.66 0 1 C-3.82320557 2.42258812 -6.91281305 3.24042276 -11 3 C-11 3.66 -11 4.32 -11 5 C-13.31 5.33 -15.62 5.66 -18 6 C-11.91849859 0.78728451 -7.82135415 -0.26513065 0 0 Z " fill="#B6BBC2" transform="translate(502,632)"/>
<path d="M0 0 C0 0.99 0 1.98 0 3 C-7.64765101 6.91275168 -7.64765101 6.91275168 -11 8 C-11.99 7.67 -12.98 7.34 -14 7 C-12.04480616 5.82807953 -10.0857461 4.6626071 -8.125 3.5 C-7.03445313 2.8503125 -5.94390625 2.200625 -4.8203125 1.53125 C-2 0 -2 0 0 0 Z " fill="#A8ADB6" transform="translate(675,770)"/>
<path d="M0 0 C2.62908027 1.31454014 3.04130316 2.71731284 4.375 5.3125 C6.22140018 8.75326947 7.99173149 11.4374009 11 14 C10.67 14.99 10.34 15.98 10 17 C0 4.67123288 0 4.67123288 0 0 Z " fill="#B9BEC4" transform="translate(467,690)"/>
<path d="M0 0 C1.1700097 3.91736581 0.69584017 6.97959015 0 11 C-0.66 11 -1.32 11 -2 11 C-2.33 12.98 -2.66 14.96 -3 17 C-3.33 17 -3.66 17 -4 17 C-4.56131481 10.54487966 -2.63463787 5.84560277 0 0 Z " fill="#9DA3AD" transform="translate(479,538)"/>
<path d="M0 0 C0.66 0 1.32 0 2 0 C1.80859375 1.79296875 1.80859375 1.79296875 1 4 C-1.21484375 5.73828125 -1.21484375 5.73828125 -3.9375 7.3125 C-4.83339844 7.84488281 -5.72929688 8.37726562 -6.65234375 8.92578125 C-7.81443359 9.45751953 -7.81443359 9.45751953 -9 10 C-9.66 9.67 -10.32 9.34 -11 9 C-9.93458984 8.15115234 -9.93458984 8.15115234 -8.84765625 7.28515625 C-7.92855469 6.55167969 -7.00945313 5.81820312 -6.0625 5.0625 C-5.14597656 4.33160156 -4.22945312 3.60070312 -3.28515625 2.84765625 C-1.59148731 1.48061289 -1.59148731 1.48061289 0 0 Z " fill="#A8AEB6" transform="translate(704,748)"/>
<path d="M0 0 C0.33 0.66 0.66 1.32 1 2 C0.06553465 4.03144641 -0.93224776 6.03533587 -2 8 C-2.99 8 -3.98 8 -5 8 C-5.33 9.98 -5.66 11.96 -6 14 C-6.99 14 -7.98 14 -9 14 C-6.52762595 8.86506928 -3.63944182 4.39242979 0 0 Z " fill="#A0A7B0" transform="translate(403,350)"/>
<path d="M0 0 C-5.36190101 2.61407872 -10.03435204 4.49228528 -16 5 C-16 4.34 -16 3.68 -16 3 C-5.16921546 -1.59487829 -5.16921546 -1.59487829 0 0 Z " fill="#BFC3C9" transform="translate(636,793)"/>
<path d="M0 0 C1.65322266 0.01740234 1.65322266 0.01740234 3.33984375 0.03515625 C4.44457031 0.04417969 5.54929687 0.05320313 6.6875 0.0625 C7.54214844 0.07410156 8.39679688 0.08570313 9.27734375 0.09765625 C9.27734375 0.42765625 9.27734375 0.75765625 9.27734375 1.09765625 C7.99859375 1.22140625 6.71984375 1.34515625 5.40234375 1.47265625 C0.97078649 1.95022502 -3.31352839 2.80073502 -7.65625 3.79296875 C-9.72265625 4.09765625 -9.72265625 4.09765625 -11.72265625 3.09765625 C-9.78995043 1.16495043 -6.33624237 1.4710257 -3.72265625 1.09765625 C-2.72265625 0.09765625 -2.72265625 0.09765625 0 0 Z " fill="#C4C8CE" transform="translate(448.72265625,165.90234375)"/>
<path d="M0 0 C4.9753942 -0.3553853 7.61979109 0.76519954 12 3 C15.73771834 3.7136724 15.73771834 3.7136724 19 4 C19 4.33 19 4.66 19 5 C16.03 5 13.06 5 10 5 C10 4.34 10 3.68 10 3 C8.9171875 3.061875 8.9171875 3.061875 7.8125 3.125 C4.79270631 2.99078695 2.73064271 2.24829381 0 1 C0 0.67 0 0.34 0 0 Z " fill="#C7CBD0" transform="translate(416,802)"/>
<path d="M0 0 C0.33 0.66 0.66 1.32 1 2 C0.67 2.99 0.34 3.98 0 5 C-0.66 5 -1.32 5 -2 5 C-2 5.66 -2 6.32 -2 7 C-3.65 7.66 -5.3 8.32 -7 9 C-5.44499019 5.18315774 -2.96404505 2.80804268 0 0 Z " fill="#A7ADB5" transform="translate(411,341)"/>
<path d="M0 0 C4.8274799 1.41292095 8.7162359 3.42974154 13 6 C10 7 10 7 7.7734375 6.07421875 C6.58621094 5.38779297 6.58621094 5.38779297 5.375 4.6875 C4.57835937 4.23761719 3.78171875 3.78773438 2.9609375 3.32421875 C1 2 1 2 0 0 Z " fill="#A8AEB6" transform="translate(682,203)"/>
<path d="M0 0 C0.99 0 1.98 0 3 0 C2.67 0.99 2.34 1.98 2 3 C-2.95 3 -7.9 3 -13 3 C-13 2.67 -13 2.34 -13 2 C-8.71 2 -4.42 2 0 2 C0 1.34 0 0.68 0 0 Z " fill="#C7C9D0" transform="translate(445,417)"/>
<path d="M0 0 C0.33 0.66 0.66 1.32 1 2 C0.67 2.99 0.34 3.98 0 5 C-0.66 5 -1.32 5 -2 5 C-2 5.66 -2 6.32 -2 7 C-3.32 7.33 -4.64 7.66 -6 8 C-4.26440562 4.942048 -2.61527381 2.36620011 0 0 Z " fill="#B3B8C0" transform="translate(245,278)"/>
<path d="M0 0 C2.97 0.495 2.97 0.495 6 1 C6 1.66 6 2.32 6 3 C6.99 3 7.98 3 9 3 C9.33 3.99 9.66 4.98 10 6 C6.00499382 4.6302836 3.19990508 2.74277578 0 0 Z " fill="#C3C6CC" transform="translate(671,254)"/>
<path d="M0 0 C3.3 1.65 6.6 3.3 10 5 C6 6 6 6 3 5 C3 4.34 3 3.68 3 3 C2.01 2.67 1.02 2.34 0 2 C0 1.34 0 0.68 0 0 Z " fill="#B8BCC3" transform="translate(695,210)"/>
<path d="M0 0 C0.66 0 1.32 0 2 0 C2 0.66 2 1.32 2 2 C2.99 2 3.98 2 5 2 C5.33 3.98 5.66 5.96 6 8 C1.125 3.375 1.125 3.375 0 0 Z " fill="#BCC0C6" transform="translate(228,727)"/>
</svg>
