<?xml version="1.0" encoding="UTF-8"?>
<svg version="1.1" xmlns="http://www.w3.org/2000/svg" width="798" height="798">
<path d="M0 0 C263.34 0 526.68 0 798 0 C798 263.34 798 526.68 798 798 C534.66 798 271.32 798 0 798 C0 534.66 0 271.32 0 0 Z " fill="#FEFEFE" transform="translate(0,0)"/>
<path d="M0 0 C263.34 0 526.68 0 798 0 C798 263.34 798 526.68 798 798 C534.66 798 271.32 798 0 798 C0 534.66 0 271.32 0 0 Z M60.34326172 63.51953125 C41.18108623 84.63902092 30.61083715 109.22060301 31.87890625 137.9296875 C33.80031418 170.779565 51.97447344 192.44994996 74.28930664 214.62988281 C76.25268476 216.59073638 78.21378608 218.55386143 80.17498779 220.51689148 C84.38029181 224.72375991 88.59100354 228.92515021 92.80555916 233.12274933 C98.8989017 239.19159249 104.98383124 245.26881501 111.06681388 251.34804007 C120.93898386 261.21366263 130.81781868 271.07258291 140.70092773 280.92724609 C150.29496017 290.49369354 159.8858009 300.06332248 169.47241211 309.63720703 C170.06445972 310.22846647 170.65650733 310.81972591 171.26649577 311.4289023 C174.23694198 314.39543307 177.20732602 317.36202607 180.17767918 320.32865 C204.77549231 344.89542048 229.38415684 369.45129608 254 394 C249.47700195 399.42447311 244.68128034 404.44913795 239.67033386 409.42300415 C238.84667983 410.24469035 238.0230258 411.06637654 237.17441255 411.91296232 C234.90403189 414.17698944 232.63141737 416.43874577 230.35785377 418.69957566 C227.89983301 421.14499061 225.44480599 423.5934076 222.98948669 426.04153442 C218.73807746 430.27985213 214.48505147 434.51654169 210.2311306 438.75233841 C203.49875923 445.45641698 196.77223088 452.16634169 190.04670715 458.87728882 C187.74169933 461.17717281 185.43666641 463.47703165 183.13163471 465.77689171 C182.55565033 466.35159006 181.97966594 466.92628841 181.38622748 467.51840187 C174.83762374 474.05228832 168.28813796 480.58529016 161.73803711 487.11767578 C161.13968673 487.71441142 160.54133635 488.31114706 159.92485414 488.92596559 C150.23580709 498.58849668 140.5411555 508.24538835 130.8448697 517.90065463 C120.87168013 527.83201415 110.9062351 537.77109988 100.94743139 547.71688497 C94.81502537 553.8407255 88.67651561 559.958313 82.5298482 566.06783943 C78.31243656 570.26085241 74.10247437 574.46125183 69.89813539 578.6673723 C67.4777847 581.08829696 65.05439338 583.50594126 62.62193298 585.91470337 C50.74113156 597.69522288 39.88087097 608.97887649 32.625 624.25 C32.29612793 624.92691895 31.96725586 625.60383789 31.62841797 626.30126953 C21.7124192 647.05464315 20.30277431 672.91158457 27.45703125 694.77734375 C27.96194025 696.1883001 28.47621467 697.59594165 29 699 C29.38551025 700.05598389 29.38551025 700.05598389 29.77880859 701.13330078 C39.90423996 728.12823536 60.81104174 747.94560359 86.60839844 759.96777344 C92.88641743 762.67739617 99.3524166 764.45608864 106 766 C107.04414062 766.24363281 108.08828125 766.48726562 109.1640625 766.73828125 C130.47787096 770.96082821 153.08621932 766.63925848 172.4375 757.1875 C173.05085205 756.89278809 173.6642041 756.59807617 174.29614258 756.29443359 C183.83829147 751.38485438 191.6015181 743.69532306 199.09902954 736.15493774 C199.95695268 735.30013459 200.81487582 734.44533143 201.69879663 733.56462514 C204.05135945 731.21860525 206.39942901 728.86825464 208.74559808 726.51585126 C211.2871738 723.96971759 213.83453846 721.42938623 216.38113403 718.88827515 C221.35578082 713.9224855 226.32504998 708.95134856 231.29236145 703.97822244 C235.32734743 699.93870951 239.36429366 695.9011653 243.40262985 691.86500168 C243.97855009 691.28938791 244.55447033 690.71377413 245.1478427 690.12071752 C246.3179189 688.95128079 247.48799957 687.78184854 248.65808468 686.61242072 C259.60665194 675.66954489 270.54910033 664.72056699 281.48943917 653.76946549 C290.88222359 644.36772755 300.280266 634.97127229 309.68212891 625.57861328 C320.60792036 614.66351258 331.53047649 603.7451912 342.44784868 592.82166898 C343.61040419 591.65847637 344.77296388 590.49528794 345.9355278 589.33210373 C346.50751286 588.75981012 347.07949792 588.18751651 347.66881586 587.59788067 C351.70566567 583.55930174 355.74483616 579.52305277 359.78490067 575.48768997 C364.69998018 570.57820518 369.61150969 565.66520236 374.51844855 560.7475806 C377.02328747 558.23746885 379.52972955 555.72901369 382.04049683 553.22483063 C384.75601585 550.51632569 387.46380988 547.80018417 390.17080688 545.0831604 C390.97330293 544.2851258 391.77579898 543.48709119 392.60261309 542.66487372 C393.32099238 541.94127893 394.03937167 541.21768415 394.77952003 540.47216225 C395.40595394 539.84540364 396.03238784 539.21864503 396.67780459 538.57289374 C398.2144891 537.08730849 398.2144891 537.08730849 398 535 C403.82582744 539.9558943 409.30367851 545.17277324 414.68838501 550.60177612 C415.52655427 551.44261879 416.36472354 552.28346146 417.22829187 553.14978421 C419.5337433 555.46350521 421.83691341 557.77946894 424.1391542 560.09638381 C426.63089366 562.60281458 429.12567446 565.10621468 431.62017822 567.6098938 C435.37937493 571.38344384 439.13761375 575.15794364 442.89472203 578.93357302 C450.28231327 586.35756119 457.67620408 593.77524681 465.07235718 601.19070435 C466.2394839 602.36094135 467.40660693 603.53118205 468.5737263 604.70142639 C470.34215415 606.47457976 472.11058565 608.24772949 473.87903196 610.02086445 C480.53579308 616.69532493 487.19185826 623.37047899 493.84716797 630.04638672 C494.45503825 630.65613406 495.06290854 631.2658814 495.68919913 631.89410593 C505.53345294 641.76923192 515.37028957 651.65171802 525.20485897 661.53648745 C535.32310074 671.70593457 545.45098284 681.86571126 555.58733499 692.01710713 C561.82727078 698.26697305 568.05945018 704.52437075 574.28165822 710.79188706 C578.5519049 715.0918481 582.83139709 719.38246508 587.11806329 723.66605698 C589.58496876 726.13175223 592.04775219 728.60120313 594.4994545 731.08202362 C615.90559677 752.70746054 638.76278898 767.64011028 670.125 768.1875 C695.25297637 767.9151771 720.10072038 759.87202125 739 743 C739.82757812 742.31421875 740.65515625 741.6284375 741.5078125 740.921875 C760.80093972 724.51976685 772.01409533 699.90742145 775 675 C776.85771948 649.472944 769.51659286 624.36694425 753.1396656 604.55060387 C746.37695117 596.7432462 738.85401559 589.59016863 731.53955352 582.30742228 C729.0145561 579.79114296 726.49542473 577.26900198 723.97554016 574.74760437 C719.61964469 570.39066529 715.26013175 566.03737386 710.89806938 561.68660927 C704.59143425 555.39629765 698.29039486 549.10040473 691.99066377 542.80317964 C681.76713926 532.58402154 671.5391658 522.36932843 661.30834961 512.1574707 C651.37597984 502.24348712 641.44573381 492.32738416 631.51831055 482.40844727 C630.90535397 481.79601613 630.29239739 481.183585 629.66086637 480.55259535 C626.58554892 477.47988817 623.5102729 474.40713952 620.43501747 471.33437026 C594.96309737 445.88314979 569.48393788 420.43918695 544 395 C548.45065342 389.66864635 553.15165045 384.71511441 558.07737732 379.82255554 C559.27209777 378.6297285 559.27209777 378.6297285 560.49095398 377.41280395 C563.14842299 374.76069316 565.80945317 372.11218479 568.47045898 369.46362305 C570.38138221 367.5578956 572.29209434 365.65195889 574.20251465 363.74572754 C578.31144457 359.64648307 582.42204273 355.54891781 586.53362846 351.45233727 C593.03815698 344.97125261 599.53743896 338.48492058 606.03590393 331.99775696 C608.26273311 329.77492865 610.4895962 327.55213432 612.71646976 325.32935047 C613.27289919 324.77394027 613.82932862 324.21853007 614.40261955 323.64628926 C620.72790505 317.33273233 627.05426594 311.0202535 633.38110352 304.70825195 C634.24801456 303.84336955 634.24801456 303.84336955 635.13243897 302.96101478 C644.4976757 293.61795776 653.86675057 284.27875685 663.23679804 274.94052484 C672.8713593 265.33839628 682.50011858 255.73047514 692.12397629 246.11761886 C698.05224664 240.19655515 703.98519113 234.28025498 709.92431665 228.37007926 C713.9965344 224.31691612 718.06322178 220.25825807 722.12567883 216.19531211 C724.46603545 213.85501825 726.80950507 211.51808905 729.15810585 209.18605232 C731.71098118 206.65042908 734.25433839 204.10561177 736.79563904 201.55839539 C737.52989135 200.83356372 738.26414366 200.10873206 739.02064604 199.36193579 C745.98893022 192.33951777 751.69193668 184.41330364 756.125 175.5625 C756.45701416 174.90145264 756.78902832 174.24040527 757.13110352 173.55932617 C761.00870766 165.4379154 763.10236718 156.76446415 765 148 C765.17885742 147.19159668 765.35771484 146.38319336 765.54199219 145.55029297 C769.79316343 121.87879252 763.03691552 96.59408257 749.5625 77 C745.40384419 71.31674232 740.86168311 66.08801845 736 61 C735.46246094 60.39929688 734.92492187 59.79859375 734.37109375 59.1796875 C720.5940488 44.33224557 701.35825675 35.67337208 682 31 C680.99839844 30.75378906 679.99679687 30.50757812 678.96484375 30.25390625 C655.7592524 25.52140169 629.60401089 30.21234953 609.66223145 43.11972046 C599.35945404 50.39636112 590.37870552 59.33762432 581.53125 68.2734375 C580.39640022 69.41203411 579.26109572 70.55017764 578.12536621 71.68789673 C575.17694292 74.64384851 572.23457526 77.60575284 569.2935791 80.5690918 C566.29577192 83.58750597 563.2921736 86.60014568 560.2890625 89.61328125 C555.01745391 94.90387515 549.75081962 100.19937477 544.48791504 105.49862671 C542.75655073 107.23935675 541.02042805 108.97536159 539.28063965 110.70767212 C537.41585408 112.58201468 535.68666136 114.46833973 534 116.5 C531.49783578 119.51397054 528.77672477 122.23715577 526 125 C525.14760081 125.85239919 524.29520163 126.70479837 523.41697216 127.58302784 C482.27798144 168.72201856 441.13899072 209.86100928 400 251 C394.77744653 246.63428166 389.90743779 242.04346259 385.11039734 237.2171936 C384.34628676 236.45252632 383.58217618 235.68785903 382.79491073 234.90002 C380.2485042 232.35059006 377.70569335 229.79760427 375.1628418 227.24462891 C373.33279573 225.41102488 371.50251318 223.57765685 369.67201233 221.74450684 C365.73802216 217.80423709 361.80576124 213.86224859 357.87457848 209.91917801 C352.18965681 204.21724557 346.50099518 198.51905568 340.81123302 192.82195382 C331.57726492 183.57605772 322.3448074 174.32865513 313.11401367 165.07958984 C312.56224246 164.52672851 312.01047124 163.97386717 311.44197968 163.40425245 C303.59705741 155.54369156 295.75361894 147.68165171 287.91075865 139.81903355 C287.35747148 139.26435306 286.80418431 138.70967258 286.23413086 138.13818359 C285.68151955 137.58417876 285.12890825 137.03017392 284.55955114 136.45938106 C275.35785277 127.234679 266.15232109 118.01381342 256.9436143 108.79610765 C251.26370359 103.1103353 245.58708251 97.4213169 239.91460649 91.72812705 C235.5767452 87.37498669 231.23376953 83.02698323 226.88883018 78.6809082 C225.10280167 76.89272237 223.31850715 75.10280281 221.53602982 73.31107712 C219.11346384 70.87642337 216.68491136 68.44790763 214.25468445 66.02090454 C213.18501066 64.94146904 213.18501066 64.94146904 212.09372729 63.84022677 C211.44615051 63.19601539 210.79857373 62.551804 210.13137341 61.88807106 C209.5709035 61.32629964 209.0104336 60.76452823 208.43297976 60.18573344 C207.05317678 58.78749667 207.05317678 58.78749667 205 59 C204.67 58.01 204.34 57.02 204 56 C192.03001425 42.68468444 173.86418489 35.30026806 157 31 C156.18144531 30.77183594 155.36289063 30.54367188 154.51953125 30.30859375 C120.19668225 21.86080131 83.35119548 38.59760648 60.34326172 63.51953125 Z " fill="#76A7EA" transform="translate(0,0)"/>
</svg>
