<?xml version="1.0" encoding="UTF-8"?>
<svg version="1.1" xmlns="http://www.w3.org/2000/svg" width="1024" height="1024">
<path d="M0 0 C337.92 0 675.84 0 1024 0 C1024 337.92 1024 675.84 1024 1024 C686.08 1024 348.16 1024 0 1024 C0 686.08 0 348.16 0 0 Z " fill="#7DAAE8" transform="translate(0,0)"/>
<path d="M0 0 C2.23587229 0.01846607 4.47133415 0.02050785 6.70727539 0.02026367 C17.63179364 0.05806317 17.63179364 0.05806317 18.77954102 1.20581055 C20.89785432 1.57928727 23.02470697 1.90490684 25.15454102 2.20581055 C28.51900119 2.68325057 31.55448399 3.13079154 34.77954102 4.20581055 C34.77954102 4.86581055 34.77954102 5.52581055 34.77954102 6.20581055 C35.44598633 6.13491211 36.11243164 6.06401367 36.79907227 5.9909668 C40.79557502 6.27905022 43.93387433 7.8921484 47.46704102 9.64331055 C48.1431543 9.96879883 48.81926758 10.29428711 49.51586914 10.62963867 C51.9466121 11.80268378 54.36550414 12.99879211 56.77954102 14.20581055 C56.77954102 14.86581055 56.77954102 15.52581055 56.77954102 16.20581055 C57.33512695 16.30120117 57.89071289 16.3965918 58.46313477 16.49487305 C73.29666647 21.04749155 86.65902304 39.0444058 93.92553711 52.2956543 C106.27046053 76.19672265 111.13506377 103.65236995 104.77954102 130.20581055 C104.62888184 130.83970703 104.47822266 131.47360352 104.32299805 132.12670898 C102.32061422 140.2862788 99.69773246 147.98275338 95.96704102 155.51831055 C95.6723291 156.11490479 95.37761719 156.71149902 95.07397461 157.32617188 C91.81179441 163.59861664 87.73941401 169.36118381 83.77954102 175.20581055 C82.42781239 177.22435938 81.0775548 179.24389406 79.72875977 181.2644043 C79.04128662 182.29299561 78.35381348 183.32158691 77.64550781 184.38134766 C70.32262377 195.34638785 63.04898974 206.34181472 55.83306885 217.37756348 C48.49733286 228.59583133 41.1328588 239.79500924 33.75723267 250.98709106 C32.50213523 252.89164648 31.24722522 254.79632543 29.99252319 256.70114136 C21.9599202 268.89514981 13.89380385 281.06598603 5.77954102 293.20581055 C5.38052582 293.80283783 4.98151062 294.39986511 4.57040405 295.01498413 C3.46959837 296.66196298 2.3687118 298.30888775 1.26782227 299.95581055 C-6.56278595 311.67178584 -14.34263041 323.41749412 -22.0402832 335.22143555 C-29.33820018 346.4046103 -36.68463981 357.55570867 -44.03295898 368.70581055 C-44.64684479 369.6377121 -45.26073059 370.56961365 -45.89321899 371.52975464 C-51.97109236 380.75559372 -58.05713302 389.97552229 -64.19311523 399.1628418 C-71.12469947 409.54170582 -77.98387622 419.9680913 -84.84545898 430.39331055 C-92.55370795 442.10407277 -100.26667654 453.81087135 -108.05825806 465.46640015 C-110.03304714 468.42197227 -112.00331843 471.38055457 -113.97436523 474.33862305 C-117.3712139 479.43492911 -120.77144483 484.52896857 -124.17318726 489.62200928 C-126.56064411 493.19684769 -128.94711936 496.77234088 -131.33349609 500.34790039 C-132.54759926 502.16653693 -133.76211604 503.98489741 -134.97705078 505.80297852 C-141.52631108 515.60436443 -148.03960753 525.4244265 -154.42417908 535.33401489 C-158.45558798 541.58711999 -162.57669141 547.77649114 -166.72045898 553.95581055 C-172.87289896 563.15371405 -178.97790256 572.38098201 -185.03295898 581.64331055 C-193.25817016 594.22216518 -201.51323483 606.78117279 -209.78295898 619.33081055 C-210.41154816 620.28476715 -211.04013733 621.23872375 -211.68777466 622.22158813 C-219.79577431 634.5236825 -227.93603145 646.80311539 -236.1237793 659.05224609 C-240.80086087 666.05641036 -245.43159788 673.08919712 -250.03295898 680.14331055 C-267.98576522 707.66252325 -286.10150839 735.07425305 -304.35140991 762.39724731 C-312.39895381 774.4471216 -320.39882621 786.52665922 -328.34545898 798.64331055 C-342.94536582 820.89090702 -342.94536582 820.89090702 -348.01116943 828.53543091 C-349.10715574 830.19154327 -350.19834946 831.85082431 -351.28930664 833.51025391 C-368.25450544 859.05642485 -390.96636435 877.96805302 -421.4675293 884.7019043 C-450.98815618 890.62806913 -482.53120596 886.40965297 -508.04467773 869.78393555 C-520.91228159 861.00893268 -532.27870192 850.09748602 -542.40795898 838.3034668 C-544.47896239 835.90663742 -546.59649116 833.55580873 -548.72045898 831.20581055 C-551.41029329 828.22518334 -554.08356262 825.23335822 -556.72045898 822.20581055 C-562.49869256 815.57744605 -568.42215149 809.07937097 -574.34545898 802.58081055 C-577.75532372 798.83468796 -581.12024871 795.05640543 -584.44311523 791.2331543 C-587.27842859 787.99902764 -590.16972662 784.81558289 -593.05249023 781.6237793 C-594.86093456 779.60679364 -596.64033238 777.57089459 -598.40795898 775.51831055 C-601.91312028 771.4877855 -605.56798537 767.60219447 -609.22045898 763.70581055 C-614.44555291 758.12781619 -619.56114537 752.49122162 -624.5246582 746.6784668 C-631.47638757 738.54929835 -638.56158178 730.59065581 -645.93139648 722.83666992 C-649.57222055 719.0002314 -653.10139893 715.09021335 -656.56860352 711.09619141 C-658.90595009 708.42133558 -661.30986243 705.81492682 -663.72045898 703.20581055 C-667.35572341 699.25884601 -670.94813507 695.28281421 -674.45092773 691.2175293 C-675.82436494 689.65611614 -677.22922704 688.12231894 -678.64624023 686.6003418 C-679.47510742 685.70702148 -680.30397461 684.81370117 -681.15795898 683.89331055 C-681.93010742 683.07217773 -682.70225586 682.25104492 -683.49780273 681.4050293 C-685.22045898 679.20581055 -685.22045898 679.20581055 -685.22045898 676.20581055 C-685.80182617 675.95057617 -686.38319336 675.6953418 -686.98217773 675.43237305 C-693.14852176 672.05325957 -697.83221495 665.61356558 -702.37280273 660.33862305 C-704.45762448 657.93204234 -706.58567431 655.5681611 -708.72045898 653.20581055 C-711.41029329 650.22518334 -714.08356262 647.23335822 -716.72045898 644.20581055 C-722.49869256 637.57744605 -728.42215149 631.07937097 -734.34545898 624.58081055 C-737.86420465 620.71730442 -741.3352481 616.81961776 -744.74780273 612.86206055 C-746.19930007 611.1695402 -746.19930007 611.1695402 -747.91186523 609.67456055 C-749.22045898 608.20581055 -749.22045898 608.20581055 -749.22045898 605.20581055 C-749.81213867 604.94026367 -750.40381836 604.6747168 -751.01342773 604.40112305 C-756.7763724 601.27995301 -761.04162412 595.34463929 -765.27124023 590.44018555 C-767.55066592 587.82729679 -769.88258252 585.26651034 -772.22045898 582.70581055 C-775.67757849 578.91497211 -779.09210455 575.09551485 -782.45092773 571.2175293 C-783.72718925 569.76659181 -785.02415682 568.33377611 -786.33374023 566.9128418 C-809.22045898 542.04972246 -809.22045898 542.04972246 -809.22045898 530.20581055 C-809.88045898 530.20581055 -810.54045898 530.20581055 -811.22045898 530.20581055 C-811.42541992 529.42334961 -811.63038086 528.64088867 -811.84155273 527.8347168 C-812.1109668 526.82280273 -812.38038086 525.81088867 -812.65795898 524.76831055 C-812.92479492 523.75897461 -813.19163086 522.74963867 -813.46655273 521.7097168 C-813.98023976 519.28829053 -813.98023976 519.28829053 -815.22045898 518.20581055 C-815.55379232 515.87247721 -815.88712565 513.53914388 -816.22045898 511.20581055 C-816.55045898 510.87581055 -816.88045898 510.54581055 -817.22045898 510.20581055 C-817.30907891 507.39417675 -817.33568254 504.60722799 -817.31811523 501.7956543 C-817.31670029 500.95361954 -817.31528534 500.11158478 -817.31382751 499.24403381 C-817.30821162 496.5437572 -817.29565647 493.84356227 -817.28295898 491.14331055 C-817.27794603 489.31713987 -817.27338277 487.49096789 -817.26928711 485.66479492 C-817.25823703 481.17843513 -817.24096178 476.6921367 -817.22045898 472.20581055 C-816.56045898 472.20581055 -815.90045898 472.20581055 -815.22045898 472.20581055 C-815.25526367 471.54194336 -815.29006836 470.87807617 -815.32592773 470.1940918 C-815.49345232 464.72959923 -815.23614866 461.84533313 -812.22045898 457.20581055 C-811.86236963 455.59024462 -811.55500237 453.96307084 -811.28295898 452.33081055 C-810.42602141 447.51323713 -808.97190891 444.24700262 -806.22045898 440.20581055 C-805.56045898 439.87581055 -804.90045898 439.54581055 -804.22045898 439.20581055 C-803.57077148 437.56612305 -803.57077148 437.56612305 -802.90795898 435.89331055 C-801.38737446 432.14858747 -799.43824341 430.69228033 -796.22045898 428.20581055 C-795.08778672 426.79066256 -793.98646887 425.35015875 -792.90795898 423.89331055 C-788.70927931 418.33166079 -783.73074664 414.18199445 -778.28295898 409.89331055 C-776.13065024 408.36707297 -776.13065024 408.36707297 -775.22045898 406.20581055 C-773.24156938 405.47887151 -771.24091341 404.80764804 -769.22045898 404.20581055 C-769.22045898 403.54581055 -769.22045898 402.88581055 -769.22045898 402.20581055 C-763.40738164 397.4826852 -756.98982577 393.47743241 -749.22045898 394.20581055 C-749.22045898 393.54581055 -749.22045898 392.88581055 -749.22045898 392.20581055 C-747.24045898 392.20581055 -745.26045898 392.20581055 -743.22045898 392.20581055 C-743.22045898 391.54581055 -743.22045898 390.88581055 -743.22045898 390.20581055 C-739.92045898 390.20581055 -736.62045898 390.20581055 -733.22045898 390.20581055 C-733.22045898 389.54581055 -733.22045898 388.88581055 -733.22045898 388.20581055 C-719.87764598 381.53440404 -697.13089094 386.90474441 -683.79467773 390.9519043 C-656.56489875 400.50464643 -637.82018531 420.50609707 -619.64526367 442.04980469 C-615.54710367 446.89063529 -611.26311634 451.53998546 -606.8762207 456.12036133 C-603.22045898 459.99239668 -603.22045898 459.99239668 -603.22045898 462.20581055 C-602.56045898 462.20581055 -601.90045898 462.20581055 -601.22045898 462.20581055 C-599.91577148 463.4987793 -599.91577148 463.4987793 -598.34545898 465.39331055 C-595.06412101 469.25815005 -591.67242788 472.99439567 -588.22045898 476.70581055 C-584.43348818 480.78819409 -580.70276527 484.90353457 -577.06030273 489.1159668 C-574.65375743 491.84951614 -572.18742702 494.52695061 -569.72045898 497.20581055 C-566.12030575 501.11560236 -562.57628234 505.0644759 -559.09545898 509.08081055 C-556.6749579 511.82404511 -554.19843489 514.51463961 -551.72045898 517.20581055 C-548.09955765 521.13865896 -544.53086973 525.10795067 -541.02905273 529.1472168 C-537.94023445 532.66299916 -534.76929238 536.10431547 -531.61499023 539.5612793 C-529.68510805 541.69265 -527.78622955 543.84175384 -525.90795898 546.01831055 C-522.04651824 550.46676366 -518.01163402 554.75183554 -513.9921875 559.05688477 C-511.05548919 562.20835971 -508.1577127 565.37931472 -505.34545898 568.64331055 C-499.57799757 575.27306399 -493.80753053 580.67600628 -486.22045898 585.20581055 C-485.61588867 585.57061523 -485.01131836 585.93541992 -484.38842773 586.3112793 C-478.52614277 588.73013201 -472.01493993 588.33359318 -465.78295898 588.26831055 C-464.54255859 588.26154297 -464.54255859 588.26154297 -463.27709961 588.25463867 C-461.25818752 588.24296866 -459.23931324 588.22503773 -457.22045898 588.20581055 C-457.22045898 587.54581055 -457.22045898 586.88581055 -457.22045898 586.20581055 C-456.47795898 585.97893555 -455.73545898 585.75206055 -454.97045898 585.51831055 C-451.64348491 583.93043655 -450.40829592 582.14571643 -448.22045898 579.20581055 C-445.55126903 576.39234006 -442.80483977 573.87198395 -439.78295898 571.45581055 C-434.97932186 567.40898277 -431.21015027 562.17488439 -429.22045898 556.20581055 C-428.56045898 556.20581055 -427.90045898 556.20581055 -427.22045898 556.20581055 C-426.97295898 555.52518555 -426.72545898 554.84456055 -426.47045898 554.14331055 C-424.97847991 550.63715972 -423.15210388 547.48960686 -421.22045898 544.20581055 C-420.56045898 544.20581055 -419.90045898 544.20581055 -419.22045898 544.20581055 C-418.56045898 542.22581055 -417.90045898 540.24581055 -417.22045898 538.20581055 C-416.56045898 538.20581055 -415.90045898 538.20581055 -415.22045898 538.20581055 C-414.56045898 536.22581055 -413.90045898 534.24581055 -413.22045898 532.20581055 C-412.56045898 532.20581055 -411.90045898 532.20581055 -411.22045898 532.20581055 C-410.56045898 530.22581055 -409.90045898 528.24581055 -409.22045898 526.20581055 C-408.56045898 526.20581055 -407.90045898 526.20581055 -407.22045898 526.20581055 C-407.02709961 525.59092773 -406.83374023 524.97604492 -406.63452148 524.3425293 C-406.24393555 523.13016602 -406.24393555 523.13016602 -405.84545898 521.89331055 C-405.59022461 521.09280273 -405.33499023 520.29229492 -405.07202148 519.4675293 C-404.22045898 517.20581055 -404.22045898 517.20581055 -402.22045898 514.20581055 C-401.56045898 514.20581055 -400.90045898 514.20581055 -400.22045898 514.20581055 C-400.22045898 513.21581055 -400.22045898 512.22581055 -400.22045898 511.20581055 C-399.22045898 510.20581055 -398.22045898 509.20581055 -397.22045898 508.20581055 C-396.50889648 506.72081055 -396.50889648 506.72081055 -395.78295898 505.20581055 C-394.22045898 502.20581055 -394.22045898 502.20581055 -392.22045898 500.76831055 C-389.87693353 499.19904157 -389.87693353 499.19904157 -388.72045898 495.64331055 C-387.04771183 491.80993165 -386.67374268 491.87675427 -383.22045898 490.20581055 C-381.92814257 487.16381583 -381.92814257 487.16381583 -381.22045898 484.20581055 C-380.56045898 484.20581055 -379.90045898 484.20581055 -379.22045898 484.20581055 C-378.95233398 483.27768555 -378.68420898 482.34956055 -378.40795898 481.39331055 C-377.27377599 478.3489246 -376.52361741 477.30869432 -374.22045898 475.20581055 C-373.89045898 474.21581055 -373.56045898 473.22581055 -373.22045898 472.20581055 C-372.56045898 472.20581055 -371.90045898 472.20581055 -371.22045898 472.20581055 C-370.95233398 471.27768555 -370.68420898 470.34956055 -370.40795898 469.39331055 C-369.27377599 466.3489246 -368.52361741 465.30869432 -366.22045898 463.20581055 C-365.89045898 462.21581055 -365.56045898 461.22581055 -365.22045898 460.20581055 C-364.56045898 460.20581055 -363.90045898 460.20581055 -363.22045898 460.20581055 C-362.95233398 459.27768555 -362.68420898 458.34956055 -362.40795898 457.39331055 C-361.27377599 454.3489246 -360.52361741 453.30869432 -358.22045898 451.20581055 C-357.89045898 450.21581055 -357.56045898 449.22581055 -357.22045898 448.20581055 C-356.56045898 448.20581055 -355.90045898 448.20581055 -355.22045898 448.20581055 C-354.95233398 447.27768555 -354.68420898 446.34956055 -354.40795898 445.39331055 C-353.27377599 442.3489246 -352.52361741 441.30869432 -350.22045898 439.20581055 C-349.89045898 438.21581055 -349.56045898 437.22581055 -349.22045898 436.20581055 C-348.56045898 436.20581055 -347.90045898 436.20581055 -347.22045898 436.20581055 C-347.11733398 435.61928711 -347.01420898 435.03276367 -346.90795898 434.4284668 C-346.11303942 431.85852797 -345.0429148 430.60157437 -343.22045898 428.64331055 C-341.10212761 426.35693846 -340.23128212 425.23827996 -339.22045898 422.20581055 C-338.23045898 422.20581055 -337.24045898 422.20581055 -336.22045898 422.20581055 C-336.22045898 421.21581055 -336.22045898 420.22581055 -336.22045898 419.20581055 C-335.56045898 419.20581055 -334.90045898 419.20581055 -334.22045898 419.20581055 C-334.11733398 418.09206055 -334.01420898 416.97831055 -333.90795898 415.83081055 C-333.56764648 414.03643555 -333.56764648 414.03643555 -333.22045898 412.20581055 C-332.23045898 411.54581055 -331.24045898 410.88581055 -330.22045898 410.20581055 C-330.09670898 409.60768555 -329.97295898 409.00956055 -329.84545898 408.39331055 C-329.22045898 406.20581055 -329.22045898 406.20581055 -326.84545898 403.89331055 C-323.76867768 400.74327255 -322.74119495 398.28778604 -321.22045898 394.20581055 C-320.56045898 394.20581055 -319.90045898 394.20581055 -319.22045898 394.20581055 C-318.56045898 392.22581055 -317.90045898 390.24581055 -317.22045898 388.20581055 C-316.56045898 388.20581055 -315.90045898 388.20581055 -315.22045898 388.20581055 C-314.99358398 387.31893555 -314.76670898 386.43206055 -314.53295898 385.51831055 C-313.03066731 381.72681251 -311.07954962 380.06490118 -308.22045898 377.20581055 C-307.72545898 376.05081055 -307.23045898 374.89581055 -306.72045898 373.70581055 C-305.08174017 369.88213332 -303.12993133 368.11528289 -300.22045898 365.20581055 C-299.72545898 364.05081055 -299.23045898 362.89581055 -298.72045898 361.70581055 C-297.22045898 358.20581055 -297.22045898 358.20581055 -294.92749023 355.9284668 C-291.90735397 352.89089829 -289.71681195 349.72763532 -287.40795898 346.14331055 C-286.53844724 344.81239846 -285.66865145 343.4816719 -284.79858398 342.15112305 C-284.36868164 341.49015625 -283.9387793 340.82918945 -283.49584961 340.14819336 C-282.29353762 338.31710718 -281.06865466 336.50452536 -279.82983398 334.69799805 C-279.11311523 333.64870117 -278.39639648 332.5994043 -277.65795898 331.51831055 C-277.01729492 330.58631836 -276.37663086 329.65432617 -275.71655273 328.6940918 C-274.346198 326.41493785 -273.82746342 324.74319845 -273.22045898 322.20581055 C-272.43670898 321.44268555 -271.65295898 320.67956055 -270.84545898 319.89331055 C-268.0236492 317.3273006 -268.0236492 317.3273006 -266.72045898 313.70581055 C-265.08174017 309.88213332 -263.12993133 308.11528289 -260.22045898 305.20581055 C-259.72545898 304.05081055 -259.23045898 302.89581055 -258.72045898 301.70581055 C-257.08174017 297.88213332 -255.12993133 296.11528289 -252.22045898 293.20581055 C-251.72545898 292.05081055 -251.23045898 290.89581055 -250.72045898 289.70581055 C-249.0756663 285.86796094 -247.14386968 284.12922124 -244.22045898 281.20581055 C-243.11190802 279.19099893 -242.15464263 277.13614294 -241.18920898 275.04956055 C-239.93306704 272.65883879 -238.12138984 271.1067414 -236.22045898 269.20581055 C-235.74608398 268.07143555 -235.27170898 266.93706055 -234.78295898 265.76831055 C-233.09928576 261.9295356 -231.15078908 260.13614064 -228.22045898 257.20581055 C-227.00421301 254.91273019 -226.1298863 252.64690492 -225.22045898 250.20581055 C-224.56045898 250.20581055 -223.90045898 250.20581055 -223.22045898 250.20581055 C-223.01420898 249.21581055 -222.80795898 248.22581055 -222.59545898 247.20581055 C-221.45239469 243.14340939 -219.28374027 240.33483089 -216.67749023 237.0690918 C-215.07118011 235.09556511 -215.07118011 235.09556511 -213.47045898 232.26831055 C-212.22045898 230.20581055 -212.22045898 230.20581055 -210.22045898 229.20581055 C-209.93170898 228.60768555 -209.64295898 228.00956055 -209.34545898 227.39331055 C-208.01595356 224.8081611 -206.29953483 223.21991527 -204.22045898 221.20581055 C-202.12708158 218.37409379 -202.12708158 218.37409379 -201.35717773 215.40893555 C-200.06013996 211.75405246 -198.28752752 209.1067738 -196.03295898 205.95581055 C-195.22304737 204.81649885 -194.41315172 203.6771758 -193.60327148 202.5378418 C-193.00047363 201.69793701 -193.00047363 201.69793701 -192.38549805 200.84106445 C-190.15034592 197.70379518 -187.99837832 194.50780108 -185.82592773 191.3269043 C-184.22045898 189.20581055 -184.22045898 189.20581055 -182.38842773 187.45800781 C-179.86760531 184.83924804 -177.95087582 182.06949886 -175.92749023 179.04956055 C-175.34024422 178.17334045 -175.34024422 178.17334045 -174.74113464 177.27941895 C-173.91951839 176.05052934 -173.10024433 174.82007088 -172.28320312 173.58813477 C-171.03359509 171.70676825 -169.77305526 169.83306958 -168.51147461 167.9597168 C-167.71197629 166.76094475 -166.91312566 165.56174043 -166.11499023 164.36206055 C-165.39158447 163.27731445 -164.66817871 162.19256836 -163.92285156 161.07495117 C-162.45662324 158.60383182 -161.84768638 156.93097937 -161.22045898 154.20581055 C-160.43670898 153.44268555 -159.65295898 152.67956055 -158.84545898 151.89331055 C-156.35178572 149.34026411 -155.35453314 147.42785347 -154.08374023 144.1550293 C-151.60227108 138.55207406 -147.7624401 133.70374955 -143.65795898 129.20581055 C-140.07110461 125.25229994 -137.60814126 120.9591688 -135.22045898 116.20581055 C-134.56045898 116.20581055 -133.90045898 116.20581055 -133.22045898 116.20581055 C-132.95233398 115.27768555 -132.68420898 114.34956055 -132.40795898 113.39331055 C-131.27377599 110.3489246 -130.52361741 109.30869432 -128.22045898 107.20581055 C-127.89045898 106.21581055 -127.56045898 105.22581055 -127.22045898 104.20581055 C-126.56045898 104.20581055 -125.90045898 104.20581055 -125.22045898 104.20581055 C-124.56045898 102.22581055 -123.90045898 100.24581055 -123.22045898 98.20581055 C-122.56045898 98.20581055 -121.90045898 98.20581055 -121.22045898 98.20581055 C-120.56045898 96.22581055 -119.90045898 94.24581055 -119.22045898 92.20581055 C-118.56045898 92.20581055 -117.90045898 92.20581055 -117.22045898 92.20581055 C-116.56045898 90.22581055 -115.90045898 88.24581055 -115.22045898 86.20581055 C-114.56045898 86.20581055 -113.90045898 86.20581055 -113.22045898 86.20581055 C-112.56045898 84.22581055 -111.90045898 82.24581055 -111.22045898 80.20581055 C-110.56045898 80.20581055 -109.90045898 80.20581055 -109.22045898 80.20581055 C-108.56045898 78.22581055 -107.90045898 76.24581055 -107.22045898 74.20581055 C-106.56045898 74.20581055 -105.90045898 74.20581055 -105.22045898 74.20581055 C-104.56045898 72.22581055 -103.90045898 70.24581055 -103.22045898 68.20581055 C-102.56045898 68.20581055 -101.90045898 68.20581055 -101.22045898 68.20581055 C-100.56045898 66.22581055 -99.90045898 64.24581055 -99.22045898 62.20581055 C-98.56045898 62.20581055 -97.90045898 62.20581055 -97.22045898 62.20581055 C-96.93428711 61.6334668 -96.64811523 61.06112305 -96.35327148 60.47143555 C-94.64233398 57.04956055 -92.93139648 53.62768555 -91.22045898 50.20581055 C-90.56045898 50.20581055 -89.90045898 50.20581055 -89.22045898 50.20581055 C-88.99358398 49.31893555 -88.76670898 48.43206055 -88.53295898 47.51831055 C-87.00490138 43.66178422 -85.20471945 42.06936871 -82.22045898 39.20581055 C-81.23483429 38.19261825 -80.25320077 37.17553136 -79.27514648 36.1550293 C-73.37607096 30.07853797 -67.52994171 24.66819013 -60.52124023 19.8503418 C-58.01444185 18.15362049 -58.01444185 18.15362049 -55.40795898 15.39331055 C-51.47132323 11.4566748 -46.509974 9.70067349 -41.22045898 8.20581055 C-39.90045898 8.20581055 -38.58045898 8.20581055 -37.22045898 8.20581055 C-37.22045898 7.54581055 -37.22045898 6.88581055 -37.22045898 6.20581055 C-35.73545898 6.05112305 -35.73545898 6.05112305 -34.22045898 5.89331055 C-30.74330813 5.40357099 -27.73465577 4.37770414 -24.50561523 3.0222168 C-16.29182436 0.08771715 -8.62146491 -0.07396689 0 0 Z " fill="#FBFEFE" transform="translate(867.220458984375,57.794189453125)"/>
<path d="M0 0 C0.33 0.66 0.66 1.32 1 2 C0.67 2.99 0.34 3.98 0 5 C-0.66 5 -1.32 5 -2 5 C-2 5.99 -2 6.98 -2 8 C-2.66 8 -3.32 8 -4 8 C-4.2165625 8.8971875 -4.2165625 8.8971875 -4.4375 9.8125 C-4.8872439 11.56150404 -5.42892341 13.28677023 -6 15 C-6.66 15 -7.32 15 -8 15 C-8.12503906 15.72316406 -8.25007813 16.44632812 -8.37890625 17.19140625 C-8.98885337 19.94959479 -9.84831492 22.3357862 -10.9375 24.9375 C-13.4049014 30.98084546 -15.21756377 36.47969809 -16 43 C-16.33 43 -16.66 43 -17 43 C-17.31795922 36.93522236 -17.36853362 33.18235942 -14 28 C-13.64191065 26.38443407 -13.33454338 24.75726029 -13.0625 23.125 C-12.20556243 18.30742658 -10.75144992 15.04119207 -8 11 C-7.34 10.67 -6.68 10.34 -6 10 C-5.2884375 8.329375 -5.2884375 8.329375 -4.5625 6.625 C-3.24414993 3.56642783 -2.50922597 2.03127817 0 0 Z " fill="#C3D8F4" transform="translate(69,487)"/>
<path d="M0 0 C2.23587229 0.01846607 4.47133415 0.02050785 6.70727539 0.02026367 C17.63179364 0.05806317 17.63179364 0.05806317 18.77954102 1.20581055 C20.89785432 1.57928727 23.02470697 1.90490684 25.15454102 2.20581055 C28.51900119 2.68325057 31.55448399 3.13079154 34.77954102 4.20581055 C34.44954102 4.86581055 34.11954102 5.52581055 33.77954102 6.20581055 C26.90454102 5.33081055 26.90454102 5.33081055 25.77954102 4.20581055 C24.1384686 3.9974204 22.49097809 3.8382933 20.84204102 3.70581055 C15.99909505 3.31558756 15.99909505 3.31558756 13.77954102 2.20581055 C9.63902273 1.95922778 5.48905862 2.02058788 1.34204102 2.01831055 C-0.36628906 1.99994141 -0.36628906 1.99994141 -2.10913086 1.98120117 C-9.36697566 1.96876626 -16.13519572 2.62343807 -23.22045898 4.20581055 C-22.22045898 2.20581055 -22.22045898 2.20581055 -19.18530273 1.0925293 C-12.90143264 -0.33925632 -6.40877573 -0.05498337 0 0 Z " fill="#D6E5F7" transform="translate(867.220458984375,57.794189453125)"/>
<path d="M0 0 C0.78503906 0.49371094 1.57007813 0.98742187 2.37890625 1.49609375 C3.42949219 2.13675781 4.48007812 2.77742187 5.5625 3.4375 C6.59503906 4.07558594 7.62757813 4.71367188 8.69140625 5.37109375 C14.99294793 8.47350565 21.56930813 8.13444722 28.4375 8.0625 C29.67790039 8.05573242 29.67790039 8.05573242 30.94335938 8.04882812 C32.96227146 8.03715811 34.98114574 8.01922718 37 8 C37 7.34 37 6.68 37 6 C38.32 6.33 39.64 6.66 41 7 C33.7144019 11.8570654 25.52199492 11.79450341 17 11 C13.45302514 10.01704749 10.26898228 8.67734297 7 7 C6.24976563 6.62617187 5.49953125 6.25234375 4.7265625 5.8671875 C4.15679687 5.58101562 3.58703125 5.29484375 3 5 C3 4.34 3 3.68 3 3 C2.01 2.67 1.02 2.34 0 2 C0 1.34 0 0.68 0 0 Z " fill="#D1E1F6" transform="translate(373,638)"/>
<path d="M0 0 C0.33 0.66 0.66 1.32 1 2 C0.14453125 4.3125 0.14453125 4.3125 -1.1875 7 C-1.61417969 7.886875 -2.04085937 8.77375 -2.48046875 9.6875 C-4.12049388 12.18337372 -5.2451887 12.96178418 -8 14 C-8 15.32 -8 16.64 -8 18 C-8.99 18 -9.98 18 -11 18 C-11.2475 18.78375 -11.495 19.5675 -11.75 20.375 C-13.18650005 23.3916501 -14.04720831 23.71565565 -17 25 C-11.64460205 16.4378744 -6.09347524 8.05733624 0 0 Z " fill="#C4D9F4" transform="translate(683,247)"/>
<path d="M0 0 C0.33 0.66 0.66 1.32 1 2 C0.54625 2.53625 0.0925 3.0725 -0.375 3.625 C-2.21688312 6.31698302 -3.07971933 8.88520388 -4 12 C-4.66 12 -5.32 12 -6 12 C-6.144375 12.61875 -6.28875 13.2375 -6.4375 13.875 C-7 16 -7 16 -8 18 C-8.99 18 -9.98 18 -11 18 C-9.70462451 14.48575165 -8.1743389 11.52734063 -6.0625 8.4375 C-5.55847656 7.69371094 -5.05445313 6.94992188 -4.53515625 6.18359375 C-3.06322729 4.08993399 -1.54802711 2.03785061 0 0 Z " fill="#C5D9F4" transform="translate(723,187)"/>
<path d="M0 0 C0.6875 1.6875 0.6875 1.6875 1 4 C0.5875 4.680625 0.175 5.36125 -0.25 6.0625 C-2.46579992 9.78187843 -3.3122975 13.4924652 -4.3515625 17.671875 C-5 20 -5 20 -6 21 C-6.36760731 23.32817964 -6.70241581 25.6618385 -7 28 C-7.33 28 -7.66 28 -8 28 C-8.3133886 22.02240265 -8.49675556 18.05086914 -5 13 C-4.16784758 10.74829345 -3.45001593 8.4783005 -2.74609375 6.18359375 C-2.00117628 4.00344263 -1.07506646 2.03478244 0 0 Z " fill="#DAE8F8" transform="translate(60,502)"/>
<path d="M0 0 C-6.56882431 3.1063786 -13.06001352 5.83836487 -20 8 C-15.1287424 2.56667422 -7.38159044 -2.2176452 0 0 Z " fill="#CBDEF5" transform="translate(830,67)"/>
<path d="M0 0 C-1.32 0.33 -2.64 0.66 -4 1 C-4 1.66 -4 2.32 -4 3 C-5.95421035 3.86355778 -7.91351347 4.71559934 -9.875 5.5625 C-10.96554688 6.03816406 -12.05609375 6.51382812 -13.1796875 7.00390625 C-14.11039062 7.33261719 -15.04109375 7.66132813 -16 8 C-16.66 7.67 -17.32 7.34 -18 7 C-12.91222709 2.3892058 -7.00679736 -0.65688725 0 0 Z " fill="#C6DAF4" transform="translate(118,452)"/>
<path d="M0 0 C0.66 0.33 1.32 0.66 2 1 C1.67 1.99 1.34 2.98 1 4 C0.34 4 -0.32 4 -1 4 C-1 4.99 -1 5.98 -1 7 C-1.99 7 -2.98 7 -4 7 C-4.103125 7.5775 -4.20625 8.155 -4.3125 8.75 C-5.09792798 11.32049158 -6.30504197 12.93657284 -8 15 C-8.66 14.67 -9.32 14.34 -10 14 C-8.625 11.5 -8.625 11.5 -7 9 C-6.34 9 -5.68 9 -5 9 C-4.9175 8.443125 -4.835 7.88625 -4.75 7.3125 C-3.77389987 4.30285794 -2.04811186 2.37845248 0 0 Z " fill="#B7D0F2" transform="translate(532,473)"/>
<path d="M0 0 C0.33 0.66 0.66 1.32 1 2 C0.67 2.99 0.34 3.98 0 5 C-0.99 5.33 -1.98 5.66 -3 6 C-3.1546875 6.928125 -3.1546875 6.928125 -3.3125 7.875 C-4 10 -4 10 -6.9375 11.8125 C-7.948125 12.204375 -8.95875 12.59625 -10 13 C-10.66 12.67 -11.32 12.34 -12 12 C-11.13375 11.319375 -10.2675 10.63875 -9.375 9.9375 C-5.8104467 6.98401298 -2.91215245 3.58339327 0 0 Z " fill="#C1D7F3" transform="translate(429,627)"/>
<path d="M0 0 C0.66 0.33 1.32 0.66 2 1 C1.01 2.98 0.02 4.96 -1 7 C-1.66 7 -2.32 7 -3 7 C-3 7.99 -3 8.98 -3 10 C-3.66 10 -4.32 10 -5 10 C-5 10.99 -5 11.98 -5 13 C-5.66 13 -6.32 13 -7 13 C-7 13.99 -7 14.98 -7 16 C-7.66 15.67 -8.32 15.34 -9 15 C-6.46724891 8.16157205 -6.46724891 8.16157205 -2 6 C-0.70768358 2.95800528 -0.70768358 2.95800528 0 0 Z " fill="#D5E4F7" transform="translate(486,542)"/>
<path d="M0 0 C0.33 0.99 0.66 1.98 1 3 C-0.21484375 4.82421875 -0.21484375 4.82421875 -1.9375 6.6875 C-2.50339844 7.31011719 -3.06929688 7.93273437 -3.65234375 8.57421875 C-4.09707031 9.04472656 -4.54179687 9.51523437 -5 10 C-5.33 9.34 -5.66 8.68 -6 8 C-4.40382422 4.16917814 -3.50015029 2.33343353 0 0 Z " fill="#C8DBF5" transform="translate(476,558)"/>
<path d="M0 0 C1.24546405 2.49092811 0.7767578 3.41080733 0 6 C-0.66 6 -1.32 6 -2 6 C-2 6.66 -2 7.32 -2 8 C-2.66 8 -3.32 8 -4 8 C-4 8.99 -4 9.98 -4 11 C-4.66 10.67 -5.32 10.34 -6 10 C-4.6302836 6.00499382 -2.74277578 3.19990508 0 0 Z " fill="#C9DCF5" transform="translate(651,295)"/>
<path d="M0 0 C0.33 0.66 0.66 1.32 1 2 C0.67 2.99 0.34 3.98 0 5 C-0.66 5 -1.32 5 -2 5 C-2 5.99 -2 6.98 -2 8 C-2.99 8 -3.98 8 -5 8 C-5.33 8.66 -5.66 9.32 -6 10 C-5.49396008 7.83125748 -5.00016187 6.00032373 -4 4 C-3.34 4 -2.68 4 -2 4 C-2 3.01 -2 2.02 -2 1 C-1.34 0.67 -0.68 0.34 0 0 Z " fill="#BDD4F3" transform="translate(469,568)"/>
<path d="M0 0 C2.3125 0.1875 2.3125 0.1875 5 1 C6.875 3.375 6.875 3.375 8 6 C7.67 6.99 7.34 7.98 7 9 C5.83037314 7.69013727 4.66437056 6.3770374 3.5 5.0625 C2.8503125 4.33160156 2.200625 3.60070312 1.53125 2.84765625 C0 1 0 1 0 0 Z " fill="#D5E4F6" transform="translate(290,856)"/>
<path d="M0 0 C3.74281699 2.38179263 6.97727468 4.74475735 10 8 C6.01328937 6.63312778 3.11505367 4.84804907 0 2 C0 1.34 0 0.68 0 0 Z " fill="#D0E1F5" transform="translate(209,462)"/>
<path d="M0 0 C0.66 0 1.32 0 2 0 C2.33 0.66 2.66 1.32 3 2 C3.99 2.33 4.98 2.66 6 3 C6.33 4.65 6.66 6.3 7 8 C1.125 3.375 1.125 3.375 0 0 Z " fill="#D2E1F6" transform="translate(305,872)"/>
</svg>
